<?xml version="1.0" encoding="utf-8"?>
<!-- Generator: Adobe Illustrator 25.0.1, SVG Export Plug-In . SVG Version: 6.00 Build 0)  -->
<!DOCTYPE svg PUBLIC "-//W3C//DTD SVG 1.1//EN" "http://www.w3.org/Graphics/SVG/1.1/DTD/svg11.dtd" [
	<!ENTITY st0 "fill-rule:evenodd;clip-rule:evenodd;fill:#000002;">
]>
<svg version="1.1" id="Layer_1" xmlns="http://www.w3.org/2000/svg" xmlns:xlink="http://www.w3.org/1999/xlink" x="0px" y="0px"
	 viewBox="0 0 850.394 450.858" style="enable-background:new 0 0 850.394 450.858;" xml:space="preserve">
<g>
	<path style="&st0;" d="M59.466,233.788c0,0.679-0.272,1.292-0.681,1.633c-0.475,0.406-1.086,0.612-1.63,0.612
		c-0.544,0.067-1.157-0.137-1.632-0.409c-0.476-0.34-0.816-0.95-0.816-1.7c-0.069-0.679,0.203-1.289,0.612-1.63
		c0.475-0.409,1.019-0.61,1.564-0.61c0.544-0.072,1.154,0.066,1.632,0.338c0.476,0.407,0.816,1.02,0.816,1.698L59.466,233.788
		L59.466,233.788z M71.835,255.945l-1.564,0.272l-0.61-2.173l-0.613-0.476l-13.119,2.786c-0.338,0.069-0.747,0.138-1.019,0.204
		c-0.338,0.069-0.679,0.272-0.951,0.272c-0.542,0.137-1.088,0.409-1.495,0.613c-0.475,0.272-0.951,0.679-1.291,1.088
		c-0.613,0.747-1.02,1.63-1.157,2.649c-0.135,1.019-0.135,2.039,0.069,3.126c0.203,0.953,0.61,1.973,1.154,2.855
		c0.546,0.884,1.294,1.495,2.178,1.904c0.476,0.272,1.017,0.407,1.562,0.407c0.544,0.068,1.088,0.137,1.631,0
		c0.272-0.067,0.679-0.067,0.951-0.135c0.34-0.068,0.748-0.137,1.088-0.203l12.845-2.72l0.478-0.747l-0.137-2.176l1.495-0.339
		l1.632,7.612l-1.564,0.271l-0.679-2.107l-0.747-0.544l-13.188,2.789c-0.407,0.066-0.814,0.204-1.154,0.272
		c-0.341,0.067-0.816,0.067-1.156,0.135c-0.68,0.138-1.495,0.069-2.174,0c-0.748-0.068-1.563-0.272-2.242-0.61
		c-0.818-0.478-1.632-1.225-2.175-2.042c-0.613-0.95-1.089-1.97-1.429-2.921c-0.066-0.34-0.201-0.681-0.272-0.953
		c-0.067-0.338-0.203-0.747-0.272-1.02c-0.066-0.272-0.135-0.679-0.201-0.95c-0.069-0.272-0.069-0.747-0.138-1.088
		c-0.069-1.088,0-2.174,0.138-3.195c0.201-1.017,0.61-1.97,1.154-2.784c0.544-0.612,1.086-1.156,1.767-1.428
		c0.61-0.341,1.36-0.748,1.97-0.954c0.409-0.066,0.818-0.135,1.156-0.203c0.409-0.069,0.816-0.272,1.086-0.339l13.526-2.855
		l0.341-0.681l-0.272-2.105l1.495-0.34L71.835,255.945L71.835,255.945z M53.619,279.53l0.953,1.973l0.813,0.407l19.032-6.526
		l0.206-0.747l-0.613-2.242l1.495-0.475l2.242,6.456l-0.882,0.272l-13.729,18.079l16.381-5.641l0.339-0.816l-0.476-2.242
		l1.495-0.544l2.515,7.339l-1.495,0.544l-0.951-1.901l-0.816-0.545l-2.039,0.747l-19.03,6.526l-0.75-2.311l0.547-0.816
		l14.677-19.304l-17.535,5.981l-0.34,0.882l0.409,2.244l-1.429,0.476l-2.514-7.342L53.619,279.53L53.619,279.53z M63.543,306.107
		l-1.36,0.679l4.215,8.223l1.291-0.679l-0.884-2.176l0.206-0.816l17.941-9.105l0.206-0.137l0.679,0.341l1.222,2.039l1.36-0.679
		l-4.212-8.226l-1.36,0.681l0.882,2.107l-0.203,0.68l-18.013,9.174l-0.068,0.068l-0.679-0.203L63.543,306.107L63.543,306.107z
		 M93.925,312.63l-1.291,0.819l-1.36-1.701l-0.613-0.137l-11.825,15.973l19.236-4.552l0.203-0.613l-1.157-1.973l1.291-0.882
		l4.08,6.185l-1.36,0.882l-1.564-1.698l-2.924,0.613l-20.865,4.759l-1.36-2.176l1.701-2.31l12.707-17.4l-0.882-2.108l1.36-0.816
		L93.925,312.63L93.925,312.63z M85.971,341.314l-1.086,1.086l12.913,13.867l4.35-4.077l-1.291-1.429l-3.058,2.039l-0.815,0.069
		l-6.729-7.204l7.545-7.069l4.078,4.352l-0.069,0.814l-1.698,2.107l1.154,1.291l5.981-5.572l-1.155-1.291l-2.241,1.564h-0.816
		l-4.08-4.352l6.866-6.456l5.776,6.185l-0.066,0.884l-1.904,2.38l1.426,1.563l3.945-3.67l-11.963-12.845l-1.156,1.086l1.291,1.563
		l0.069,0.75l-14.818,13.864h-0.066l-0.818-0.068L85.971,341.314L85.971,341.314z M123.695,346.411
		c1.698,1.36,3.058,2.989,3.94,4.759c0.884,1.698,0.409,3.737-1.292,5.844c-1.154,1.495-2.583,2.242-3.943,2.242
		c-1.495-0.066-3.056-0.407-4.552-1.086c1.088,1.563,1.563,2.855,1.497,3.737c-0.137,0.953-0.409,1.97-0.884,2.855
		c-0.341,0.475-0.613,1.157-0.885,1.7c-0.272,0.61-0.544,1.426-0.613,2.174c-0.066,0.953,0.069,1.835,0.613,2.38
		c0.544,0.679,1.089,1.291,1.769,1.835l0.066,0.066l0.069,0.069l-0.815,1.02c-0.135-0.067-0.407-0.203-0.476-0.272
		c-0.204-0.135-0.406-0.272-0.544-0.407c-0.204-0.203-0.544-0.409-0.816-0.544c-0.203-0.203-0.544-0.409-0.747-0.544
		c-0.951-0.816-1.63-1.698-1.97-2.649c-0.34-1.019-0.206-2.379,0.407-3.943c0.34-0.613,0.612-1.291,0.815-1.835
		c0.272-0.475,0.409-1.157,0.544-1.564c0.544-1.291,0.679-2.514,0.407-3.261c-0.203-0.75-1.155-1.904-2.717-3.127l-1.089-1.019
		l-5.574,6.863l0.137,0.816l1.495,1.495l-0.951,1.157l-6.797-5.506l0.951-1.156l1.701,1.088l0.885,0.069v-0.069l12.776-15.768
		l-0.203-0.816l-1.495-1.36l0.951-1.223L123.695,346.411L123.695,346.411z M113.499,353.546l6.525-7.952l1.767,1.429
		c0.069,0.066,0.138,0.135,0.272,0.203c0.068,0.066,0.135,0.135,0.203,0.204c0.476,0.34,0.885,0.884,1.291,1.36
		c0.476,0.475,0.747,1.088,0.951,1.563c0.206,0.882,0.138,1.767-0.135,2.649c-0.272,0.75-0.613,1.565-1.154,2.176l-0.206,0.272
		c-1.292,1.36-2.717,1.835-4.008,1.495c-1.223-0.406-2.583-1.019-3.74-1.97c-0.203-0.203-0.475-0.341-0.747-0.544
		c-0.203-0.135-0.476-0.407-0.679-0.613c-0.068,0-0.203-0.067-0.272-0.135L113.499,353.546L113.499,353.546z M123.013,375.842
		l-0.066,0.067c0.475,0.544,1.086,1.222,1.698,1.697c0.681,0.545,1.36,1.089,2.039,1.429c0.272,0.138,0.475,0.34,0.681,0.475
		c0.203,0.138,0.406,0.206,0.679,0.341c0.204,0.135,0.544,0.271,0.816,0.409c0.203,0.135,0.475,0.272,0.747,0.407
		c1.835,0.815,3.874,1.085,5.912,0.882c1.904-0.204,3.533-1.289,4.69-3.33c0.816-1.495,0.885-3.056,0.272-4.486
		c-0.613-1.426-1.36-2.786-2.38-4.009c-0.206-0.272-0.475-0.61-0.613-0.884c-0.203-0.204-0.475-0.542-0.679-0.816
		c-0.137-0.135-0.271-0.406-0.409-0.61c-0.135-0.137-0.338-0.409-0.475-0.544c-0.476-0.747-0.882-1.632-1.154-2.446
		c-0.272-0.75-0.137-1.7,0.407-2.585c0.613-1.223,1.632-1.901,2.923-2.105c1.223-0.138,2.517,0,3.671,0.544l0.066,0.066l0.137,0.069
		c0.613,0.34,1.157,0.816,1.564,1.291c0.34,0.544,0.679,1.156,0.815,1.835l-1.156,3.262l1.632,0.953l2.786-4.962
		c-0.544-0.478-1.089-1.088-1.698-1.563c-0.682-0.544-1.291-1.089-1.973-1.564c-0.203-0.138-0.475-0.34-0.747-0.475
		c-0.204-0.137-0.475-0.272-0.679-0.41c-1.767-1.019-3.806-1.426-5.913-1.223c-2.176,0.204-3.805,1.36-4.893,3.399
		c-0.747,1.291-0.953,2.717-0.477,4.077c0.477,1.36,1.088,2.72,1.904,3.806c0.272,0.274,0.613,0.681,0.95,1.022
		c0.341,0.407,0.681,0.882,1.022,1.289c0.814,0.884,1.427,2.039,1.971,3.06c0.406,1.088,0.272,2.242-0.272,3.33
		c-0.816,1.426-1.901,2.107-3.261,2.176c-1.291,0-2.651-0.341-3.943-1.022c-0.544-0.338-1.292-0.816-1.767-1.291
		c-0.547-0.407-0.953-0.882-1.36-1.36l-0.137-0.88l1.701-3.876l-1.973-1.088L123.013,375.842L123.013,375.842z M141.23,384.95
		l2.107,0.882l0.679-0.34h0.069l8.495-18.42l-0.203-0.61l-2.039-1.088l0.679-1.429l8.361,3.942l-0.682,1.36l-2.173-0.884
		l-0.747,0.205l-0.135,0.204l-8.499,18.214l0.339,0.747l2.11,1.225l-0.681,1.291l-8.358-3.876L141.23,384.95L141.23,384.95z
		 M161.484,368.636l-0.749-0.203l-1.63,5.437l1.904,0.613l1.561-3.061l0.75-0.406l5.232,1.563l-5.844,19.304l-0.203,0.611
		l-0.747,0.34l-2.379-0.544l-0.476,1.426l9.174,2.855l0.409-1.426l-2.242-0.951l-0.409-0.681l5.847-19.236l0.203-0.679l5.369,1.632
		l0.406,0.814l-0.541,3.332l1.901,0.61l1.698-5.437L161.484,368.636L161.484,368.636z M192.818,375.163l0.951,2.987l6.388,20.73
		l2.107,0.612l-0.135,1.495l-8.292-0.61l0.135-1.497h2.244l0.273-0.542l-2.108-7.138l-8.701-0.61l-3.127,6.795l0.341,0.544
		l2.379,0.338l-0.069,1.497L178,399.29l0.135-1.495l2.107-0.341l1.359-2.717l8.768-19.71L192.818,375.163L192.818,375.163z
		 M186.564,388.96l7.339,0.544l-3.059-10.537L186.564,388.96L186.564,388.96z M206.616,400.172l-0.478-6.457l2.245-0.135
		l0.679,4.143l0.61,0.681c0.544,0.206,1.157,0.407,1.838,0.476c0.679,0.068,1.495,0.068,2.174,0.068
		c1.426-0.137,2.786-0.544,3.874-1.291c1.088-0.816,1.632-1.97,1.494-3.602c-0.066-1.222-0.61-2.31-1.563-2.921
		c-0.951-0.615-2.107-1.156-3.262-1.497c-0.544-0.203-1.088-0.407-1.563-0.542c-0.476-0.071-0.951-0.274-1.36-0.343
		c-1.291-0.475-2.583-1.288-3.668-2.173c-1.157-0.884-1.769-2.176-1.904-3.671c-0.135-2.31,0.612-4.146,2.31-5.437
		c1.698-1.36,3.602-2.108,5.641-2.242c0.272-0.066,0.544-0.066,0.816-0.066h0.882c0.816,0,1.632,0.135,2.448,0.201
		c0.816,0.135,1.632,0.341,2.311,0.407l0.409,5.712l-1.904,0.135l-0.816-3.398c-0.475-0.475-1.154-0.815-1.698-1.088
		c-0.61-0.204-1.291-0.269-1.972-0.269h-0.135l-0.135,0.066c-1.225,0.135-2.448,0.679-3.401,1.495
		c-0.951,0.885-1.426,2.038-1.357,3.398c0.135,1.02,0.475,1.835,1.154,2.38c0.613,0.475,1.429,1.019,2.245,1.36
		c0.271,0.068,0.544,0.203,0.747,0.272c0.203,0.069,0.475,0.203,0.679,0.272c0.272,0.135,0.679,0.203,0.951,0.338
		c0.34,0.137,0.747,0.203,1.019,0.34c1.497,0.475,2.923,1.225,4.214,2.107c1.292,0.814,2.041,2.176,2.176,3.943
		c0.203,2.242-0.613,4.077-2.11,5.301c-1.629,1.291-3.464,2.175-5.435,2.516h-0.882c-0.274,0.066-0.612,0.135-0.884,0.135
		c-0.272,0.068-0.544,0.068-0.747,0.068h-0.816c-0.816,0.069-1.632,0-2.448-0.137c-0.813-0.066-1.699-0.272-2.446-0.476
		L206.616,400.172L206.616,400.172z M242.842,369.52l0.61,1.426l-2.039,0.951l-0.204,0.546l13.185,14.884l-0.475-19.71l-0.544-0.341
		l-2.245,0.681l-0.544-1.429l6.935-2.651l0.541,1.429l-1.97,1.223l-0.066,2.992l0.338,21.343l-2.38,0.95l-1.97-2.175l-14.342-16.04
		l-2.174,0.407l-0.544-1.427L242.842,369.52L242.842,369.52z M269.689,383.385l0.747,1.36l8.02-4.622l-0.747-1.293l-2.176,1.022
		l-0.816-0.203l-10.058-17.401l-0.069-0.203l0.272-0.681l1.975-1.291l-0.752-1.358l-8.021,4.622l0.819,1.357l2.036-1.088
		l0.682,0.206l10.127,17.535v0.069l-0.137,0.679L269.689,383.385L269.689,383.385z M281.448,376.384l1.629-1.357l0.272-0.816
		l-0.066-0.069l-11.622-16.584h-0.818l-1.833,1.157l-0.885-1.291l7.273-5.099l0.882,1.291l-1.564,1.291l-0.272,0.747l0.341,0.544
		l11.622,16.584l6.797-4.825l0.135-0.816l-2.104-3.942l1.631-1.088l3.872,5.506l-14.474,10.058L281.448,376.384L281.448,376.384z
		 M299.255,364.151l1.088,1.086l5.503-5.504l-1.086-1.02l-1.835,1.358h-0.885l-13.117-13.118l23.789,4.757l1.019,0.137l1.698-1.697
		l-14.205-14.205l-1.563-1.566l0.137-0.951l1.292-1.698l-1.157-1.088l-5.438,5.437l1.089,1.155l1.835-1.426h0.882l12.235,12.235
		l-22.225-4.487l-0.681-0.61l-4.825,4.825l1.088,1.154l1.767-1.564l0.747-0.069l14.205,14.207v0.882L299.255,364.151
		L299.255,364.151z M318.963,343.965l1.157-1.769v-0.816l-0.069-0.067l-16.177-12.166l-0.745,0.204l-1.36,1.564l-1.223-0.951
		l10.603-14.07l4.281,3.193l-1.357,1.769l-2.651-1.495l-0.885,0.069l-5.028,6.795l7.476,5.641l3.602-4.825l-0.203-0.816
		l-1.837-1.901l1.022-1.36l6.523,4.893l-1.02,1.36l-2.445-1.294l-0.749,0.137l-3.6,4.756l8.224,6.188l5.981-7.817l-0.206-0.816
		l-2.515-2.717l1.089-1.497l4.825,3.602l-11.419,15.089L318.963,343.965L318.963,343.965z M333.102,325.205l1.36,0.747l3.737-6.798
		l-1.291-0.679l-1.357,1.766l-0.885,0.272l-16.246-8.971l24.198-2.039l1.019-0.068l1.157-2.174l-17.603-9.72l-1.904-1.088
		l-0.135-0.953l0.747-1.968l-1.36-0.75l-3.74,6.797l1.36,0.747l1.36-1.902l0.816-0.206l15.155,8.361l-22.632,1.835l-0.747-0.407
		l-3.333,5.979l1.36,0.816l1.292-1.97l0.681-0.341l17.601,9.787l0.206,0.816L333.102,325.205L333.102,325.205z M346.9,300.125
		l-6.05-2.379l0.816-2.039l4.077,1.155l0.816-0.204c0.475-0.406,0.882-0.882,1.291-1.495c0.407-0.544,0.747-1.291,1.02-1.901
		c0.541-1.36,0.681-2.72,0.541-4.08c-0.201-1.291-1.086-2.311-2.58-2.924c-1.157-0.475-2.311-0.406-3.264,0.138
		c-1.02,0.61-2.039,1.36-2.853,2.311c-0.34,0.341-0.818,0.747-1.157,1.154c-0.272,0.409-0.681,0.747-0.953,1.088
		c-0.951,0.885-2.242,1.701-3.465,2.314c-1.292,0.679-2.787,0.61-4.146,0.066c-2.176-0.816-3.465-2.311-3.943-4.418
		c-0.475-2.108-0.272-4.146,0.478-6.047c0.133-0.272,0.203-0.478,0.338-0.747c0.066-0.274,0.272-0.547,0.338-0.816
		c0.409-0.75,0.887-1.429,1.294-2.108c0.475-0.679,1.019-1.291,1.357-1.904l5.302,2.173l-0.679,1.769l-3.467-0.815
		c-0.613,0.271-1.223,0.679-1.7,1.088c-0.473,0.475-0.814,1.019-1.086,1.698l-0.069,0.137v0.069
		c-0.409,1.155-0.409,2.512-0.137,3.737c0.409,1.223,1.157,2.176,2.448,2.649c0.951,0.41,1.904,0.41,2.652,0.069
		c0.679-0.406,1.561-0.882,2.242-1.423c0.137-0.206,0.34-0.41,0.475-0.547c0.206-0.135,0.478-0.338,0.613-0.544
		c0.204-0.204,0.476-0.476,0.747-0.679c0.206-0.203,0.478-0.544,0.679-0.75c1.157-1.155,2.449-2.105,3.74-2.921
		c1.36-0.747,2.855-0.882,4.486-0.203c2.176,0.885,3.465,2.311,3.875,4.281c0.406,1.973,0.406,4.011-0.135,5.915
		c-0.069,0.272-0.206,0.611-0.341,0.813c-0.069,0.272-0.137,0.613-0.274,0.885c-0.066,0.204-0.201,0.475-0.27,0.679
		c-0.069,0.272-0.274,0.478-0.34,0.747c-0.339,0.747-0.747,1.429-1.223,2.176c-0.409,0.681-0.953,1.428-1.495,1.904V300.125
		L346.9,300.125z M353.083,280.959l1.497,0.406l2.242-8.971l-1.426-0.34l-0.816,2.242l-0.679,0.475l-19.507-4.891l-0.204-0.069
		l-0.272-0.679l0.407-2.311l-1.495-0.409l-2.245,8.971l1.498,0.409l0.679-2.242l0.613-0.34l19.642,4.893h0.066l0.409,0.613
		L353.083,280.959L353.083,280.959z M357.638,267.842l-6.388-0.954l0.407-2.174l4.214,0.272l0.747-0.478
		c0.341-0.476,0.679-1.02,0.885-1.698c0.27-0.679,0.407-1.426,0.542-2.107c0.206-1.426,0.068-2.786-0.407-4.077
		c-0.475-1.223-1.495-2.039-3.126-2.242c-1.223-0.206-2.38,0.066-3.193,0.816c-0.816,0.882-1.634,1.835-2.245,2.921
		c-0.272,0.409-0.61,0.951-0.816,1.36c-0.203,0.475-0.476,0.882-0.679,1.291c-0.747,1.088-1.767,2.176-2.924,3.058
		c-1.088,0.884-2.514,1.223-4.009,1.019c-2.241-0.406-3.874-1.564-4.824-3.465c-0.884-1.973-1.225-4.011-0.884-5.981
		c0.068-0.272,0.068-0.544,0.135-0.816c0.069-0.274,0.137-0.613,0.206-0.885c0.203-0.747,0.544-1.563,0.814-2.31
		c0.206-0.816,0.612-1.495,0.885-2.176l5.641,0.884l-0.341,1.905h-3.467c-0.542,0.407-1.086,0.95-1.427,1.426
		c-0.338,0.544-0.61,1.222-0.679,1.904l-0.069,0.135v0.137c-0.135,1.223,0.138,2.446,0.747,3.602
		c0.613,1.155,1.632,1.835,2.924,2.039c1.02,0.206,1.97,0,2.582-0.544c0.679-0.544,1.36-1.154,1.904-1.904
		c0.067-0.203,0.272-0.407,0.338-0.61c0.206-0.204,0.409-0.476,0.478-0.611c0.203-0.271,0.338-0.681,0.544-0.884
		c0.204-0.272,0.407-0.613,0.542-0.885c0.885-1.36,1.904-2.582,2.99-3.67c1.159-1.02,2.585-1.495,4.352-1.223
		c2.242,0.341,3.874,1.495,4.69,3.262c0.885,1.904,1.292,3.874,1.223,5.846c-0.067,0.272-0.135,0.61-0.135,0.882
		c-0.069,0.272-0.069,0.613-0.069,0.884c-0.069,0.272-0.069,0.544-0.135,0.747c-0.069,0.272-0.138,0.545-0.206,0.816
		c-0.135,0.747-0.407,1.564-0.611,2.311c-0.272,0.816-0.681,1.632-1.088,2.244L357.638,267.842L357.638,267.842z M347.511,233.992
		c0.069-0.679,0.409-1.291,0.884-1.563c0.476-0.338,1.085-0.475,1.632-0.407c0.541,0,1.154,0.272,1.561,0.613
		c0.478,0.407,0.681,1.02,0.681,1.764c-0.069,0.682-0.407,1.294-0.885,1.566c-0.475,0.338-1.019,0.475-1.564,0.406
		c-0.541,0-1.154-0.204-1.629-0.544c-0.409-0.475-0.681-1.088-0.612-1.766L347.511,233.992L347.511,233.992z M45.667,207.961
		l1.563,0.135l-0.135,2.176l0.407,0.475l19.302-4.621l-17.67-8.836l-0.476,0.34l-0.406,2.242l-1.566-0.204l0.884-7.341l1.564,0.206
		l0.135,2.377l2.583,1.36l19.03,9.787l-0.338,2.517l-2.786,0.679l-20.934,5.166l-0.681,2.107l-1.495-0.135L45.667,207.961
		L45.667,207.961z M71.222,193.553l1.497,0.338l1.904-9.04l-1.429-0.338l-0.682,2.311l-0.679,0.475l-19.711-4.146l-0.204-0.069
		l-0.34-0.679l0.409-2.379l-1.564-0.341l-1.904,9.039l1.495,0.341l0.613-2.242l0.61-0.341l19.779,4.215h0.069l0.476,0.61
		L71.222,193.553L71.222,193.553z M73.533,182.948l0.478-2.039l-0.272-0.814H73.67L54.3,174.18l-0.681,0.478l-0.748,2.038
		l-1.495-0.406l2.582-8.567l1.495,0.478l-0.475,1.97l0.271,0.816l0.679,0.203l19.304,5.913l2.446-8.02l-0.475-0.679l-4.078-1.835
		l0.613-1.835l6.457,1.901l-5.166,16.856L73.533,182.948L73.533,182.948z M79.041,164.869l1.427,0.613l3.126-7.07l-1.36-0.61
		l-1.225,1.901l-0.814,0.341L63.271,152.5l23.923-4.146l0.954-0.135l1.019-2.244l-18.419-8.155l-1.971-0.885l-0.271-0.951
		l0.613-2.039l-1.429-0.61l-3.127,7.067l1.426,0.61l1.157-1.97l0.816-0.34l15.837,7.069l-22.362,3.805l-0.816-0.338l-2.787,6.254
		l1.429,0.61l1.086-2.036l0.681-0.343l18.351,8.157l0.341,0.816L79.041,164.869L79.041,164.869z M90.254,142.237l1.155-2.038
		l-0.203-0.679l-0.069-0.069l-17.194-10.74l-0.613,0.203l-1.357,1.835l-1.36-0.816l4.894-7.816l1.36,0.818l-1.157,2.105l0.068,0.747
		l0.203,0.138l17.06,10.602l0.747-0.206l1.428-1.901l1.291,0.816l-4.895,7.817L90.254,142.237L90.254,142.237z M85.429,108.05
		l2.989,0.884l20.73,6.252l1.698-1.358l1.157,0.882l-5.099,6.594l-1.155-0.953l1.223-1.901l-0.338-0.476l-7.07-2.311l-5.368,6.864
		l3.874,6.388l0.61,0.068l1.701-1.766l1.154,0.882l-4.418,5.71l-1.155-0.951l0.882-1.904l-1.495-2.718l-11.419-18.285L85.429,108.05
		L85.429,108.05z M93.381,120.963l4.484-5.778l-10.397-3.399L93.381,120.963L93.381,120.963z M103.509,89.699l-6.866,5.913
		l1.02,1.223l1.7-1.291l0.748-0.069l9.108,10.4c0.204,0.272,0.542,0.544,0.747,0.884c0.271,0.204,0.544,0.545,0.816,0.814
		c0.475,0.478,1.154,0.953,1.767,1.362c0.544,0.407,1.291,0.679,2.039,0.813c1.02,0.138,2.105,0,3.058-0.338
		c0.951-0.341,1.973-0.885,2.855-1.495c0.272-0.206,0.679-0.343,0.951-0.613c0.206-0.137,0.478-0.409,0.681-0.613
		c0.203-0.135,0.476-0.476,0.747-0.679c0.203-0.206,0.476-0.545,0.679-0.75c0.681-0.745,1.36-1.698,1.836-2.649
		c0.544-0.884,0.747-1.904,0.747-2.923c-0.069-0.748-0.203-1.564-0.544-2.242c-0.27-0.613-0.611-1.36-1.02-1.904
		c-0.272-0.272-0.475-0.613-0.747-0.951c-0.203-0.272-0.475-0.544-0.748-0.884l-8.836-10.128l0.137-0.951l1.495-1.632l-1.019-1.223
		l-5.846,5.096l1.022,1.223l1.832-1.223h0.885l8.63,9.993c0.205,0.27,0.478,0.544,0.681,0.816c0.203,0.203,0.406,0.542,0.612,0.747
		c0.338,0.407,0.545,0.951,0.814,1.495c0.206,0.409,0.34,1.02,0.34,1.564c0.069,0.882-0.135,1.902-0.61,2.786
		c-0.478,0.885-1.157,1.769-1.973,2.38c-0.816,0.747-1.698,1.223-2.651,1.632c-0.951,0.34-1.97,0.407-2.853,0.203
		c-0.544-0.069-1.157-0.272-1.566-0.544c-0.475-0.272-0.882-0.613-1.291-1.02c-0.135-0.203-0.475-0.475-0.679-0.747
		c-0.204-0.204-0.476-0.475-0.679-0.747l-8.837-10.196l0.135-0.748l1.632-1.563L103.509,89.699L103.509,89.699z M132.325,97.447
		l-3.602-5.369l1.904-1.225l2.652,3.264l0.813,0.272c0.613-0.069,1.225-0.204,1.836-0.475c0.681-0.272,1.36-0.613,1.97-1.02
		c1.156-0.749,2.109-1.769,2.722-2.992c0.611-1.223,0.476-2.515-0.409-3.874c-0.681-1.019-1.632-1.698-2.72-1.767
		c-1.223-0.069-2.514,0-3.668,0.272c-0.544,0.068-1.088,0.135-1.563,0.271c-0.478,0.203-1.022,0.272-1.429,0.338
		c-1.291,0.272-2.855,0.137-4.215-0.066c-1.426-0.206-2.582-1.088-3.396-2.311c-1.291-1.973-1.498-3.874-0.681-5.913
		c0.816-1.972,2.107-3.536,3.805-4.69c0.272-0.137,0.475-0.271,0.681-0.409c0.269-0.135,0.611-0.272,0.816-0.407
		c0.679-0.41,1.495-0.681,2.242-1.02c0.747-0.343,1.564-0.544,2.176-0.749l3.126,4.758l-1.564,1.02l-2.379-2.582
		c-0.682-0.135-1.36-0.135-1.973-0.069c-0.679,0.069-1.291,0.34-1.902,0.749l-0.137,0.067l-0.066,0.068
		c-1.022,0.679-1.769,1.767-2.245,2.923c-0.406,1.291-0.27,2.446,0.476,3.602c0.544,0.882,1.36,1.426,2.175,1.564
		c0.747,0.135,1.767,0.203,2.651,0.135c0.203-0.069,0.476-0.135,0.747-0.135c0.203,0,0.544-0.069,0.747-0.138
		c0.272,0,0.679-0.135,1.02-0.135c0.271-0.069,0.679-0.137,1.019-0.204c1.563-0.272,3.127-0.343,4.69-0.206
		c1.563,0.138,2.854,0.884,3.805,2.382c1.291,1.902,1.495,3.872,0.747,5.707c-0.814,1.904-2.039,3.536-3.533,4.758
		c-0.272,0.204-0.544,0.34-0.747,0.544c-0.272,0.135-0.475,0.338-0.747,0.476c-0.203,0.203-0.409,0.34-0.613,0.407
		c-0.203,0.203-0.475,0.272-0.681,0.409c-0.744,0.473-1.492,0.816-2.241,1.089c-0.748,0.338-1.63,0.61-2.377,0.747L132.325,97.447
		L132.325,97.447z M157.473,57.959l0.41,1.495l-2.107,0.813L155.3,60.88l3.94,12.913c0.069,0.272,0.206,0.681,0.272,0.951
		c0.137,0.341,0.272,0.682,0.409,0.953c0.135,0.545,0.406,1.02,0.679,1.427c0.271,0.477,0.816,0.884,1.223,1.156
		c0.747,0.544,1.701,0.95,2.72,0.95c1.02,0.069,2.039-0.068,3.058-0.338c1.019-0.341,1.97-0.816,2.786-1.429
		c0.816-0.612,1.429-1.426,1.701-2.311c0.203-0.475,0.338-1.088,0.338-1.563c-0.066-0.544,0-1.154-0.203-1.698
		c-0.066-0.203-0.135-0.613-0.204-0.885c-0.068-0.34-0.203-0.748-0.272-1.088l-3.874-12.573l-0.747-0.409l-2.173,0.34l-0.478-1.495
		l7.41-2.242l0.476,1.495l-2.107,0.951l-0.476,0.748l3.94,12.845c0.138,0.406,0.272,0.815,0.34,1.156
		c0.137,0.34,0.204,0.748,0.341,1.157c0.135,0.679,0.135,1.426,0.135,2.173c0,0.679-0.135,1.564-0.476,2.242
		c-0.34,0.884-1.019,1.769-1.835,2.379c-0.813,0.681-1.766,1.225-2.717,1.701c-0.341,0.066-0.681,0.272-0.953,0.338
		c-0.338,0.069-0.679,0.272-0.951,0.341c-0.272,0.069-0.679,0.204-0.951,0.272c-0.272,0.135-0.747,0.135-1.088,0.203
		c-1.02,0.204-2.176,0.272-3.196,0.206c-1.019-0.137-2.039-0.409-2.921-0.953c-0.613-0.407-1.225-0.951-1.563-1.564
		c-0.341-0.61-0.816-1.357-1.088-1.97c-0.069-0.409-0.203-0.747-0.34-1.088c-0.066-0.409-0.272-0.747-0.338-1.088l-4.08-13.186
		l-0.679-0.271l-2.107,0.475l-0.407-1.495L157.473,57.959L157.473,57.959z M180.243,75.084l2.244-0.475l0.542-0.679l-1.767-19.983
		l-0.679-0.476l-2.311,0.069l-0.137-1.566l6.866-0.542l0.068,0.882l14.205,17.67l-1.563-17.261l-0.613-0.544l-2.379-0.068
		l-0.135-1.564l7.748-0.679l0.137,1.563l-2.11,0.476l-0.679,0.679l0.204,2.173l1.769,20.052l-2.448,0.204l-0.613-0.748
		l-15.224-18.961l1.632,18.486l0.679,0.544l2.31,0.137l0.138,1.495l-7.748,0.679L180.243,75.084L180.243,75.084z M205.8,73.455
		l2.311-0.068l0.475-0.544v-0.069l0.747-20.186l-0.475-0.544l-2.311-0.203l0.069-1.564l9.243,0.341l-0.069,1.563l-2.379,0.067
		l-0.611,0.409l-0.069,0.203l-0.679,20.118l0.611,0.612l2.379,0.272l-0.066,1.495l-9.245-0.34L205.8,73.455L205.8,73.455z
		 M229.588,52.588l-0.34,1.495l-2.176-0.272l-0.475,0.341l2.923,19.642l10.4-16.788l-0.34-0.544l-2.176-0.613l0.272-1.563
		l7.273,1.563l-0.34,1.498l-2.308-0.069l-1.701,2.514l-11.35,18.081l-2.514-0.544l-0.409-2.855l-3.33-21.274l-2.039-0.885
		l0.34-1.495L229.588,52.588L229.588,52.588z M241.754,78.755l-0.613,1.495l17.264,7.683l2.448-5.506l-1.767-0.747l-2.038,3.126
		l-0.747,0.338l-8.971-4.008l4.146-9.446l5.503,2.377l0.272,0.747l-0.747,2.651l1.561,0.679l3.333-7.407l-1.564-0.75l-1.428,2.313
		l-0.745,0.341l-5.506-2.448l3.803-8.564l7.751,3.399l0.271,0.816l-0.884,2.989l2.039,0.884l2.176-4.962l-16.109-7.136l-0.613,1.427
		l1.769,0.95l0.409,0.681l-8.226,18.486l-0.068,0.068l-0.748,0.272L241.754,78.755L241.754,78.755z M281.174,72.571
		c1.835,1.223,3.333,2.717,4.418,4.349c1.02,1.632,0.816,3.67-0.679,5.981c-1.019,1.632-2.311,2.448-3.739,2.583
		c-1.426,0.135-2.99,0-4.622-0.544c1.225,1.426,1.904,2.651,1.904,3.536c-0.068,0.951-0.203,1.97-0.612,2.99
		c-0.272,0.475-0.406,1.157-0.681,1.697c-0.202,0.681-0.339,1.495-0.404,2.311c0.066,0.953,0.338,1.769,0.882,2.313
		c0.613,0.544,1.225,1.154,1.97,1.563v0.066l0.138,0.069L279,100.64c-0.135-0.067-0.341-0.203-0.476-0.272
		c-0.203-0.066-0.409-0.27-0.544-0.339c-0.272-0.135-0.613-0.34-0.884-0.475c-0.272-0.204-0.611-0.341-0.816-0.476
		c-1.02-0.681-1.767-1.497-2.242-2.379c-0.407-0.953-0.407-2.38,0-4.011c0.272-0.61,0.475-1.357,0.61-1.835
		c0.206-0.544,0.341-1.223,0.409-1.629c0.407-1.36,0.407-2.583,0.069-3.333c-0.34-0.747-1.36-1.767-3.06-2.786l-1.223-0.882
		l-4.758,7.407l0.205,0.747l1.632,1.36l-0.816,1.223l-7.341-4.757l0.816-1.225l1.836,0.885l0.882-0.069v-0.069l11.012-16.991
		l-0.272-0.75l-1.632-1.221l0.816-1.291L281.174,72.571L281.174,72.571z M271.793,80.794l0.069,0.137
		c0.069,0,0.203,0.066,0.272,0.135c0.206,0.137,0.544,0.34,0.747,0.544c0.272,0.135,0.546,0.272,0.818,0.407
		c1.22,0.816,2.58,1.293,3.871,1.563c1.36,0.206,2.717-0.406,3.874-1.901l0.137-0.272c0.475-0.682,0.747-1.495,0.953-2.311
		c0.133-0.884,0.133-1.767-0.14-2.651c-0.272-0.475-0.61-1.019-1.086-1.428c-0.478-0.407-0.953-0.951-1.497-1.223
		c-0.066-0.066-0.135-0.135-0.203-0.203c-0.135-0.068-0.201-0.135-0.27-0.135l-1.973-1.291L271.793,80.794L271.793,80.794z
		 M280.63,101.253h-0.135c0.338,0.681,0.815,1.428,1.357,2.107c0.544,0.613,1.088,1.223,1.7,1.767
		c0.203,0.203,0.341,0.407,0.547,0.61c0.135,0.138,0.338,0.275,0.542,0.478c0.205,0.203,0.544,0.341,0.747,0.544
		c0.203,0.136,0.475,0.407,0.679,0.545c1.632,1.154,3.535,1.835,5.574,2.107c1.971,0.203,3.737-0.544,5.301-2.245
		c1.156-1.36,1.497-2.855,1.225-4.35c-0.272-1.495-0.816-2.99-1.497-4.484c-0.135-0.272-0.338-0.612-0.475-0.884
		c-0.135-0.34-0.34-0.679-0.475-0.951c-0.069-0.206-0.204-0.478-0.27-0.681c-0.138-0.203-0.206-0.475-0.341-0.681
		c-0.34-0.814-0.475-1.764-0.613-2.58c-0.066-0.816,0.206-1.701,0.882-2.517c0.887-1.02,2.042-1.495,3.333-1.426
		c1.291,0.137,2.514,0.544,3.465,1.291l0.069,0.135l0.135,0.069c0.547,0.406,0.951,0.953,1.223,1.563
		c0.206,0.612,0.41,1.292,0.478,1.973l-1.904,2.99l1.497,1.223l3.737-4.281c-0.476-0.545-0.816-1.292-1.36-1.905
		c-0.542-0.61-1.017-1.359-1.561-1.904c-0.206-0.203-0.41-0.475-0.615-0.61c-0.201-0.203-0.404-0.407-0.61-0.544
		c-1.564-1.36-3.465-2.176-5.573-2.446c-2.176-0.206-4.011,0.542-5.506,2.311c-0.954,1.086-1.429,2.514-1.225,3.94
		c0.137,1.36,0.478,2.855,1.022,4.011c0.203,0.407,0.475,0.882,0.745,1.292c0.272,0.407,0.478,0.951,0.681,1.426
		c0.613,1.088,1.022,2.31,1.294,3.467c0.201,1.089-0.137,2.174-0.954,3.124c-1.088,1.225-2.31,1.701-3.602,1.429
		c-1.359-0.203-2.583-0.884-3.67-1.766c-0.476-0.476-1.088-1.089-1.495-1.63c-0.407-0.544-0.747-1.088-0.951-1.632v-0.884
		l2.446-3.465l-1.701-1.428L280.63,101.253L280.63,101.253z M294.021,112.196l1.632,1.632l0.745-0.069h0.069l14.817-13.798v-0.679
		l-1.495-1.835l1.156-1.02l6.32,6.729l-1.154,1.088l-1.701-1.632l-0.747-0.137l-0.204,0.137l-14.683,13.73v0.815l1.498,1.836
		l-1.089,1.019l-6.32-6.729L294.021,112.196L294.021,112.196z M320.461,106.486l12.369,15.834l-4.484,3.536l-1.225-1.632l2.38-2.445
		l0.068-0.885l-3.398-4.416l-0.544,0.473l-15.837,12.372l-0.069,0.816l1.36,2.038l-1.222,0.95l-5.846-7.545l1.156-0.95l1.629,1.835
		l0.815,0.135l0.476-0.407l15.905-12.438l-3.331-4.349l-0.882-0.069l-2.991,1.63l-1.292-1.561l4.484-3.536L320.461,106.486
		L320.461,106.486z M315.364,138.226l-1.36,0.747l8.564,16.857l5.301-2.718l-0.882-1.7l-3.536,1.088l-0.75-0.203l-4.484-8.768
		l9.177-4.69l2.717,5.369l-0.201,0.681l-2.247,1.629l0.749,1.495l7.271-3.668l-0.745-1.564l-2.583,0.882l-0.747-0.203l-2.719-5.369
		l8.36-4.215l3.806,7.477l-0.272,0.814l-2.514,1.771l0.951,1.902l4.759-2.379l-7.952-15.7l-1.429,0.679l0.816,1.904l-0.135,0.747
		l-18.013,9.174l-0.068,0.069l-0.814-0.338L315.364,138.226L315.364,138.226z M347.307,149.51l6.525,19.029l-5.369,1.836
		l-0.681-1.904l3.061-1.564l0.406-0.813l-1.838-5.234l-0.61,0.204l-19.03,6.526l-0.34,0.748l0.613,2.379l-1.429,0.544l-3.126-9.108
		l1.428-0.475l1.017,2.242l0.681,0.407l0.613-0.204l19.098-6.592l-1.835-5.168l-0.748-0.407l-3.398,0.613l-0.679-1.904l5.368-1.901
		L347.307,149.51L347.307,149.51z M358.589,185.668l-2.582,1.766l-18.146,11.828v2.173l-1.497,0.272l-1.698-8.089l1.426-0.34
		l0.681,2.175l0.544,0.069l6.319-3.943l-1.766-8.564l-7.408-1.085l-0.478,0.406l0.341,2.449l-1.495,0.338l-1.495-7.069l1.495-0.341
		l0.882,1.973l2.992,0.544l21.409,3.058L358.589,185.668L358.589,185.668z M343.568,183.423l1.563,7.206l9.246-5.778
		L343.568,183.423L343.568,183.423z M337.248,202.862l6.457-0.473l0.135,2.242l-4.143,0.679l-0.681,0.613
		c-0.206,0.544-0.409,1.154-0.478,1.835c-0.066,0.679-0.066,1.495-0.066,2.174c0.135,1.428,0.544,2.788,1.291,3.874
		c0.816,1.088,1.97,1.632,3.602,1.497c1.223-0.068,2.31-0.612,2.923-1.563c0.613-0.953,1.155-2.107,1.495-3.264
		c0.203-0.544,0.409-1.086,0.544-1.564c0.069-0.475,0.272-0.951,0.341-1.357c0.473-1.292,1.291-2.585,2.176-3.671
		c0.882-1.156,2.173-1.767,3.668-1.904c2.31-0.135,4.146,0.613,5.437,2.311c1.36,1.7,2.107,3.601,2.244,5.641
		c0.066,0.272,0.066,0.544,0.066,0.816v0.885c0,0.816-0.135,1.63-0.203,2.446c-0.137,0.816-0.341,1.632-0.407,2.313l-5.71,0.406
		l-0.137-1.904l3.399-0.816c0.475-0.476,0.816-1.155,1.086-1.698c0.206-0.613,0.272-1.292,0.272-1.973v-0.135l-0.066-0.135
		c-0.135-1.225-0.679-2.448-1.495-3.399c-0.885-0.953-2.039-1.429-3.399-1.36c-1.02,0.137-1.835,0.475-2.38,1.157
		c-0.475,0.61-1.019,1.426-1.357,2.239c-0.071,0.272-0.206,0.547-0.274,0.75c-0.066,0.204-0.203,0.475-0.27,0.679
		c-0.138,0.272-0.206,0.681-0.34,0.953c-0.135,0.338-0.204,0.747-0.341,1.02c-0.475,1.495-1.225,2.923-2.107,4.215
		c-0.816,1.288-2.173,2.038-3.942,2.173c-2.242,0.204-4.075-0.613-5.3-2.108c-1.292-1.629-2.176-3.467-2.514-5.437
		c0-0.272,0-0.613,0-0.882c-0.069-0.272-0.138-0.613-0.138-0.885c-0.066-0.272-0.066-0.544-0.066-0.747v-0.815
		c-0.069-0.816,0-1.632,0.135-2.446c0.069-0.816,0.272-1.701,0.476-2.448L337.248,202.862L337.248,202.862z M154.212,111.651
		c0.679,0,1.291,0.341,1.63,0.816c0.409,0.544,0.613,1.155,0.613,1.699c0,0.613-0.204,1.222-0.544,1.698
		c-0.407,0.544-1.02,0.816-1.698,0.816c-0.816,0-1.429-0.27-1.767-0.748c-0.409-0.475-0.612-1.085-0.612-1.698
		c0-0.613,0.203-1.223,0.544-1.698c0.406-0.544,1.019-0.818,1.835-0.818V111.651L154.212,111.651z M177.591,100.505l-0.067,2.992
		v21.34l0.544,0.545l4.215,0.135v1.632h-13.12v-1.632l4.487-0.272l0.475-0.61v-21.003l-6.119,1.155v-1.63l8.498-2.583
		L177.591,100.505L177.591,100.505z M199.681,101.049l-0.068,2.991h-11.485v7.814c0.679-0.137,1.495-0.271,2.176-0.34
		c0.679-0.066,1.426-0.135,1.97-0.135c2.717,0,4.893,0.747,6.253,2.242c1.426,1.495,2.173,3.264,2.173,5.099v0.069v0.066
		c0,2.855-1.088,5.031-3.126,6.388c-2.039,1.429-4.418,2.176-6.933,2.176c-0.338,0-0.816,0-1.223,0
		c-0.475,0-1.022-0.137-1.495-0.203c-1.019-0.135-2.039-0.544-2.855-1.02c-0.816-0.478-1.291-1.291-1.291-2.379
		c0-0.544,0.27-1.088,0.679-1.36c0.407-0.272,1.02-0.475,1.701-0.475l0.813-0.069l1.426,3.33c0.409,0.137,0.885,0.34,1.294,0.409
		c0.406,0.135,0.882,0.203,1.223,0.203c1.904,0,3.467-0.679,4.553-1.902c1.088-1.291,1.701-2.854,1.701-4.623v-0.476
		c0-0.135-0.069-0.406-0.069-0.544c-0.272-1.698-1.086-2.924-2.448-3.465c-1.357-0.613-2.921-1.02-4.553-1.02
		c-0.135,0-0.34-0.069-0.475-0.069h-0.478h-1.764c-0.544,0-1.157,0.135-1.632,0.135v-12.844H199.681L199.681,101.049z
		 M220.208,101.049v1.632l-2.039,3.671l-10.943,21.34v0.747h-3.261l1.767-3.195l10.943-21.204h-11.963l-0.613,3.531h-1.902v-6.523
		H220.208L220.208,101.049z M223.879,127.42l0.066-0.069l0.069-0.069c2.651-1.223,4.962-2.649,6.729-4.143
		c1.835-1.498,3.398-3.74,4.623-6.46c-1.088,0.547-2.244,0.953-3.195,1.088c-1.019,0.206-1.973,0.34-2.788,0.34
		c-2.583,0-4.553-0.816-5.844-2.446c-1.291-1.632-1.973-3.604-1.973-5.643v-0.272v-0.271c0.137-2.174,1.02-4.281,2.517-6.048
		c1.564-1.769,3.874-2.72,6.866-2.72c2.786,0,4.962,0.951,6.454,2.855c1.498,1.904,2.311,4.283,2.311,7.001
		c0,4.35-1.495,8.226-4.484,11.487c-2.99,3.331-6.457,5.71-10.4,7.07L223.879,127.42L223.879,127.42z M235.842,114.778
		c0-0.272,0.135-0.679,0.135-1.02c0.069-0.34,0.206-0.747,0.206-1.088c0-0.409,0.066-0.816,0.066-1.156
		c0-0.339,0.067-0.748,0.067-1.017v-0.681c0-0.203-0.067-0.475-0.067-0.679c0-0.475-0.137-1.02-0.137-1.429
		c-0.066-0.407-0.27-0.884-0.407-1.291c-0.339-1.157-1.019-2.108-1.973-2.786c-0.948-0.681-2.105-1.02-3.195-1.02h-0.27h-0.34
		c-0.407,0-0.816,0.135-1.223,0.272c-0.406,0.135-0.816,0.475-1.154,0.747c-0.816,0.679-1.426,1.564-1.838,2.515
		c-0.407,0.95-0.679,2.041-0.679,3.126v0.137v0.135c0,1.632,0.475,3.195,1.428,4.555c0.951,1.357,2.38,2.036,4.282,2.036
		c0.681,0,1.563-0.135,2.379-0.272c0.816-0.201,1.767-0.61,2.651-1.017L235.842,114.778L235.842,114.778z M253.714,111.651
		c0.681,0,1.294,0.341,1.632,0.816c0.409,0.544,0.61,1.155,0.61,1.699c0,0.613-0.201,1.222-0.541,1.698
		c-0.407,0.544-1.02,0.816-1.701,0.816c-0.814,0-1.423-0.27-1.767-0.748c-0.407-0.475-0.611-1.085-0.611-1.698
		c0-0.613,0.203-1.223,0.545-1.698c0.409-0.544,1.019-0.818,1.832-0.818V111.651z"/>
	<path style="&st0;" d="M219.617,192.995c-0.326-1.495-0.522-2.73-0.845-4.547c1.169-0.13,2.208-0.194,3.247-0.326
		c-0.063-0.713-0.13-1.492-0.193-2.274c-0.78,0.196-2.534,0.39-3.443,0.715c-0.326-1.625-0.52-2.796-0.586-4.744
		c-0.52,0.196-2.012,0.26-2.47,0.454c0.521,1.691,0.715,3.055,0.975,4.614c-0.975,0.132-1.948,0.326-3.443,0.456l0.324,2.144
		c1.171-0.194,2.924-0.649,3.509-0.649c0.26,1.818,0.52,3.053,0.65,4.484c-1.039,0.324-2.338,0.389-3.379,0.519l0.522,2.404
		c1.752-0.389,2.272-0.52,3.183-0.845c0,1.495,0.326,3.575,0.13,4.744c1.039,0,2.144-0.326,2.86-0.456
		c-0.26-1.493-0.652-3.183-0.846-4.548c1.428-0.196,2.34-0.26,3.249-0.456l-0.389-2.404
		C221.502,192.605,221.242,192.542,219.617,192.995z"/>
	<path style="&st0;" d="M170.948,195.334c0.323-0.715,0.13-1.169-0.324-1.818c-0.586-0.13-0.781-0.456-1.368,0
		c-0.323,0.649-0.13,1.363,0.13,1.948C170.102,195.854,170.818,195.92,170.948,195.334z"/>
	<path style="&st0;" d="M197.697,335.941c1.624,0.779,2.534-1.561,1.235-2.144C197.374,333.016,196.266,335.096,197.697,335.941z"/>
	<path style="&st0;" d="M177.325,291.514c1.428,0.65,2.337-1.559,0.715-2.144C176.739,288.915,175.634,290.799,177.325,291.514z"/>
	<path style="&st0;" d="M196.802,289.497c1.302,0.324,1.885-1.689,0.586-2.078C195.892,286.833,195.504,289.303,196.802,289.497z"/>
	<path style="&st0;" d="M113.116,145.756c0,39.831-0.52,80.184-0.26,119.819c0.13,23.85,9.162,44.511,22.027,59.976
		c35.934,42.691,106.371,42.041,140.745-3.379c12.281-17.152,18.647-33.332,18.647-56.857c0-5.782,0.067-14.682,0.067-21.896
		v-97.599L113.116,145.756L113.116,145.756z M273.126,319.78c-32.377,43.982-101.12,44.744-135.859,3.227
		c-13.291-15.498-20.473-35.067-20.297-55.53c56.369,0.021,112.735-0.042,169.101-0.042c-1.281,3.102-3.974,6.167-6.729,8.145
		l-4.369,3.36c-4.053,1.705-7.988,3.71-11.444,6.047l-5.236,3.548c-1.674,0.809-3.321,1.684-5.011,2.436l-2.291,1.017l0.034,0.059
		c-2.595,0.737-5.317,1.196-7.976,1.617l-2.703,0.431l0.527,1.377c-4.766,0.449-9.699,0.319-14.389,1.191
		c-1.957,0.365-3.822,0.975-5.685,1.671c-1.617,0.598-3.225,1.257-4.874,1.755c-0.218,0.066-0.438,0.127-0.659,0.188
		c-1.754,0.476-3.557,0.763-5.339,1.155c-0.037-0.921-0.372-1.85-0.951-2.62l-0.056-0.078c0.086-0.206,0.16-0.424,0.226-0.651
		l0.083-0.296v-12.791c0.296-1.02,0.247-2.137-0.25-3.279l-0.211-0.485c0.711-1.647,0.664-3.585-0.498-5.151
		c-2.259-3.043-5.785-3.783-9.392-3.558c-3.457,0.218-6.907,0.513-10.355,0.848c-7.437,0.723-14.83,1.534-22.286,2.08
		c-3.08,0.223-4.788,2.201-4.788,5.2c0,17.354,0.193,34.705,0.26,52.059l0.01,2.207h5.484l2.453,0.527l0.014,0.012
		c0.228,0.186,1.113,0.802,1.25,1.007l1.7,2.553l0.127,0.292c0.297,0.679,0.701,1.254,1.198,1.7l1.02,0.672
		c0.547,0.25,1.159,0.387,1.828,0.387c1.617,0,3.251-0.152,4.864-0.331l0.003,0.069l14.276-1.62l-0.015-0.179
		c1.828-0.186,3.711-0.238,5.499-0.666l0.281-0.067h1.02c1.607,0,5.129-1.053,6.356-2.073c1.497-1.243,2.303-3.137,1.561-5.045
		l-0.392-1.009c0.015-0.128,0.022-0.26,0.022-0.397c0-1.544-0.076-3.164-0.037-4.722l3.016-0.603l6.401-0.857
		c5.739-0.767,10.137-3.904,14.487-7.482c1-0.823,2.027-1.698,3.082-2.565c0.387,3.394,1.588,6.729,3.389,9.607l0.304,0.486
		l0.5,0.279c0.412,0.228,0.821,0.372,1.22,0.441l1.482-0.12c0.072-0.027,0.14-0.054,0.211-0.085l2.377-0.963
		c9.769-3.962,19.226-9.12,28.488-14.141c2.403-1.343,4.788-2.918,7.181-4.323C279.936,310.421,276.873,315.058,273.126,319.78
		L273.126,319.78z M225.983,240.819l-5.197-6.109c1.232-0.387,2.989-0.973,4.288-1.689l5.717,5.653
		c0.328,1.951,1.235,4.29,2.014,5.59c-2.534,4.222-4.612,10.395-5.392,14.422c-1.884,0.456-2.729,2.017-1.626,5.656
		c-1.429,0-4.416-0.067-5.846-0.067C221.176,257.194,230.338,248.811,225.983,240.819L225.983,240.819z M196.809,234.71
		c0.129,1.367-2.664,1.691-4.354,2.014c-2.598,0.845-5.068,1.754-7.734,3.251c0.326-2.6,1.82-3.835,3.575-5.07
		c0.909-0.453,2.014-0.975,2.989-1.885c1.299-3.315,1.299-9.615,1.365-14.748c1.429,0.13,5.067,0.39,6.692,0.453
		c0.52,4.418-2.014,7.993-2.533,11.762C196.42,233.411,196.743,233.737,196.809,234.71L196.809,234.71z M159.186,240.235
		c-1.039,0.194-2.404,0.324-4.158,0.453c-0.066-2.404,0.779-4.418,1.559-5.979c2.47-2.534,5.653-5.391,7.926-7.537
		c0.846-0.909,1.885-2.012,3.12-2.857l14.232-0.975l0.063-0.456c-0.908-0.586-2.597-0.454-3.638-0.454l0.196-1.624
		c3.832-1.755,8.187-2.211,12.281-2.47c-0.066,3.508,0.13,8.057-0.456,11.502c-5.198,0.973-14.815-2.08-20.858-1.951l-10.267,8.189
		C158.473,237.246,158.926,238.934,159.186,240.235L159.186,240.235z M166.137,221.782c-3.508,1.168-7.535,3.183-10.72,5.846
		c-0.52,1.951,0.26,3.379,0.585,5.33c-1.301,0.13-3.768,0.063-5.329,0.13h-0.13c0.648-2.407,0.909-5.2,1.884-7.214
		c3.575-2.794,8.709-5.716,13.32-7.733c3.965-0.13,7.734,0,11.373,0.585c-0.26,1.105-0.456,2.21-0.585,3.573
		C173.092,222.041,169.776,221.782,166.137,221.782L166.137,221.782z M166.464,223.34l-9.033,8.317
		c-0.456-1.233-0.324-2.014-0.324-2.794c0-0.845,0.909-1.299,1.622-1.755C161.136,225.548,163.67,224.315,166.464,223.34
		L166.464,223.34z M178.875,199.233c1.428-3.639,2.014-7.537-2.21-10.137c-0.973-0.454-2.014-0.649-3.119-0.779
		c-0.13-1.169-0.13-2.47-0.324-3.573c4.548-0.196,11.176,2.404,14.879,5.653c2.274,1.818,4.29,4.158,5.912,6.951
		c-0.453,0.064-1.492,0.324-2.597,0.715c-1.885-3.119-5.72-7.667-9.682-8.772l0.649,1.622c3.247,2.017,5.134,4.031,7.082,7.734
		c-3.639,1.495-7.538,3.639-10.98,6.692C178.808,203.455,178.03,201.507,178.875,199.233L178.875,199.233z M166.204,182.859
		c1.168,0.258,2.533,0.909,3.183,2.208c0,0,0.975-0.13,2.08-0.194c0.26,1.299,0.26,2.144,0.389,3.38
		c-1.624,0.194-4.677,0.779-5.979,1.882l-0.972-2.014c-1.368-2.208-0.652-1.752-1.755-2.987c0.973-0.066,2.467,0.779,3.702,1.559
		C166.593,185.261,166.334,184.092,166.204,182.859L166.204,182.859z M171.987,190.135l1.495,11.828
		c-0.975,0.194-2.924,0.52-4.288,0.843l-0.259-0.259l-2.6-10.721C167.439,190.787,170.428,190.135,171.987,190.135L171.987,190.135z
		 M176.924,203.781c0.392,2.666-0.909,4.548-3.443,4.548c-2.534,0-3.639-1.689-4.029-3.702
		C171.207,204.17,174.91,203.392,176.924,203.781L176.924,203.781z M176.99,202.027l-2.014-0.13l-1.235-11.5
		c2.208,0.193,3.899,1.299,4.418,2.793C179.198,195.138,176.731,199.819,176.99,202.027L176.99,202.027z M198.953,205.469
		l-5.003,5.004l-3.249,2.404c-3.249-0.128-5.847,0.262-9.422,0.911c3.249-5.589,8.967-10.137,15.661-12.931
		C196.68,203.002,197.588,203.975,198.953,205.469L198.953,205.469z M190.375,158.101c1.301,0.193,2.08,1.624,2.08,2.926
		c-0.13,0.909-0.519,1.754-1.235,2.404c0.196,2.401,0.715,8.902,0.975,12.734l9.811,3.965c-0.909,1.625-1.235,3.183-1.429,4.808
		l-12.737-5.589c0-5.394,0.196-10.784,0.389-16.05C185.763,161.479,186.932,157.711,190.375,158.101L190.375,158.101z
		 M204.476,179.154c2.73-3.508,3.12-8.902,0.715-12.475c2.274-0.651,5.197-0.522,7.535,0.258c0.392,2.99,0.262,6.565-2.078,10.007
		l1.432,2.147c-1.365,0.257-3.705,0.583-5.526,0.842c-0.127,1.689,0.197,4.288,0.456,5.783c-0.973,0.26-3.639,0.911-5.004,0.911
		C202.136,184.092,202.722,181.429,204.476,179.154L204.476,179.154z M201.551,169.473c0.066-0.909,0.911-2.276,1.951-2.144
		c1.885,0.909,2.274,8.513,0.326,9.745C201.942,175.516,201.293,171.811,201.551,169.473L201.551,169.473z M261.526,225.94
		c-1.559,0.843-3.443-1.365-5.002-0.845c1.037,1.235,1.493,2.274,1.752,4.029c-1.103-0.845-2.531-1.365-4.286-1.429
		c0.257,1.233,1.036,2.274,0.453,4.548l-0.066,0.13c-0.842-1.561-1.818-2.144-2.664-3.119c-2.533-2.73-1.624-7.018-0.193-11.046
		c0-1.691-0.845-3.316-2.73-3.316c-4.874,0.782-9.162,4.874-14.036,4.484c-1.689-3.508-2.667-9.03-7.342-11.11
		c6.497,0.779,10.721,4.288,12.929,7.667c4.225-3.639,9.294-7.991,15.335-6.302c2.146,0.715,3.381,2.274,3.837,4.612
		C259.902,217.947,257.63,222.69,261.526,225.94L261.526,225.94z M227.804,210.865c2.208,2.078,3.443,5.328,4.158,8.577
		c-1.171-0.067-4.614,0.063-6.172-0.067c-0.586-3.376-2.014-7.081-4.288-10.656C223.45,208.005,226.243,209.304,227.804,210.865
		L227.804,210.865z M212.337,214.891c-2.141,3.835-3.183,7.8-3.442,12.933l-4.225-4.224c-0.714,1.299-1.689,3.445-2.664,4.874
		c-0.456-0.845-1.429-2.21-2.144-3.313c0.975-2.862,1.235-4.421,0.845-8.123c1.365-1.171,5.977-5.07,9.941-7.018
		c3.313-1.169,5.524-2.274,6.175-3.702c0.454,0.453,1.493,1.169,2.272,1.752c-1.363,2.404-6.237,5.46-10.461,6.369
		C209.351,214.957,211.038,214.957,212.337,214.891L212.337,214.891z M195.574,211.384c3.964-4.547,9.162-8.316,16.246-11.046
		c0.908,1.689,2.401,3.313,3.636,4.807c-0.586,1.235-2.144,2.341-5.261,3.183c-3.769,1.951-8.383,6.173-9.878,6.954L195.574,211.384
		L195.574,211.384z M199.149,217.101c-1.887-0.13-4.874-0.389-6.695-0.52c-0.13-0.909-0.26-1.429-0.326-2.6
		c0.716-0.584,1.302-1.039,2.017-1.429l5.067,3.832C199.279,216.582,199.213,216.908,199.149,217.101L199.149,217.101z
		 M214.807,214.178c1.948-0.909,3.575-2.08,4.94-3.445c1.818,1.691,3.443,5.782,3.703,8.579c-3.183-0.13-6.758-0.649-10.137-1.561
		C213.445,216.972,214.158,215.413,214.807,214.178L214.807,214.178z M220.203,206.251c-6.498-3.313-11.438-16.117-11.698-24.953
		l14.619-2.207C225.138,184.418,226.116,201.247,220.203,206.251L220.203,206.251z M209.22,194.555
		c-1.365,0.454-4.159,1.559-6.109,2.014c-0.585-2.274-1.105-5.589-0.975-8.123c1.951-0.326,3.445-0.65,5.266-1.105
		C207.789,189.811,208.505,192.282,209.22,194.555L209.22,194.555z M210,196.31c0.326,0.845,0.781,1.492,1.298,2.468
		c-4.028,1.365-7.601,3.639-10.98,5.589c-1.169-1.172-2.666-3.379-0.909-4.225L210,196.31L210,196.31z M190.701,216.778
		c-4.029,0.324-7.993,0.779-11.892,2.274c0-0.975,0.586-1.755,1.105-2.667c3.119-1.495,7.278-2.012,10.397-1.752
		C190.505,215.477,190.634,215.999,190.701,216.778L190.701,216.778z M179.72,212.749c-0.263-1.886-0.263-3.899-0.456-5.719
		c3.768-3.055,10.592-7.211,16.31-8.253c0.456,0,0.586,0.326,1.038,0.326C188.296,202.675,183.229,207.679,179.72,212.749
		L179.72,212.749z M199.083,227.434c1.169,1.363,1.689,2.271,2.468,4.352c1.171-1.038,2.666-3.962,3.511-5.263l5.264,5.393
		c0.26-3.508,1.039-9.811,2.274-12.281c3.702,0.912,7.667,1.495,11.436,1.885c0.52,2.146-0.393,5.719,1.558,5.719
		c1.951,0.064,0.975-4.288,0.845-5.719c1.755,0.262,4.158,0.196,6.109,0.196c0.456,2.014,0.128,5.33,1.818,5.264
		c1.755-0.064,0.78-3.835,0.715-5.46c1.755-0.26,3.506-0.26,5.521-0.909c-3.246,6.628-1.948,15.467,2.666,19.949l-5.263,18.194
		c-1.818,0.585-2.144,2.273-0.976,5.46c-1.168,0.063-3.962,0.063-5.327-0.003c0.26-4.416,2.794-7.015,4.352-10.914
		c1.951-4.873,2.147-9.877,0.133-12.411c-4.355-3.445-7.864-7.084-12.411-10.982c-0.52-0.13-1.042-0.583-1.561-0.454
		c-0.52,0.13,0.781,1.884,1.428,2.141c-8.316,3.512-16.503,2.47-25.21,1.431C198.367,231.007,198.367,229.383,199.083,227.434
		L199.083,227.434z M233.004,240.625c1.363,1.103,3.183,2.534,2.987,5.458c-0.26,6.954-5.653,11.502-6.239,18.13
		c-0.909-0.003-0.973,0.063-2.404-0.067c-1.232-2.923-0.586-4.288,1.365-4.613c1.235-5.264,2.989-10.591,5.846-15.335
		C234.041,243.222,233.457,242.313,233.004,240.625L233.004,240.625z M219.355,322.367c2.403-1.168,4.42-2.6,5.589-3.445
		c0.064-0.453-0.193-0.583-0.649-0.583c-3.639,1.948-5.913,3.572-9.358,4.484l-5.846,1.169c-0.326-0.066-0.912,0.13-1.235-0.586
		c1.428-0.779,5.912-2.078,8.25-3.249c2.47-1.105,4.097-2.208,6.368-3.768c0.197-0.389,0.067-0.973-0.779-0.779
		c-2.078,1.298-3.769,2.014-5.979,3.12c-3.246,1.495-5.65,2.403-8.77,3.312c-0.909,0.196-1.885-0.064-2.08-0.519
		c0.326-0.193-0.13-0.39,0.975-0.909c1.365-0.715,5.134-1.951,7.734-3.315c2.531-1.298,4.548-2.403,6.628-3.962
		c0.194-0.52-0.066-0.845-0.781-0.585c-5.068,3.056-8.966,4.68-14.621,6.758c-0.777,0.26-1.884,0.456-2.404,0.197v-1.365
		l7.537-3.965c2.274-1.103,4.029-2.21,6.369-3.963l5.785-5.07v-0.845c-4.031,0.652-8.385,1.887-12.997,0v-0.583
		c2.207-0.586,4.611-0.909,6.758-1.495c3.637-0.975,7.018-2.667,11.044-3.573c4.418-0.651,10.007-0.716,14.881-1.237
		c1.299,2.536,2.078,5.589,2.274,9.877C235.405,310.995,229.556,321.002,219.355,322.367L219.355,322.367z M244.307,309.177
		c0.456,3.703,0.456,9.355-0.324,12.995c-0.262,1.169-0.911,1.105-1.495,0.781c-1.951-3.119-3.119-6.824-3.185-10.463
		C240.409,311.387,242.227,309.956,244.307,309.177L244.307,309.177z M208.051,330.748c0,1.627-4.42,2.6-5.46,2.536l-0.13-11.307
		c0.586,0.13,0.843-0.066,1.169,0.909c0.196,0.519,1.365,0.715,2.406,1.169c0.584,0.845,1.365,0.911,2.014,1.041
		C207.986,326.266,208.051,329.449,208.051,330.748L208.051,330.748z M208.571,332.958c0.456,1.172-0.392,2.144-0.911,2.534
		c-0.779,0.716-3.899,1.561-4.938,1.561l-0.066-1.688C204.736,335.102,206.88,334.323,208.571,332.958L208.571,332.958z
		 M193.56,338.221l-9.748,1.105c-0.064-2.404-0.975-5.589-3.182-7.081c-1.495-1.105-3.965-1.755-5.849-1.561l-0.258-35.024
		c5.198,0.064,8.9-2.47,8.64-8.709l8.707-0.973c-0.064,4.288,3.185,8.057,7.863,8.057l0.975,34.374
		C194.988,330.035,193.17,333.154,193.56,338.221L193.56,338.221z M182.06,339.456c-1.691,0.196-3.575,0.39-5.266,0.39
		c-0.845,0-1.559-0.39-2.014-1.429v-6.238c1.884,0,3.445,0.519,4.81,1.558C181.019,335.038,182.06,336.726,182.06,339.456
		L182.06,339.456z M174.457,289.811c-0.066-1.168,0.194-2.144,1.493-2.274c1.301-0.129,3.575-0.259,5.589-0.389
		c-0.063,4.677-1.884,6.954-7.082,6.954C174.457,292.735,174.523,291.502,174.457,289.811L174.457,289.811z M193.623,285.913
		c1.755-0.26,4.095-0.324,6.043-0.52l0.002,6.824l-1.495-0.067C195.574,291.696,193.623,288.709,193.623,285.913L193.623,285.913z
		 M200.578,330.361c0.194,0.064,0.324,6.692,0.324,6.822c-1.622,0.39-3.769,0.454-5.523,0.649
		C195.248,334.323,195.898,331.659,200.578,330.361L200.578,330.361z M200.644,283.249c-8.515,0.975-17.025,1.948-25.538,2.926
		c-1.235,0.194-1.884,1.039-2.21,2.338l-0.13,46.721c-0.39-0.586-0.975-0.912-1.689-1.497l0.13-46.785
		c0-1.362,0.26-2.271,1.169-2.337c4.159-0.389,9.875-0.975,14.619-1.689c4.874-0.715,10.786-1.235,15.79-1.95
		c0.39-0.456,0.262-0.909-0.26-1.365l-31.319,3.639c-0.845,0.39-1.625,1.105-1.625,1.431c0,0.779-0.13,2.987-0.13,3.639
		c0,15.528-0.066,30.15-0.196,44.768l-1.818-0.39c-0.26-14.618-0.13-31.644-0.13-47.434c0-0.909-0.13-2.468,0.13-3.053
		c0.26-0.586,1.818-0.586,1.818-0.586c10.853-1.105,22.029-2.664,32.945-4.029c0.52-0.193,0.454-0.843-0.196-1.235
		c-10.721,1.169-23.457,2.144-33.855,3.379c-0.387,0-1.948,0.263-2.467,0.975c-0.52,0.716-0.456,2.21-0.456,2.73
		c0,16.177,0.585,32.88,0.196,49.253h-1.495c-0.066-16.699-0.26-37.753-0.26-52.048c0-1.495,0.52-2.857,2.727-2.987
		c13.453-1.172,21.77-1.562,32.62-2.926c3.186,0,5.979,0.327,7.474,2.667c1.169,1.365,0.456,3.962-1.625,4.871
		C203.567,282.86,202.202,283.056,200.644,283.249L200.644,283.249z M201.551,285.004c1.497-0.26,4.095-0.649,5.396-2.404
		c0.649,1.495-0.066,2.73-1.301,3.639c-1.039,0.713-3.119,1.428-4.158,1.495C201.487,287.214,201.293,285.067,201.551,285.004
		L201.551,285.004z M201.551,289.552c2.536-0.39,3.901-0.843,5.46-2.144v10.071c-0.583,2.08-2.858,2.6-5.46,3.315V289.552
		L201.551,289.552z M201.747,302.482c1.951-0.39,3.769-0.908,5.46-2.337c0.583,0.78,0.715,1.884,0,2.6
		c-1.625,1.169-2.86,1.622-5.33,1.948C201.747,304.174,201.681,303.068,201.747,302.482L201.747,302.482z M206.751,305.019l0.13,8.9
		l-4.744,2.666l-0.26-10.137C203.437,306.384,205.582,305.731,206.751,305.019L206.751,305.019z M208.995,306.836
		c2.492,0.88,4.783,1,7.104,0.804l-1.259,1.103c-1.828,1.6-3.668,2.48-5.763,3.577L208.995,306.836L208.995,306.836z
		 M283.033,301.963c-0.906,0.781-1.233,0.975-2.468,1.431c-3.636,1.492-5.586,1.362-9.419,2.597
		c-0.782,0.393-1.821,0.716-2.017,1.301c2.667,0,5.393-0.456,7.799-1.041c-1.171,0.715-2.016,1.431-2.796,1.82
		c-8.772,5.134-18.974,10.268-28.265,14.036c1.885-6.565,0.714-17.934-2.47-26.251c2.859-0.456,5.846-0.975,8.51-1.755
		c2.798,2.598,4.031,8.707,4.225,12.149c1.301-1.625,1.365-2.727,1.497-5.134c-0.392-2.271-1.884-5.523-3.445-8.12
		c2.34-1.042,5.589-2.86,8.057-3.768c2.536-0.975,6.106-1.691,7.537-2.404c-0.909-0.715-3.509-0.196-5.001,0
		c6.04-4.095,14.036-7.278,21.181-9.488c-0.326-1.235-4.029,0-5.261,0c3.376-2.6,6.3-6.302,7.731-9.745
		c0.843,0.13,1.622,0.064,2.404,0.064C290.833,279.028,286.998,294.102,283.033,301.963L283.033,301.963z M291.093,264.276h-52.242
		c-1.235-3.053-1.042-4.092,0.453-4.743l6.173-19.819c-5.913-4.482-6.303-17.153-0.258-21.704c1.948-1.495,4.938-1.947,4.548,0.846
		c-1.105,3.575-2.144,7.278,0.127,10.723c1.432,1.754,3.448,3.639,4.227,6.498c1.625-0.845,2.078-3.964,2.207-5.979
		c1.755,0.26,2.926,2.144,4.158,3.186c0.456-1.757-0.585-4.486-0.973-6.045c1.363,0.586,3.767,0.52,4.808-0.715
		c-1.561-0.843-3.186-2.664-3.313-4.808c0.194-3.575,1.556-8.186-1.171-11.826c-2.014-2.796-5.979-2.73-9.229-2.274
		c-3.898,1.103-7.341,3.313-10.134,5.653c-3.901-5.393-11.892-7.667-18.39-6.432c5.848-6.305,5.199-20.209,2.403-29.696
		c-1.884,0.259-6.172,0.908-10.913,1.494c-0.067,0-0.782-1.105-1.238-1.82c1.755-2.923,2.733-6.626,1.951-10.721
		c-3.247-1.754-7.604-1.625-11.436-0.456c-1.625,0.456-2.99,3.12-2.99,5.004c-0.194,2.21,1.105,5.913,3.053,7.537l-0.26,0.585
		l-8.903-3.575c-0.323-3.702-0.715-7.407-1.102-11.11c0.024-0.093,0.454-1.038,1.362-0.389c0.456,1.365,1.302,3.705,1.82,4.937
		c0.649,0.39,1.169,0.26,1.691-0.194l0.972-5.526h26.641c3.509-0.779,6.435-1.752,9.944-2.793c0.456-0.52,0.26-0.909-0.13-1.365
		l-10.201-2.858l-26.448,0.843l-1.754-5.261c-0.519-0.456-1.172-0.586-1.821,0l-1.105,5.001c-0.13,0.649-0.649,0.649-1.428,0.52
		c-1.299-1.299-4.808-0.843-6.239,1.365c-0.843-0.456-2.47-0.454-3.379,0.39c-0.78,1.105-0.843,2.08-0.194,3.379
		c1.103,1.169,2.014,1.169,3.379,0.845l0.714,1.039l-0.52,16.246c4.418,1.884,10.007,4.484,14.362,6.433
		c-0.326,3.442,0.326,7.67,1.039,10.786c-0.714,0.389-1.431,0.649-2.078,0.649c-0.326,0-1.887-1.103-3.119-1.169
		c-5.459-8.706-15.467-14.426-24.693-14.1c-0.39,0.194-0.845,0.13-1.495,0.39c-2.144-1.301-3.508-1.951-5.393-1.951
		c0.13,0.78,0.26,1.884,0.52,2.924c-0.716-0.39-2.078-0.714-4.029,0c2.6,3.898,4.159,9.814,5.264,14.687
		c0.389,2.012,0.975,5.001,1.948,7.408c0.715,1.688,1.821,3.442,3.965,3.962c1.624,0.453,4.484-0.39,5.587-2.144
		c0.197,2.21,0.197,5.004,0.652,7.668l-0.585,1.039c-3.769-0.39-8.38-0.52-12.282-0.716c-4.743,2.407-10.331,5.33-14.685,8.513
		c-1.105,3.705-1.818,6.888-2.467,10.397c1.755-0.063,4.937-0.193,6.692-0.193c-1.625,1.947-1.688,5.067-1.885,7.797l8.124-0.779
		c-0.326-1.365-0.911-2.926-0.715-4.42c3.119-2.857,6.692-5.524,9.162-7.734c4.289-0.127,13.776,2.277,19.623,2.277
		c-0.194,0.583-0.975,1.039-1.624,1.492c-2.988,1.95-5.004,3.249-4.678,9.035c2.794-1.495,5.393-2.6,8.187-3.639
		c3.055-1.038,7.799-0.975,7.147-4.028c6.565,0.649,12.931,1.688,20.015,0.453c2.794,2.99,7.211,6.433,6.888,10.593
		c-0.263,5.261-5.849,11.566-7.344,18.324l-101.108-0.003l0.196-115.205l173.948,0.063V264.276L291.093,264.276z M193.623,158.294
		l1.105-0.193l0.909-5.457l1.431,5.587l27.812-0.909l7.795,2.144l-7.668,1.948l-27.745,0.133l-0.779,5.716l-1.561-5.264h-0.972
		C194.276,160.764,194.405,159.922,193.623,158.294L193.623,158.294z M185.371,161.351c-0.387,0.456-1.103,0.585-1.623,0.063
		c-0.586-0.39-0.456-1.039-0.13-1.558c0.389-0.39,0.909-0.649,1.559-0.194C185.63,160.115,185.63,160.764,185.371,161.351z"/>
	<path style="&st0;" d="M191.055,307.112c0.066-1.299-0.324-2.6-1.039-3.312c-2.73-1.302-6.109,0.193-5.264,3.702
		c-1.495,0.26-4.288,1.235-4.095,3.769c0.196,2.533,1.691,3.249,4.614,3.12c0.13,2.143,1.495,4.548,3.639,4.224
		c2.144-0.326,2.6-2.729,2.6-5.263c1.688,0,3.702-0.912,3.442-3.053C194.888,307.761,193.266,307.242,191.055,307.112
		L191.055,307.112z M189.95,312.309c0.066,1.887,0.649,4.291-1.169,4.551c-2.6,0.26-1.429-2.926-2.144-3.965
		c-1.105-0.456-3.705,0.715-4.288-1.299c0.26-2.6,2.534-2.34,4.159-2.664c-0.196-1.884-1.235-3.445,1.495-4.095
		c2.207,0.197,1.365,2.08,1.559,3.443c1.431,0.066,3.898-0.26,3.965,1.887C193.588,312.309,191.511,311.66,189.95,312.309z"/>
	<path style="&st0;" d="M178.371,335.225c-1.82-0.586-2.6,1.818-1.039,2.597C179.02,338.407,179.929,335.938,178.371,335.225z"/>
	<path style="&st0;" d="M515.922,252.599c2.592-3.124,5.067-4.695,7.42-4.695c1.211,0,2.25,0.309,3.12,0.912
		c0.872,0.59,1.565,1.598,2.078,2.985c0.355,0.965,0.529,2.44,0.529,4.448v9.453c0,1.397,0.115,2.355,0.346,2.852
		c0.172,0.402,0.464,0.715,0.86,0.943c0.385,0.223,1.12,0.336,2.186,0.336v0.872h-10.958v-0.872h0.463
		c1.029,0,1.754-0.16,2.164-0.476c0.407-0.308,0.699-0.779,0.853-1.387c0.071-0.235,0.101-0.995,0.101-2.269v-9.065
		c0-2.013-0.264-3.474-0.784-4.386c-0.529-0.914-1.412-1.37-2.649-1.37c-1.914,0-3.827,1.046-5.726,3.146v11.674
		c0,1.497,0.083,2.421,0.262,2.772c0.223,0.467,0.537,0.823,0.939,1.038c0.392,0.208,1.193,0.322,2.394,0.322v0.872h-10.948v-0.872
		h0.488c1.122,0,1.894-0.29,2.287-0.851c0.389-0.578,0.582-1.671,0.582-3.281v-8.221c0-2.661-0.053-4.279-0.178-4.855
		c-0.115-0.583-0.306-0.985-0.552-1.185c-0.245-0.215-0.588-0.316-1.01-0.316c-0.446,0-0.99,0.12-1.617,0.367l-0.36-0.877
		l6.675-2.71h1.039V252.599L515.922,252.599z M540.654,241.285v7.271h5.173v1.688h-5.173v14.372c0,1.436,0.206,2.401,0.62,2.896
		c0.402,0.504,0.929,0.745,1.573,0.745c0.537,0,1.047-0.154,1.551-0.495c0.497-0.324,0.887-0.811,1.164-1.456h0.938
		c-0.566,1.576-1.36,2.769-2.394,3.561c-1.029,0.804-2.092,1.208-3.188,1.208c-0.745,0-1.473-0.215-2.178-0.625
		c-0.715-0.417-1.23-1-1.571-1.77c-0.338-0.759-0.509-1.941-0.509-3.536v-14.901h-3.499v-0.784c0.884-0.356,1.793-0.965,2.715-1.804
		c0.926-0.853,1.757-1.857,2.475-3.012c0.369-0.61,0.892-1.737,1.551-3.359H540.654L540.654,241.285z M567.388,248.556h-7.543v0.904
		c1.453,0.034,2.402,0.27,2.864,0.706c0.459,0.448,0.694,1.293,0.694,2.553v12.541c-1.214,1.227-2.252,2.058-3.137,2.502
		c-0.877,0.421-1.659,0.642-2.354,0.642c-1.012,0-1.88-0.314-2.595-0.965c-0.718-0.642-1.083-2.005-1.083-4.063v-14.82h-7.756v0.904
		c1.156-0.02,1.966,0.081,2.399,0.296c0.451,0.221,0.789,0.522,1.009,0.931c0.226,0.402,0.341,1.127,0.341,2.173v9.885
		c0,2.066,0.169,3.654,0.522,4.788c0.361,1.132,0.993,2.051,1.902,2.769c0.919,0.717,1.987,1.078,3.237,1.078
		c1.103,0,2.162-0.267,3.156-0.804c0.999-0.53,2.451-1.819,4.359-3.882v4.685h1.083l6.624-2.735l-0.341-0.853
		c-0.627,0.29-1.186,0.417-1.686,0.417c-0.363,0-0.664-0.108-0.936-0.336c-0.265-0.221-0.451-0.622-0.578-1.193
		c-0.125-0.576-0.181-2.147-0.181-4.707V248.556L567.388,248.556z M564.172,270.315h1.252c-0.414,0.846-0.63,1.633-0.63,2.395
		c0,1.355,0.422,2.414,1.255,3.193c1.115,1.012,2.416,1.514,3.918,1.514c0.919,0,1.886-0.179,2.881-0.549l0.505,0.772
		c-1.421,0.797-2.484,1.301-3.188,1.514c-0.708,0.216-1.504,0.324-2.394,0.324c-1.754,0-3.114-0.431-4.088-1.301
		c-0.968-0.865-1.448-1.926-1.448-3.154c0-0.846,0.176-1.703,0.522-2.568C563.104,271.597,563.575,270.879,564.172,270.315
		L564.172,270.315z M597.654,267.512c-2.271,1.757-3.695,2.771-4.283,3.038c-0.867,0.409-1.789,0.611-2.771,0.611
		c-1.536,0-2.801-0.523-3.786-1.576c-0.993-1.039-1.49-2.421-1.49-4.132c0-1.078,0.242-2.019,0.728-2.803
		c0.661-1.086,1.808-2.12,3.445-3.09c1.629-0.973,4.354-2.139,8.157-3.536v-0.872c0-2.199-0.345-3.713-1.046-4.539
		c-0.701-0.818-1.727-1.235-3.066-1.235c-1.014,0-1.823,0.282-2.416,0.834c-0.61,0.536-0.916,1.166-0.916,1.877l0.052,1.402
		c0,0.738-0.191,1.316-0.571,1.717c-0.375,0.402-0.875,0.595-1.485,0.595c-0.6,0-1.091-0.201-1.466-0.617
		c-0.382-0.421-0.571-0.997-0.571-1.715c0-1.395,0.708-2.664,2.13-3.83c1.419-1.154,3.406-1.738,5.971-1.738
		c1.965,0,3.575,0.329,4.834,0.988c0.951,0.502,1.654,1.294,2.105,2.353c0.289,0.691,0.431,2.112,0.431,4.251v7.518
		c0,2.112,0.039,3.406,0.122,3.888c0.086,0.471,0.216,0.792,0.397,0.954c0.191,0.161,0.404,0.247,0.644,0.247
		c0.255,0,0.485-0.066,0.676-0.181c0.339-0.208,0.99-0.792,1.955-1.769v1.36c-1.798,2.421-3.524,3.629-5.175,3.629
		c-0.779,0-1.411-0.27-1.88-0.826C597.909,269.766,597.672,268.828,597.654,267.512L597.654,267.512z M597.654,265.936v-8.429
		c-2.431,0.972-4.001,1.657-4.712,2.053c-1.277,0.704-2.186,1.448-2.732,2.225c-0.549,0.779-0.824,1.61-0.824,2.536
		c0,1.159,0.343,2.124,1.039,2.889c0.693,0.759,1.49,1.147,2.394,1.147C594.05,268.357,595.657,267.546,597.654,265.936
		L597.654,265.936z M613.513,241.285v7.271h5.173v1.688h-5.173v14.372c0,1.436,0.208,2.401,0.62,2.896
		c0.407,0.504,0.936,0.745,1.576,0.745c0.536,0,1.046-0.154,1.553-0.495c0.492-0.324,0.882-0.811,1.164-1.456h0.941
		c-0.569,1.576-1.365,2.769-2.394,3.561c-1.032,0.804-2.095,1.208-3.198,1.208c-0.737,0-1.465-0.215-2.175-0.625
		c-0.709-0.417-1.228-1-1.566-1.77c-0.338-0.759-0.515-1.941-0.515-3.536v-14.901h-3.497v-0.784
		c0.885-0.356,1.789-0.965,2.713-1.804c0.929-0.853,1.761-1.857,2.477-3.012c0.37-0.61,0.892-1.737,1.554-3.359H613.513
		L613.513,241.285z M635.15,247.904v7.545h-0.802c-0.61-2.374-1.394-3.984-2.35-4.835c-0.965-0.853-2.185-1.281-3.663-1.281
		c-1.132,0-2.041,0.296-2.732,0.899c-0.694,0.598-1.041,1.259-1.041,1.985c0,0.899,0.254,1.669,0.769,2.314
		c0.5,0.664,1.517,1.362,3.049,2.107l3.529,1.708c3.276,1.598,4.91,3.703,4.91,6.317c0,2.019-0.762,3.636-2.288,4.869
		c-1.517,1.227-3.225,1.85-5.109,1.85c-1.36,0-2.906-0.24-4.646-0.723c-0.526-0.169-0.963-0.242-1.301-0.242
		c-0.372,0-0.659,0.208-0.874,0.632h-0.794v-7.914h0.794c0.453,2.254,1.32,3.957,2.592,5.104c1.272,1.139,2.696,1.718,4.276,1.718
		c1.108,0,2.017-0.329,2.717-0.973c0.706-0.656,1.052-1.448,1.052-2.36c0-1.122-0.39-2.053-1.174-2.803
		c-0.775-0.767-2.335-1.725-4.676-2.884c-2.337-1.154-3.862-2.207-4.589-3.131c-0.728-0.933-1.091-2.08-1.091-3.487
		c0-1.826,0.627-3.355,1.874-4.575c1.245-1.22,2.864-1.838,4.842-1.838c0.872,0,1.931,0.197,3.169,0.556
		c0.826,0.243,1.372,0.363,1.644,0.363c0.265,0,0.461-0.051,0.61-0.167c0.138-0.115,0.314-0.355,0.502-0.752H635.15L635.15,247.904z
		 M646.537,241.285v7.271h5.173v1.688h-5.173v14.372c0,1.436,0.208,2.401,0.62,2.896c0.402,0.504,0.931,0.745,1.576,0.745
		c0.536,0,1.046-0.154,1.553-0.495c0.492-0.324,0.88-0.811,1.164-1.456h0.938c-0.571,1.576-1.365,2.769-2.396,3.561
		c-1.032,0.804-2.095,1.208-3.19,1.208c-0.745,0-1.468-0.215-2.176-0.625c-0.715-0.417-1.23-1-1.568-1.77
		c-0.34-0.759-0.517-1.941-0.517-3.536v-14.901h-3.495v-0.784c0.882-0.356,1.792-0.965,2.712-1.804
		c0.927-0.853,1.757-1.857,2.476-3.012c0.372-0.61,0.892-1.737,1.551-3.359H646.537L646.537,241.285z M664.689,247.904
		c3.35,0,6.043,1.282,8.082,3.823c1.722,2.18,2.58,4.675,2.58,7.49c0,1.985-0.478,3.989-1.429,6.023
		c-0.948,2.024-2.26,3.568-3.928,4.593c-1.663,1.038-3.521,1.548-5.567,1.548c-3.343,0-5.991-1.333-7.957-3.982
		c-1.657-2.247-2.492-4.768-2.492-7.545c0-2.038,0.505-4.05,1.51-6.055c1.009-2.004,2.335-3.501,3.979-4.452
		C661.109,248.381,662.849,247.904,664.689,247.904L664.689,247.904z M663.942,249.48c-0.852,0-1.71,0.25-2.575,0.764
		c-0.863,0.505-1.559,1.39-2.088,2.671c-0.542,1.267-0.801,2.904-0.801,4.901c0,3.227,0.642,6.003,1.924,8.336
		c1.277,2.333,2.969,3.514,5.067,3.514c1.561,0,2.845-0.645,3.867-1.931c1.015-1.296,1.519-3.509,1.519-6.653
		c0-3.938-0.842-7.028-2.541-9.282C667.175,250.244,665.717,249.48,663.942,249.48L663.942,249.48z M677.48,248.556h10.422v0.904
		h-0.683c-0.627,0-1.11,0.142-1.436,0.451c-0.329,0.309-0.495,0.717-0.495,1.24c0,0.557,0.174,1.225,0.512,2.004l5.151,12.226
		l5.173-12.688c0.372-0.897,0.551-1.588,0.551-2.059c0-0.22-0.068-0.402-0.191-0.556c-0.181-0.235-0.406-0.394-0.674-0.49
		c-0.282-0.093-0.833-0.127-1.678-0.127v-0.904h7.231v0.904c-0.833,0.061-1.418,0.228-1.742,0.502
		c-0.561,0.485-1.066,1.288-1.517,2.414l-7.856,19.005h-0.99l-7.907-18.689c-0.355-0.866-0.694-1.503-1.015-1.87
		c-0.333-0.382-0.735-0.691-1.235-0.961c-0.274-0.147-0.821-0.287-1.62-0.401V248.556L677.48,248.556z M702.117,248.556h10.316
		v0.904h-0.5c-0.725,0-1.274,0.147-1.637,0.47c-0.363,0.313-0.546,0.698-0.546,1.174c0,0.622,0.265,1.495,0.806,2.602l5.384,11.171
		l4.962-12.225c0.272-0.671,0.406-1.32,0.406-1.965c0-0.287-0.061-0.502-0.169-0.656c-0.13-0.174-0.331-0.317-0.598-0.424
		c-0.287-0.1-0.765-0.147-1.455-0.147v-0.904h7.204v0.904c-0.593,0.061-1.056,0.181-1.377,0.382
		c-0.327,0.189-0.677,0.559-1.064,1.093c-0.155,0.223-0.422,0.84-0.826,1.852l-9.013,22.095c-0.875,2.152-2.012,3.769-3.426,4.861
		c-1.409,1.1-2.765,1.65-4.078,1.65c-0.943,0-1.73-0.282-2.34-0.831c-0.61-0.537-0.916-1.167-0.916-1.877
		c0-0.679,0.226-1.227,0.659-1.63c0.444-0.416,1.054-0.625,1.833-0.625c0.529,0,1.249,0.181,2.168,0.536
		c0.645,0.236,1.046,0.363,1.216,0.363c0.478,0,1.004-0.255,1.58-0.745c0.569-0.51,1.147-1.475,1.725-2.911l1.578-3.842
		l-7.952-16.704c-0.25-0.495-0.632-1.12-1.164-1.85c-0.409-0.576-0.738-0.961-0.992-1.139c-0.37-0.255-0.966-0.497-1.786-0.679
		V248.556L702.117,248.556z M734.197,252.376c2.142-2.983,4.452-4.473,6.937-4.473c2.269,0,4.249,0.973,5.94,2.919
		c1.691,1.943,2.544,4.592,2.544,7.959c0,3.931-1.302,7.101-3.918,9.51c-2.242,2.065-4.737,3.09-7.493,3.09
		c-1.291,0-2.602-0.233-3.928-0.703c-1.328-0.468-2.691-1.167-4.075-2.105v-22.941c0-2.517-0.064-4.058-0.184-4.641
		c-0.117-0.583-0.305-0.973-0.563-1.174c-0.262-0.221-0.585-0.321-0.972-0.321c-0.446,0-1.015,0.119-1.691,0.387l-0.34-0.85
		l6.653-2.703h1.093V252.376L734.197,252.376z M734.197,253.927v13.252c0.814,0.804,1.661,1.413,2.548,1.815
		c0.871,0.409,1.772,0.617,2.696,0.617c1.46,0,2.833-0.804,4.095-2.414c1.262-1.61,1.896-3.95,1.896-7.028
		c0-2.844-0.634-5.022-1.896-6.544c-1.262-1.524-2.701-2.289-4.32-2.289c-0.845,0-1.703,0.223-2.555,0.659
		C736.02,252.309,735.192,252.969,734.197,253.927L734.197,253.927z M756.608,256.896c-0.019,3.294,0.77,5.869,2.39,7.746
		c1.607,1.864,3.509,2.796,5.678,2.796c1.453,0,2.715-0.395,3.788-1.201c1.07-0.791,1.963-2.166,2.69-4.09l0.75,0.476
		c-0.338,2.22-1.321,4.224-2.943,6.03c-1.637,1.816-3.676,2.727-6.116,2.727c-2.667,0-4.943-1.025-6.834-3.11
		c-1.897-2.061-2.838-4.857-2.838-8.35c0-3.788,0.966-6.744,2.917-8.851c1.938-2.132,4.369-3.192,7.309-3.192
		c2.48,0,4.523,0.818,6.111,2.467c1.598,1.63,2.394,3.818,2.394,6.552H756.608L756.608,256.896z M756.608,255.495h10.246
		c-0.083-1.414-0.243-2.421-0.512-2.996c-0.393-0.892-0.995-1.61-1.796-2.125c-0.802-0.517-1.637-0.779-2.502-0.779
		c-1.338,0-2.531,0.522-3.588,1.563C757.4,252.197,756.778,253.645,756.608,255.495L756.608,255.495z M762.357,238.374
		c0.725,0,1.343,0.27,1.864,0.786c0.51,0.51,0.77,1.125,0.77,1.85c0,0.723-0.26,1.348-0.77,1.864
		c-0.522,0.515-1.139,0.777-1.864,0.777c-0.726,0-1.348-0.262-1.863-0.777c-0.514-0.517-0.769-1.142-0.769-1.864
		c0-0.725,0.25-1.34,0.759-1.85C760.988,238.644,761.615,238.374,762.357,238.374L762.357,238.374z M431.697,183.087v0.904
		c-1.167,0.201-2.041,0.571-2.642,1.108c-0.85,0.784-1.61,1.997-2.271,3.626l-11.436,27.898h-0.892l-12.279-28.265
		c-0.635-1.443-1.073-2.335-1.336-2.656c-0.395-0.505-0.892-0.885-1.484-1.174c-0.586-0.289-1.377-0.456-2.377-0.537v-0.904h13.396
		v0.904c-1.524,0.14-2.502,0.402-2.958,0.765c-0.446,0.375-0.679,0.853-0.679,1.436c0,0.804,0.372,2.051,1.117,3.761l8.338,19.219
		l7.732-18.971c0.762-1.87,1.142-3.171,1.142-3.896c0-0.468-0.233-0.912-0.701-1.34c-0.471-0.424-1.255-0.725-2.367-0.906
		c-0.086-0.012-0.216-0.04-0.414-0.067v-0.904H431.697L431.697,183.087z M436.507,181.496c0.676,0,1.254,0.24,1.732,0.711
		c0.468,0.476,0.706,1.058,0.706,1.73c0,0.676-0.238,1.254-0.706,1.745c-0.478,0.475-1.056,0.723-1.732,0.723
		c-0.676,0-1.258-0.248-1.742-0.723c-0.475-0.49-0.728-1.069-0.728-1.745c0-0.672,0.237-1.255,0.72-1.73
		C435.228,181.736,435.814,181.496,436.507,181.496L436.507,181.496z M438.509,193.069h-1.066l-6.665,2.71l0.338,0.872
		c0.645-0.235,1.186-0.363,1.639-0.363c0.424,0,0.755,0.101,0.993,0.309c0.242,0.194,0.419,0.549,0.542,1.073
		c0.137,0.711,0.21,2.252,0.21,4.661v8.542c0,1.37-0.107,2.294-0.333,2.771c-0.21,0.488-0.51,0.83-0.882,1.039
		c-0.36,0.208-1.086,0.321-2.168,0.321v0.865h10.762v-0.865c-1.051,0-1.777-0.113-2.168-0.336c-0.399-0.233-0.693-0.568-0.892-1.031
		c-0.208-0.463-0.309-1.382-0.309-2.764V193.069L438.509,193.069z M452.241,181.496v29.378c0,1.382,0.11,2.301,0.304,2.756
		c0.198,0.444,0.514,0.784,0.933,1.02c0.421,0.228,1.195,0.355,2.345,0.355v0.865h-10.853v-0.865c1.017,0,1.708-0.113,2.069-0.321
		c0.377-0.209,0.671-0.551,0.877-1.039c0.206-0.478,0.316-1.402,0.316-2.771v-20.122c0-2.502-0.059-4.031-0.167-4.603
		c-0.118-0.568-0.294-0.965-0.544-1.173c-0.258-0.213-0.569-0.314-0.959-0.314c-0.419,0-0.948,0.127-1.592,0.39l-0.412-0.845
		l6.602-2.71H452.241L452.241,181.496z M464.841,197.764c2.59-3.124,5.065-4.695,7.42-4.695c1.211,0,2.25,0.308,3.119,0.906
		c0.875,0.611,1.568,1.602,2.078,2.99c0.356,0.967,0.529,2.455,0.529,4.452v9.456c0,1.396,0.115,2.347,0.346,2.845
		c0.174,0.402,0.463,0.718,0.858,0.951c0.387,0.223,1.125,0.336,2.188,0.336v0.865h-10.958v-0.865h0.463
		c1.032,0,1.757-0.166,2.161-0.475c0.409-0.316,0.701-0.78,0.855-1.389c0.069-0.24,0.101-1.005,0.101-2.267v-9.071
		c0-2.014-0.263-3.475-0.784-4.393c-0.529-0.904-1.409-1.36-2.649-1.36c-1.919,0-3.825,1.051-5.726,3.144v11.681
		c0,1.49,0.083,2.416,0.264,2.771c0.225,0.467,0.536,0.811,0.931,1.024c0.397,0.223,1.193,0.336,2.404,0.336v0.865h-10.953v-0.865
		h0.49c1.12,0,1.887-0.281,2.283-0.857c0.388-0.576,0.588-1.671,0.588-3.274v-8.226c0-2.656-0.059-4.281-0.183-4.857
		c-0.113-0.59-0.304-0.98-0.554-1.186c-0.247-0.208-0.586-0.316-1.004-0.316c-0.444,0-0.99,0.128-1.62,0.363l-0.363-0.872
		l6.677-2.71h1.039V197.764L464.841,197.764z M488.771,181.496c0.677,0,1.255,0.24,1.73,0.711c0.475,0.476,0.713,1.058,0.713,1.73
		c0,0.676-0.238,1.254-0.713,1.745c-0.476,0.475-1.054,0.723-1.73,0.723c-0.674,0-1.252-0.248-1.742-0.723
		c-0.478-0.49-0.725-1.069-0.725-1.745c0-0.672,0.24-1.255,0.717-1.73C487.493,181.736,488.078,181.496,488.771,181.496
		L488.771,181.496z M490.776,193.069v17.805c0,1.382,0.101,2.301,0.306,2.764c0.196,0.464,0.494,0.799,0.887,1.031
		c0.399,0.223,1.127,0.336,2.173,0.336v0.865h-10.757v-0.865c1.076,0,1.801-0.113,2.167-0.321c0.372-0.209,0.666-0.551,0.884-1.039
		c0.223-0.478,0.331-1.402,0.331-2.771v-8.542c0-2.409-0.078-3.95-0.215-4.661c-0.115-0.524-0.299-0.879-0.537-1.073
		c-0.242-0.208-0.571-0.309-0.99-0.309c-0.453,0-0.999,0.128-1.639,0.363l-0.34-0.872l6.668-2.71H490.776L490.776,193.069z
		 M509.438,212.677c-2.269,1.76-3.695,2.771-4.281,3.054c-0.865,0.395-1.791,0.61-2.769,0.61c-1.539,0-2.801-0.536-3.79-1.583
		c-0.993-1.046-1.485-2.428-1.485-4.132c0-1.08,0.242-2.019,0.727-2.803c0.657-1.093,1.809-2.125,3.438-3.098
		c1.634-0.965,4.357-2.139,8.16-3.521v-0.877c0-2.208-0.345-3.722-1.046-4.548c-0.701-0.819-1.723-1.228-3.06-1.228
		c-1.012,0-1.821,0.269-2.419,0.818c-0.61,0.552-0.914,1.181-0.914,1.892l0.051,1.402c0,0.738-0.193,1.308-0.571,1.71
		c-0.38,0.409-0.874,0.611-1.487,0.611c-0.603,0-1.086-0.216-1.471-0.638c-0.375-0.424-0.566-0.987-0.566-1.71
		c0-1.389,0.706-2.656,2.127-3.822c1.419-1.154,3.409-1.745,5.977-1.745c1.96,0,3.572,0.336,4.834,0.995
		c0.948,0.502,1.649,1.287,2.104,2.353c0.29,0.691,0.431,2.1,0.431,4.244v7.518c0,2.112,0.04,3.406,0.123,3.889
		c0.081,0.47,0.21,0.799,0.392,0.945c0.191,0.17,0.407,0.25,0.645,0.25c0.257,0,0.49-0.054,0.676-0.169
		c0.341-0.208,0.99-0.804,1.957-1.769v1.352c-1.798,2.416-3.526,3.636-5.173,3.636c-0.786,0-1.411-0.281-1.884-0.833
		C509.696,214.946,509.455,214,509.438,212.677L509.438,212.677z M509.438,211.108v-8.441c-2.431,0.97-3.999,1.657-4.71,2.058
		c-1.279,0.712-2.188,1.448-2.73,2.225c-0.554,0.772-0.826,1.617-0.826,2.549c0,1.147,0.346,2.112,1.039,2.884
		c0.691,0.757,1.492,1.139,2.394,1.139C505.839,213.522,507.444,212.726,509.438,211.108L509.438,211.108z M538.282,193.721v13.418
		c0,2.568,0.056,4.139,0.184,4.708c0.122,0.578,0.308,0.973,0.576,1.193c0.27,0.228,0.576,0.343,0.933,0.343
		c0.502,0,1.061-0.135,1.686-0.417l0.339,0.853l-6.621,2.735h-1.084v-4.693c-1.906,2.059-3.357,3.36-4.359,3.889
		c-0.995,0.529-2.05,0.804-3.156,0.804c-1.25,0-2.32-0.361-3.24-1.078c-0.904-0.718-1.541-1.637-1.894-2.771
		c-0.358-1.132-0.527-2.722-0.527-4.786v-9.885c0-1.054-0.115-1.779-0.34-2.181c-0.22-0.401-0.558-0.711-1.007-0.924
		c-0.438-0.223-1.247-0.323-2.404-0.308v-0.899h7.761v14.827c0,2.066,0.36,3.413,1.083,4.058c0.713,0.65,1.583,0.977,2.598,0.977
		c0.693,0,1.475-0.22,2.35-0.656c0.884-0.436,1.92-1.275,3.136-2.49v-12.558c0-1.247-0.233-2.1-0.696-2.548
		c-0.461-0.436-1.407-0.679-2.862-0.711v-0.899H538.282L538.282,193.721z M557.936,193.069v7.545h-0.799
		c-0.61-2.367-1.394-3.975-2.354-4.835c-0.963-0.846-2.183-1.275-3.664-1.275c-1.127,0-2.034,0.297-2.73,0.9
		c-0.693,0.59-1.039,1.247-1.039,1.97c0,0.906,0.255,1.679,0.767,2.328c0.505,0.656,1.517,1.362,3.053,2.1l3.523,1.715
		c3.274,1.598,4.906,3.695,4.906,6.312c0,2.017-0.755,3.634-2.282,4.874c-1.522,1.227-3.224,1.85-5.109,1.85
		c-1.363,0-2.904-0.24-4.643-0.738c-0.532-0.146-0.971-0.235-1.307-0.235c-0.372,0-0.659,0.208-0.87,0.632h-0.797v-7.907h0.797
		c0.449,2.247,1.315,3.95,2.583,5.104c1.272,1.147,2.701,1.71,4.281,1.71c1.108,0,2.022-0.323,2.718-0.972
		c0.706-0.664,1.051-1.443,1.051-2.36c0-1.115-0.387-2.046-1.174-2.803c-0.776-0.765-2.335-1.718-4.677-2.884
		c-2.335-1.154-3.862-2.201-4.587-3.14c-0.726-0.926-1.091-2.077-1.091-3.479c0-1.825,0.629-3.347,1.872-4.575
		c1.247-1.214,2.862-1.838,4.847-1.838c0.872,0,1.928,0.188,3.166,0.566c0.828,0.24,1.372,0.36,1.644,0.36
		c0.265,0,0.461-0.054,0.613-0.167c0.138-0.122,0.308-0.37,0.502-0.759H557.936L557.936,193.069z M594.682,193.721v13.418
		c0,2.568,0.056,4.139,0.181,4.708c0.122,0.578,0.313,0.973,0.576,1.193c0.274,0.228,0.578,0.343,0.931,0.343
		c0.508,0,1.066-0.135,1.693-0.417l0.338,0.853l-6.628,2.735h-1.075v-4.693c-1.91,2.059-3.36,3.36-4.359,3.889
		c-1,0.529-2.056,0.804-3.166,0.804c-1.24,0-2.313-0.361-3.232-1.078c-0.904-0.718-1.539-1.637-1.894-2.771
		c-0.355-1.132-0.529-2.722-0.529-4.786v-9.885c0-1.054-0.118-1.779-0.338-2.181c-0.226-0.401-0.564-0.711-1.007-0.924
		c-0.439-0.223-1.243-0.323-2.399-0.308v-0.899h7.756v14.827c0,2.066,0.36,3.413,1.083,4.058c0.715,0.65,1.578,0.977,2.595,0.977
		c0.693,0,1.477-0.22,2.352-0.656c0.884-0.436,1.921-1.275,3.139-2.49v-12.558c0-1.247-0.236-2.1-0.694-2.548
		c-0.463-0.436-1.412-0.679-2.867-0.711v-0.899H594.682L594.682,193.721z M606.481,197.764c2.59-3.124,5.065-4.695,7.42-4.695
		c1.211,0,2.25,0.308,3.117,0.906c0.872,0.611,1.571,1.602,2.081,2.99c0.355,0.967,0.53,2.455,0.53,4.452v9.456
		c0,1.396,0.112,2.347,0.345,2.845c0.174,0.402,0.464,0.718,0.858,0.951c0.387,0.223,1.124,0.336,2.185,0.336v0.865H612.06v-0.865
		h0.458c1.032,0,1.759-0.166,2.167-0.475c0.409-0.316,0.701-0.78,0.855-1.389c0.066-0.24,0.101-1.005,0.101-2.267v-9.071
		c0-2.014-0.262-3.475-0.784-4.393c-0.529-0.904-1.409-1.36-2.646-1.36c-1.921,0-3.832,1.051-5.729,3.144v11.681
		c0,1.49,0.083,2.416,0.267,2.771c0.218,0.467,0.534,0.811,0.934,1.024c0.392,0.223,1.193,0.336,2.398,0.336v0.865h-10.953v-0.865
		h0.49c1.12,0,1.887-0.281,2.284-0.857c0.392-0.576,0.585-1.671,0.585-3.274v-8.226c0-2.656-0.056-4.281-0.181-4.857
		c-0.118-0.59-0.304-0.98-0.554-1.186c-0.247-0.208-0.583-0.316-1.005-0.316c-0.446,0-0.99,0.128-1.62,0.363l-0.363-0.872
		l6.677-2.71h1.039V197.764L606.481,197.764z M630.409,181.496c0.679,0,1.255,0.24,1.733,0.711c0.468,0.476,0.713,1.058,0.713,1.73
		c0,0.676-0.245,1.254-0.713,1.745c-0.478,0.475-1.054,0.723-1.733,0.723c-0.676,0-1.257-0.248-1.74-0.723
		c-0.478-0.49-0.725-1.069-0.725-1.745c0-0.672,0.24-1.255,0.72-1.73C629.132,181.736,629.72,181.496,630.409,181.496
		L630.409,181.496z M632.418,193.069v17.805c0,1.382,0.098,2.301,0.301,2.764c0.199,0.464,0.498,0.799,0.893,1.031
		c0.397,0.223,1.125,0.336,2.173,0.336v0.865h-10.767v-0.865c1.088,0,1.811-0.113,2.173-0.321c0.375-0.209,0.666-0.551,0.884-1.039
		c0.226-0.478,0.329-1.402,0.329-2.771v-8.542c0-2.409-0.076-3.95-0.214-4.661c-0.115-0.524-0.298-0.879-0.536-1.073
		c-0.243-0.208-0.571-0.309-0.991-0.309c-0.453,0-1,0.128-1.646,0.363l-0.331-0.872l6.665-2.71H632.418L632.418,193.069z
		 M637.397,193.721h10.424v0.899h-0.683c-0.63,0-1.105,0.154-1.439,0.456c-0.331,0.321-0.495,0.718-0.495,1.24
		c0,0.556,0.177,1.228,0.509,2l5.153,12.237l5.173-12.696c0.37-0.904,0.554-1.58,0.554-2.051c0-0.228-0.064-0.401-0.192-0.549
		c-0.181-0.247-0.402-0.417-0.674-0.505c-0.281-0.086-0.838-0.132-1.676-0.132v-0.899h7.229v0.899
		c-0.836,0.066-1.418,0.233-1.745,0.502c-0.555,0.495-1.063,1.301-1.519,2.421l-7.853,19.01h-0.988l-7.905-18.697
		c-0.355-0.87-0.695-1.487-1.017-1.877c-0.328-0.375-0.73-0.691-1.237-0.946c-0.272-0.147-0.818-0.282-1.62-0.414V193.721
		L637.397,193.721z M667.018,202.069c-0.019,3.286,0.772,5.869,2.394,7.731c1.608,1.865,3.504,2.806,5.673,2.806
		c1.456,0,2.718-0.397,3.786-1.203c1.073-0.789,1.965-2.158,2.693-4.089l0.75,0.478c-0.338,2.21-1.32,4.23-2.945,6.04
		c-1.634,1.811-3.673,2.722-6.117,2.722c-2.663,0-4.94-1.039-6.829-3.11c-1.899-2.068-2.838-4.857-2.838-8.355
		c0-3.791,0.963-6.749,2.911-8.861c1.941-2.112,4.372-3.185,7.31-3.185c2.485,0,4.523,0.826,6.116,2.462
		c1.59,1.637,2.391,3.823,2.391,6.565H667.018L667.018,202.069z M667.018,200.661h10.248c-0.084-1.421-0.25-2.414-0.512-2.99
		c-0.397-0.9-1-1.61-1.799-2.132c-0.801-0.505-1.632-0.772-2.502-0.772c-1.338,0-2.531,0.517-3.587,1.561
		C667.809,197.37,667.186,198.81,667.018,200.661L667.018,200.661z M691.747,193.069v4.991c1.848-3.328,3.751-4.991,5.7-4.991
		c0.882,0,1.62,0.277,2.203,0.814c0.581,0.537,0.867,1.174,0.867,1.87c0,0.637-0.208,1.166-0.627,1.602
		c-0.422,0.436-0.914,0.659-1.502,0.659c-0.558,0-1.195-0.284-1.899-0.84c-0.698-0.557-1.218-0.831-1.556-0.831
		c-0.294,0-0.605,0.154-0.943,0.475c-0.728,0.664-1.475,1.745-2.242,3.267v10.608c0,1.222,0.147,2.161,0.451,2.783
		c0.216,0.444,0.588,0.807,1.115,1.093c0.537,0.289,1.297,0.436,2.294,0.436v0.865h-11.338v-0.865c1.135,0,1.973-0.181,2.519-0.529
		c0.401-0.262,0.683-0.671,0.848-1.235c0.078-0.281,0.117-1.051,0.117-2.352v-8.576c0-2.583-0.051-4.112-0.157-4.607
		c-0.101-0.49-0.299-0.852-0.578-1.073c-0.282-0.228-0.638-0.343-1.056-0.343c-0.495,0-1.059,0.128-1.693,0.363l-0.238-0.872
		l6.699-2.71H691.747L691.747,193.069z M716.062,193.069v7.545h-0.801c-0.61-2.367-1.397-3.975-2.348-4.835
		c-0.966-0.846-2.191-1.275-3.668-1.275c-1.13,0-2.037,0.297-2.732,0.9c-0.694,0.59-1.039,1.247-1.039,1.97
		c0,0.906,0.257,1.679,0.769,2.328c0.503,0.656,1.52,1.362,3.056,2.1l3.521,1.715c3.279,1.598,4.908,3.695,4.908,6.312
		c0,2.017-0.757,3.634-2.286,4.874c-1.512,1.227-3.227,1.85-5.105,1.85c-1.362,0-2.906-0.24-4.645-0.738
		c-0.527-0.146-0.966-0.235-1.307-0.235c-0.372,0-0.659,0.208-0.874,0.632h-0.794v-7.907h0.794c0.456,2.247,1.32,3.95,2.592,5.104
		c1.27,1.147,2.695,1.71,4.274,1.71c1.117,0,2.019-0.323,2.725-0.972c0.701-0.664,1.049-1.443,1.049-2.36
		c0-1.115-0.393-2.046-1.177-2.803c-0.772-0.765-2.33-1.718-4.677-2.884c-2.338-1.154-3.865-2.201-4.587-3.14
		c-0.725-0.926-1.091-2.077-1.091-3.479c0-1.825,0.627-3.347,1.875-4.575c1.247-1.214,2.864-1.838,4.844-1.838
		c0.873,0,1.931,0.188,3.166,0.566c0.828,0.24,1.372,0.36,1.647,0.36c0.262,0,0.458-0.054,0.61-0.167
		c0.138-0.122,0.311-0.37,0.5-0.759H716.062L716.062,193.069z M726.648,181.496c0.676,0,1.252,0.24,1.737,0.711
		c0.468,0.476,0.706,1.058,0.706,1.73c0,0.676-0.237,1.254-0.706,1.745c-0.485,0.475-1.061,0.723-1.737,0.723
		c-0.674,0-1.252-0.248-1.739-0.723c-0.481-0.49-0.726-1.069-0.726-1.745c0-0.672,0.238-1.255,0.718-1.73
		C725.369,181.736,725.956,181.496,726.648,181.496L726.648,181.496z M728.655,193.069v17.805c0,1.382,0.098,2.301,0.306,2.764
		c0.194,0.464,0.493,0.799,0.89,1.031c0.397,0.223,1.122,0.336,2.168,0.336v0.865h-10.757v-0.865c1.081,0,1.804-0.113,2.167-0.321
		c0.375-0.209,0.671-0.551,0.884-1.039c0.226-0.478,0.334-1.402,0.334-2.771v-8.542c0-2.409-0.078-3.95-0.218-4.661
		c-0.115-0.524-0.292-0.879-0.536-1.073c-0.238-0.208-0.571-0.309-0.986-0.309c-0.457,0-0.999,0.128-1.644,0.363l-0.338-0.872
		l6.67-2.71H728.655L728.655,193.069z M741.205,186.458v7.263h5.173v1.703h-5.173v14.357c0,1.437,0.206,2.409,0.618,2.896
		c0.404,0.505,0.935,0.752,1.575,0.752c0.539,0,1.049-0.167,1.556-0.495c0.492-0.329,0.877-0.819,1.159-1.47h0.941
		c-0.569,1.583-1.363,2.771-2.392,3.575c-1.034,0.799-2.097,1.193-3.195,1.193c-0.742,0-1.465-0.201-2.176-0.622
		c-0.71-0.404-1.228-0.995-1.571-1.759c-0.336-0.757-0.512-1.944-0.512-3.546v-14.881h-3.495v-0.804
		c0.882-0.351,1.786-0.953,2.718-1.798c0.921-0.846,1.752-1.85,2.472-3.012c0.37-0.611,0.89-1.727,1.549-3.352H741.205
		L741.205,186.458z M752.254,202.069c-0.015,3.286,0.777,5.869,2.394,7.731c1.61,1.865,3.504,2.806,5.673,2.806
		c1.455,0,2.715-0.397,3.788-1.203c1.076-0.789,1.965-2.158,2.693-4.089l0.747,0.478c-0.336,2.21-1.318,4.23-2.943,6.04
		c-1.634,1.811-3.673,2.722-6.116,2.722c-2.664,0-4.943-1.039-6.829-3.11c-1.899-2.068-2.84-4.857-2.84-8.355
		c0-3.791,0.968-6.749,2.916-8.861c1.936-2.112,4.369-3.185,7.304-3.185c2.49,0,4.529,0.826,6.119,2.462
		c1.591,1.637,2.389,3.823,2.389,6.565H752.254L752.254,202.069z M752.254,200.661h10.25c-0.081-1.421-0.252-2.414-0.515-2.99
		c-0.395-0.9-0.997-1.61-1.796-2.132c-0.807-0.505-1.637-0.772-2.502-0.772c-1.336,0-2.534,0.517-3.59,1.561
		C753.048,197.37,752.428,198.81,752.254,200.661L752.254,200.661z M776.934,186.458v7.263h5.173v1.703h-5.173v14.357
		c0,1.437,0.208,2.409,0.617,2.896c0.405,0.505,0.932,0.752,1.576,0.752c0.539,0,1.049-0.167,1.551-0.495
		c0.498-0.329,0.887-0.819,1.169-1.47h0.939c-0.571,1.583-1.363,2.771-2.394,3.575c-1.034,0.799-2.095,1.193-3.193,1.193
		c-0.745,0-1.473-0.201-2.178-0.622c-0.708-0.404-1.23-0.995-1.566-1.759c-0.338-0.757-0.515-1.944-0.515-3.546v-14.881h-3.496
		v-0.804c0.879-0.351,1.789-0.953,2.71-1.798c0.924-0.846,1.764-1.85,2.477-3.012c0.372-0.611,0.892-1.727,1.551-3.352H776.934
		L776.934,186.458z M795.087,193.069c3.355,0,6.04,1.282,8.082,3.822c1.723,2.181,2.578,4.675,2.578,7.491
		c0,1.992-0.478,3.996-1.424,6.03c-0.95,2.032-2.264,3.561-3.928,4.592c-1.668,1.027-3.526,1.549-5.572,1.549
		c-3.342,0-5.991-1.333-7.954-3.997c-1.654-2.239-2.489-4.76-2.489-7.542c0-2.027,0.502-4.046,1.507-6.05
		c1.007-2.012,2.335-3.487,3.977-4.445C791.507,193.554,793.249,193.069,795.087,193.069L795.087,193.069z M794.337,194.647
		c-0.848,0-1.711,0.247-2.573,0.762c-0.86,0.512-1.563,1.397-2.087,2.671c-0.537,1.275-0.801,2.904-0.801,4.908
		c0,3.225,0.642,6.008,1.921,8.336c1.279,2.34,2.97,3.507,5.065,3.507c1.563,0,2.847-0.645,3.869-1.931
		c1.017-1.294,1.519-3.506,1.519-6.645c0-3.938-0.838-7.035-2.541-9.29C797.569,195.424,796.113,194.647,794.337,194.647
		L794.337,194.647z M417.841,237.176v11.345h-0.887c-0.297-2.185-0.819-3.915-1.559-5.205c-0.752-1.298-1.825-2.318-3.212-3.062
		c-1.387-0.773-2.815-1.14-4.3-1.14c-1.671,0-3.058,0.502-4.156,1.529c-1.098,1.024-1.645,2.185-1.645,3.492
		c0,0.992,0.351,1.911,1.039,2.73c1,1.213,3.374,2.823,7.131,4.834c3.063,1.644,5.156,2.904,6.273,3.791
		c1.123,0.877,1.987,1.909,2.59,3.098c0.6,1.201,0.909,2.448,0.909,3.754c0,2.475-0.966,4.621-2.889,6.417
		c-1.931,1.791-4.406,2.698-7.435,2.698c-0.958,0-1.85-0.076-2.693-0.228c-0.492-0.068-1.534-0.37-3.102-0.872
		c-1.568-0.509-2.563-0.772-2.987-0.772c-0.404,0-0.716,0.128-0.956,0.37c-0.231,0.24-0.405,0.738-0.52,1.502h-0.892V260.21h0.892
		c0.419,2.359,0.99,4.112,1.7,5.285c0.709,1.159,1.787,2.139,3.249,2.909c1.456,0.772,3.056,1.161,4.798,1.161
		c2.009,0,3.604-0.524,4.771-1.595c1.166-1.061,1.754-2.32,1.754-3.763c0-0.811-0.223-1.622-0.661-2.448
		c-0.446-0.823-1.14-1.588-2.07-2.294c-0.628-0.488-2.348-1.509-5.151-3.082c-2.803-1.571-4.796-2.833-5.981-3.757
		c-1.188-0.945-2.08-1.972-2.696-3.097c-0.615-1.126-0.916-2.366-0.916-3.729c0-2.348,0.895-4.371,2.705-6.069
		c1.808-1.703,4.102-2.554,6.888-2.554c1.742,0,3.59,0.422,5.538,1.279c0.899,0.409,1.543,0.606,1.908,0.606
		c0.419,0,0.765-0.128,1.032-0.37c0.262-0.255,0.478-0.765,0.643-1.514H417.841L417.841,237.176z M430.658,241.285v7.271h5.176
		v1.688h-5.176v14.372c0,1.436,0.206,2.401,0.617,2.896c0.404,0.504,0.934,0.745,1.578,0.745c0.534,0,1.049-0.154,1.551-0.495
		c0.493-0.324,0.882-0.811,1.164-1.456h0.939c-0.571,1.576-1.357,2.769-2.392,3.561c-1.032,0.804-2.098,1.208-3.19,1.208
		c-0.75,0-1.47-0.215-2.181-0.625c-0.706-0.417-1.23-1-1.573-1.77c-0.333-0.759-0.509-1.941-0.509-3.536v-14.901h-3.497v-0.784
		c0.882-0.356,1.791-0.965,2.718-1.804c0.921-0.853,1.757-1.857,2.475-3.012c0.372-0.61,0.887-1.737,1.551-3.359H430.658
		L430.658,241.285z M457.392,248.556h-7.54v0.904c1.448,0.034,2.397,0.27,2.86,0.706c0.463,0.448,0.694,1.293,0.694,2.553v12.541
		c-1.213,1.227-2.25,2.058-3.132,2.502c-0.875,0.421-1.659,0.642-2.352,0.642c-1.015,0-1.883-0.314-2.6-0.965
		c-0.721-0.642-1.084-2.005-1.084-4.063v-14.82h-7.755v0.904c1.154-0.02,1.965,0.081,2.401,0.296
		c0.446,0.221,0.784,0.522,1.007,0.931c0.223,0.402,0.34,1.127,0.34,2.173v9.885c0,2.066,0.169,3.654,0.527,4.788
		c0.355,1.132,0.99,2.051,1.896,2.769c0.917,0.717,1.99,1.078,3.237,1.078c1.105,0,2.159-0.267,3.158-0.804
		c0.999-0.53,2.451-1.819,4.354-3.882v4.685h1.083l6.626-2.735l-0.338-0.853c-0.627,0.29-1.186,0.417-1.691,0.417
		c-0.355,0-0.664-0.108-0.931-0.336c-0.268-0.221-0.453-0.622-0.578-1.193c-0.125-0.576-0.184-2.147-0.184-4.707V248.556
		L457.392,248.556z M478.38,268.21c-1.083,1.132-2.139,1.945-3.174,2.433c-1.029,0.49-2.144,0.738-3.332,0.738
		c-2.417,0-4.526-1.012-6.337-3.036c-1.801-2.026-2.705-4.621-2.705-7.787c0-3.178,1-6.087,3.004-8.731
		c1.997-2.621,4.56-3.949,7.704-3.949c1.948,0,3.567,0.632,4.839,1.864v-4.082c0-2.536-0.061-4.085-0.181-4.668
		c-0.125-0.583-0.319-0.973-0.571-1.174c-0.258-0.221-0.579-0.321-0.966-0.321c-0.421,0-0.975,0.119-1.669,0.387l-0.316-0.85
		l6.606-2.703h1.079v25.601c0,2.59,0.068,4.173,0.181,4.749c0.124,0.571,0.316,0.973,0.588,1.193
		c0.264,0.228,0.576,0.336,0.921,0.336c0.439,0,1.027-0.127,1.744-0.417l0.275,0.853l-6.58,2.735h-1.112V268.21L478.38,268.21z
		 M478.38,266.519v-11.413c-0.101-1.093-0.39-2.098-0.87-2.997c-0.486-0.897-1.13-1.583-1.924-2.039
		c-0.799-0.463-1.573-0.691-2.333-0.691c-1.419,0-2.681,0.637-3.796,1.912c-1.47,1.678-2.203,4.124-2.203,7.358
		c0,3.251,0.706,5.746,2.124,7.476c1.421,1.73,2.997,2.595,4.742,2.595C475.586,268.72,477.007,267.99,478.38,266.519
		L478.38,266.519z M491.214,256.896c-0.014,3.294,0.777,5.869,2.394,7.746c1.612,1.864,3.509,2.796,5.68,2.796
		c1.451,0,2.713-0.395,3.786-1.201c1.076-0.791,1.968-2.166,2.688-4.09l0.749,0.476c-0.338,2.22-1.316,4.224-2.943,6.03
		c-1.629,1.816-3.67,2.727-6.111,2.727c-2.671,0-4.942-1.025-6.836-3.11c-1.894-2.061-2.84-4.857-2.84-8.35
		c0-3.788,0.968-6.744,2.916-8.851c1.938-2.132,4.372-3.192,7.309-3.192c2.485,0,4.524,0.818,6.117,2.467
		c1.588,1.63,2.389,3.818,2.389,6.552H491.214L491.214,256.896z M491.214,255.495h10.25c-0.081-1.414-0.25-2.421-0.51-2.996
		c-0.396-0.892-0.999-1.61-1.801-2.125c-0.801-0.517-1.632-0.779-2.497-0.779c-1.338,0-2.534,0.522-3.592,1.563
		C492.008,252.197,491.391,253.645,491.214,255.495z"/>
</g>
</svg>
