<?xml version="1.0" encoding="UTF-8" standalone="no"?>
<!DOCTYPE svg PUBLIC "-//W3C//DTD SVG 1.1//EN" "http://www.w3.org/Graphics/SVG/1.1/DTD/svg11.dtd">
<svg width="100%" height="100%" viewBox="0 0 2990 3852" version="1.1" xmlns="http://www.w3.org/2000/svg" xmlns:xlink="http://www.w3.org/1999/xlink" xml:space="preserve" xmlns:serif="http://www.serif.com/" style="fill-rule:evenodd;clip-rule:evenodd;stroke-linejoin:round;stroke-miterlimit:2;">
    <g transform="matrix(4.16667,0,0,4.16667,-12.5433,165.253)">
        <g id="Layer-1" serif:id="Layer 1">
            <g>
                <g transform="matrix(1,0,0,1,333.638,446.969)">
                    <path d="M0,-179.819C-0.821,-180.367 -0.639,-181.279 -0.183,-182.009C0.365,-182.557 1.096,-182.923 2.008,-182.284C2.646,-181.645 2.646,-180.732 2.282,-179.911C1.734,-179.272 0.73,-179.089 0,-179.819M17.889,-171.606L15.698,-178.998L14.329,-178.998C14.785,-180.732 14.968,-181.919 13.873,-184.2L15.424,-184.474L16.702,-192.14L18.71,-184.292L57.771,-185.569L68.724,-182.557L57.954,-179.819L18.983,-179.637L17.889,-171.606ZM28.201,-157.825C25.555,-160.015 24.642,-165.216 25.007,-168.502C25.099,-169.78 26.284,-171.697 27.745,-171.514C30.392,-170.236 30.939,-159.558 28.201,-157.825M5.749,-154.631C5.749,-162.205 6.023,-169.779 6.297,-177.173C2.829,-179.728 4.473,-185.022 9.309,-184.474C11.135,-184.2 12.229,-182.192 12.229,-180.367C12.047,-179.09 11.5,-177.902 10.495,-176.99C10.77,-173.613 11.5,-164.487 11.865,-159.102L25.646,-153.535C24.368,-151.253 23.911,-149.063 23.638,-146.781L5.749,-154.631ZM25.646,-144.409C25.828,-147.967 26.649,-151.71 29.114,-154.904C32.947,-159.833 33.495,-167.407 30.118,-172.427C33.313,-173.34 37.419,-173.156 40.705,-172.062C41.252,-167.864 41.069,-162.844 37.783,-158.007L39.792,-154.995C37.875,-154.631 34.59,-154.173 32.034,-153.809C31.853,-151.436 32.308,-147.785 32.674,-145.686C31.305,-145.321 27.562,-144.409 25.646,-144.409M-25.099,-139.48L-26.467,-142.309C-28.384,-145.412 -27.379,-144.774 -28.931,-146.507C-27.562,-146.598 -25.463,-145.412 -23.729,-144.318C-24.094,-146.325 -24.459,-147.967 -24.642,-149.701C-22.998,-149.337 -21.082,-148.424 -20.169,-146.598C-20.169,-146.598 -18.801,-146.781 -17.249,-146.872C-16.884,-145.048 -16.884,-143.861 -16.701,-142.127C-18.982,-141.854 -23.272,-141.032 -25.099,-139.48M-20.169,-131.997C-20.534,-132.818 -20.809,-133.822 -20.353,-134.735C-19.53,-135.374 -19.257,-134.917 -18.436,-134.735C-17.797,-133.822 -17.522,-133.183 -17.979,-132.179C-18.161,-131.358 -19.165,-131.449 -20.169,-131.997M27.197,-130.444C26.376,-133.639 25.646,-138.294 25.828,-141.853C28.566,-142.309 30.666,-142.766 33.222,-143.404C33.769,-139.937 34.772,-136.469 35.776,-133.274C33.859,-132.635 29.936,-131.084 27.197,-130.444M47.824,-125.425C48.098,-127.069 47.642,-129.988 47.642,-132.089C46.364,-131.631 45.633,-131.449 43.168,-130.902L42.438,-134.278C43.899,-134.46 45.725,-134.552 47.185,-135.008C47.002,-137.016 46.637,-138.75 46.271,-141.305C45.45,-141.305 42.986,-140.667 41.344,-140.393L40.888,-143.404C42.986,-143.587 44.354,-143.861 45.725,-144.043C45.359,-146.234 45.085,-148.151 44.354,-150.523C44.994,-150.797 47.093,-150.888 47.823,-151.162C47.915,-148.424 48.188,-146.781 48.645,-144.5C49.923,-144.956 52.386,-145.23 53.482,-145.504C53.573,-144.409 53.665,-143.314 53.756,-142.309C52.295,-142.127 50.835,-142.036 49.192,-141.853C49.648,-139.298 49.923,-137.564 50.378,-135.465C52.66,-136.103 53.025,-136.013 54.668,-136.469L55.216,-133.091C53.938,-132.818 52.66,-132.727 50.652,-132.453C50.926,-130.536 51.475,-128.163 51.839,-126.064C50.835,-125.881 49.283,-125.425 47.824,-125.425M-12.32,-122.961L-14.055,-139.115C-10.951,-138.842 -8.579,-137.29 -7.849,-135.19C-6.389,-132.453 -9.856,-125.881 -9.491,-122.778L-12.32,-122.961ZM-20.809,-122.048L-24.459,-137.107C-22.907,-138.568 -18.709,-139.48 -16.519,-139.48L-14.42,-122.869C-15.789,-122.596 -18.526,-122.139 -20.443,-121.683L-20.809,-122.048ZM23.272,-119.493C21.63,-121.135 19.531,-124.239 21.995,-125.425L36.872,-130.81C37.328,-129.624 37.967,-128.711 38.697,-127.341C33.039,-125.425 28.019,-122.231 23.272,-119.493M-7.393,-118.124C-6.937,-120.771 -8.031,-123.509 -6.845,-126.703C-4.837,-131.814 -4.016,-137.29 -9.948,-140.94C-11.317,-141.579 -12.777,-141.853 -14.328,-142.036C-14.511,-143.679 -14.511,-145.504 -14.785,-147.055C-8.396,-147.329 0.913,-143.679 6.115,-139.115C9.309,-136.56 12.139,-133.274 14.42,-129.349C13.781,-129.259 12.321,-128.893 10.77,-128.346C8.123,-132.727 2.738,-139.115 -2.829,-140.667L-1.916,-138.385C2.646,-135.555 5.294,-132.727 8.031,-127.525C2.921,-125.425 -2.556,-122.414 -7.393,-118.124M51.2,-116.846C42.074,-121.501 35.138,-139.48 34.772,-151.892L55.308,-154.995C58.137,-147.511 59.506,-123.874 51.2,-116.846M-14.42,-113.925C-17.979,-113.925 -19.53,-116.298 -20.078,-119.128C-17.614,-119.767 -12.412,-120.862 -9.582,-120.314C-9.035,-116.573 -10.86,-113.925 -14.42,-113.925M-5.658,-107.72C-6.023,-110.366 -6.023,-113.195 -6.297,-115.751C-1.004,-120.041 8.579,-125.881 16.61,-127.341C17.249,-127.342 17.432,-126.886 18.07,-126.886C6.389,-121.866 -0.729,-114.839 -5.658,-107.72M-3.468,-106.26C1.096,-114.109 9.127,-120.497 18.527,-124.421C18.162,-121.409 19.439,-120.041 21.356,-117.942L14.329,-110.915L9.766,-107.538C5.202,-107.72 1.552,-107.172 -3.468,-106.26M23.272,-104.16L16.61,-109.637C22.178,-116.025 29.479,-121.319 39.427,-125.152C40.705,-122.778 42.804,-120.497 44.538,-118.397C43.716,-116.664 41.525,-115.112 37.146,-113.925C31.853,-111.188 25.372,-105.256 23.272,-104.16M12.229,-102.335C12.047,-103.613 11.865,-104.343 11.773,-105.986C12.777,-106.808 13.599,-107.446 14.603,-107.994L21.722,-102.609C21.812,-102.335 21.722,-101.879 21.63,-101.605C18.983,-101.788 14.785,-102.152 12.229,-102.335M41.526,-100.693C41.709,-101.788 42.713,-103.979 43.625,-105.712C46.364,-106.99 48.645,-108.632 50.562,-110.549C53.117,-108.176 55.398,-102.427 55.764,-98.502C51.292,-98.684 46.271,-99.415 41.526,-100.693M-6.937,-98.867C-6.937,-100.236 -6.114,-101.332 -5.385,-102.609C-1.004,-104.708 4.837,-105.438 9.218,-105.074C9.492,-103.887 9.674,-103.157 9.766,-102.062C4.107,-101.605 -1.46,-100.966 -6.937,-98.867M59.049,-98.411C58.228,-103.157 56.22,-108.358 53.025,-113.378C55.764,-114.382 59.688,-112.557 61.878,-110.366C64.981,-107.446 66.716,-102.883 67.719,-98.319C66.076,-98.411 61.239,-98.228 59.049,-98.411M35.32,-86.546L29.388,-92.479C28.384,-90.653 27.015,-87.641 25.646,-85.634C25.007,-86.82 23.638,-88.736 22.634,-90.288C24.003,-94.304 24.368,-96.494 23.82,-101.696C25.737,-103.339 32.217,-108.815 37.783,-111.553C42.438,-113.195 45.541,-114.748 46.454,-116.755C47.093,-116.116 48.554,-115.112 49.648,-114.291C47.732,-110.915 40.887,-106.625 34.955,-105.346C35.959,-104.617 38.332,-104.617 40.157,-104.708C37.146,-99.323 35.685,-93.756 35.32,-86.546M99.206,-80.157C98.019,-82.348 96.651,-83.17 95.464,-84.539C91.904,-88.372 93.183,-94.395 95.19,-100.054C95.19,-102.427 94.003,-104.708 91.357,-104.708C84.512,-103.613 78.489,-97.863 71.643,-98.411C69.271,-103.339 67.901,-111.096 61.33,-114.018C70.457,-112.923 76.39,-107.994 79.492,-103.248C85.425,-108.359 92.543,-114.473 101.031,-112.101C104.043,-111.096 105.777,-108.906 106.416,-105.621C106.963,-100.419 103.769,-93.756 109.244,-89.194C107.055,-88.006 104.407,-91.11 102.218,-90.38C103.678,-88.645 104.316,-87.186 104.682,-84.72C103.131,-85.907 101.122,-86.637 98.658,-86.729C99.023,-84.995 100.118,-83.534 99.297,-80.34L99.206,-80.157ZM-46.637,-79.154C-45.724,-82.53 -45.358,-86.455 -43.989,-89.284C-38.97,-93.209 -31.761,-97.316 -25.28,-100.145C-19.713,-100.327 -14.42,-100.145 -9.309,-99.323C-9.674,-97.772 -9.948,-96.22 -10.13,-94.304C-14.968,-94.669 -19.621,-95.034 -24.732,-95.034C-29.661,-93.392 -35.319,-90.562 -39.791,-86.82C-40.521,-84.082 -39.426,-82.074 -38.97,-79.337C-40.795,-79.154 -44.264,-79.244 -46.454,-79.154L-46.637,-79.154ZM1.369,-69.48C1.825,-73.131 3.925,-74.864 6.389,-76.599C7.666,-77.238 9.218,-77.967 10.587,-79.244C12.412,-83.9 12.412,-92.753 12.504,-99.962C14.512,-99.78 19.622,-99.415 21.903,-99.323C22.634,-93.117 19.074,-88.097 18.345,-82.804C17.797,-78.697 18.253,-78.241 18.345,-76.872C18.527,-74.956 14.603,-74.499 12.229,-74.043C8.579,-72.857 5.111,-71.579 1.369,-69.48M-40.339,-68.476C-40.431,-71.852 -39.244,-74.682 -38.148,-76.872C-34.681,-80.431 -30.209,-84.448 -27.015,-87.459C-25.828,-88.737 -24.367,-90.288 -22.633,-91.474L-2.646,-92.844L-2.556,-93.483C-3.833,-94.304 -6.206,-94.121 -7.666,-94.121L-7.393,-96.403C-2.007,-98.867 4.107,-99.506 9.856,-99.87C9.766,-94.943 10.04,-88.554 9.218,-83.717C1.917,-82.348 -11.591,-86.637 -20.078,-86.455L-34.498,-74.956C-35.502,-73.313 -34.863,-70.94 -34.498,-69.115C-35.958,-68.841 -37.875,-68.658 -40.339,-68.476M24.916,-2.4C24.916,-3.13 24.642,-6.142 25.007,-6.234C27.106,-6.597 30.757,-7.145 32.582,-9.61C33.495,-7.51 32.491,-5.777 30.757,-4.5C29.297,-3.495 26.375,-2.492 24.916,-2.4M18.336,0.076C16.511,-0.197 17.059,-3.666 19.158,-2.843C20.983,-2.297 20.161,0.533 18.336,0.076M-9.022,2.91C-11.396,1.907 -9.844,-0.741 -8.019,-0.101C-5.736,0.72 -7.015,3.824 -9.022,2.91M20.261,3.806C16.61,3.166 13.873,-1.031 13.873,-4.955C16.337,-5.321 19.622,-5.411 22.36,-5.685L22.36,3.897L20.261,3.806ZM-13.051,6.544C-13.051,4.627 -12.96,2.893 -13.051,0.52C-13.142,-1.123 -12.777,-2.492 -10.951,-2.674C-9.126,-2.857 -5.932,-3.039 -3.103,-3.221C-3.194,3.349 -5.75,6.544 -13.051,6.544M25.007,15.944L25.007,0.156C28.566,-0.392 30.482,-1.031 32.674,-2.857L32.674,11.29C31.853,14.21 28.657,14.94 25.007,15.944M25.463,21.42C25.28,20.69 25.189,19.139 25.28,18.317C28.019,17.769 30.574,17.04 32.947,15.032C33.769,16.126 33.951,17.679 32.947,18.682C30.666,20.325 28.932,20.964 25.463,21.42M4.058,32.941C2.507,32.302 -1.145,33.945 -1.965,31.116C-1.601,27.466 1.594,27.829 3.875,27.373C3.602,24.727 2.142,22.536 5.975,21.623C9.077,21.898 7.891,24.544 8.165,26.461C10.173,26.553 13.641,26.097 13.732,29.107C13.823,32.119 10.902,31.206 8.713,32.119C8.804,34.766 9.625,38.143 7.07,38.508C3.419,38.873 5.062,34.401 4.058,32.941M25.828,38.122L25.463,23.884C27.653,23.792 30.666,22.879 32.308,21.876L32.491,34.379L25.828,38.122ZM7.253,40.973C4.24,41.429 2.324,38.051 2.142,35.039C-1.965,35.223 -4.065,34.22 -4.339,30.659C-4.612,27.099 -0.688,25.731 1.411,25.366C0.225,20.438 4.97,18.338 8.804,20.163C9.808,21.166 10.354,22.992 10.264,24.818C13.366,25 15.648,25.731 15.739,29.29C16.104,32.302 13.275,33.579 10.902,33.579C10.902,37.139 10.264,40.515 7.253,40.973M82.504,47.066C79.767,42.685 78.124,37.483 78.032,32.371C79.584,30.821 82.14,28.813 85.06,27.718C85.698,32.919 85.698,40.86 84.604,45.972C84.238,47.614 83.326,47.521 82.504,47.066M35.594,48.526C35.138,48.434 34.316,48.708 33.859,47.705C35.867,46.609 42.166,44.784 45.45,43.142C48.919,41.591 51.2,40.038 54.394,37.848C54.668,37.301 54.485,36.479 53.3,36.752C50.379,38.577 48.006,39.582 44.902,41.134C40.341,43.233 36.963,44.511 32.582,45.787C31.305,46.062 29.936,45.697 29.661,45.058C30.118,44.784 29.479,44.511 31.03,43.781C32.947,42.776 38.24,41.042 41.891,39.125C45.45,37.301 48.28,35.748 51.2,33.558C51.475,32.828 51.108,32.371 50.104,32.737C42.986,37.027 37.51,39.308 29.57,42.229C28.475,42.595 26.924,42.867 26.193,42.501L26.193,40.585L36.78,35.019C39.975,33.468 42.438,31.916 45.725,29.451L53.847,22.332L53.847,21.146C48.189,22.059 42.074,23.792 35.594,21.146L35.594,20.325C38.697,19.503 42.074,19.047 45.085,18.226C50.196,16.857 54.942,14.484 60.601,13.206C66.807,12.293 74.655,12.201 81.501,11.473C83.326,15.032 84.421,19.322 84.694,25.346C72.557,30.274 64.342,44.327 50.014,46.244C53.391,44.601 56.22,42.595 57.862,41.408C57.954,40.768 57.589,40.585 56.95,40.585C51.84,43.324 48.645,45.606 43.808,46.884L35.594,48.526ZM26.468,61.576L26.284,45.697C27.106,45.879 27.471,45.606 27.928,46.974C28.201,47.705 29.844,47.978 31.305,48.617C32.125,49.804 33.222,49.895 34.133,50.076C34.042,51.721 34.133,56.193 34.133,58.018C34.133,60.298 27.928,61.668 26.468,61.576M-15.424,64.315C-15.971,63.493 -16.792,63.036 -17.797,62.217L-17.614,-3.495C-17.614,-5.411 -17.249,-6.69 -15.971,-6.782C-10.13,-7.329 -2.099,-8.15 4.563,-9.153C11.408,-10.158 19.713,-10.887 26.741,-11.892C27.288,-12.531 27.106,-13.17 26.375,-13.808L-17.614,-8.697C-18.801,-8.151 -19.896,-7.145 -19.896,-6.69C-19.896,-5.594 -20.078,-2.492 -20.078,-1.578C-20.078,20.234 -20.169,40.768 -20.353,61.303L-22.907,60.755C-23.272,40.221 -23.09,16.309 -23.09,-5.868C-23.09,-7.146 -23.272,-9.337 -22.907,-10.158C-22.542,-10.978 -20.353,-10.978 -20.353,-10.978C-5.11,-12.531 10.587,-14.721 25.92,-16.636C26.649,-16.911 26.559,-17.824 25.646,-18.372C10.587,-16.729 -7.301,-15.36 -21.903,-13.626C-22.451,-13.626 -24.642,-13.26 -25.372,-12.258C-26.102,-11.253 -26.011,-9.153 -26.011,-8.424C-26.011,14.301 -25.188,37.758 -25.736,60.755L-27.836,60.755C-27.927,37.301 -28.201,7.73 -28.201,-12.349C-28.201,-14.447 -27.471,-16.363 -24.367,-16.547C-5.476,-18.189 6.206,-18.736 21.447,-20.653C25.92,-20.653 29.844,-20.197 31.943,-16.911C33.586,-14.995 32.582,-11.344 29.661,-10.067C27.836,-9.245 25.92,-8.971 23.729,-8.697C11.773,-7.329 -0.183,-5.96 -12.138,-4.591C-13.872,-4.317 -14.785,-3.13 -15.241,-1.305L-15.424,64.315ZM19.593,65.311C17.585,64.124 19.137,61.203 21.327,62.3C23.152,63.12 21.875,66.406 19.593,65.311M26.649,66.869L26.559,64.497C29.479,64.133 32.491,63.036 34.864,61.12C35.503,62.764 34.316,64.133 33.586,64.681C32.491,65.684 28.109,66.869 26.649,66.869M16.337,67.966C16.154,63.036 17.066,59.295 23.638,57.471C23.911,57.56 24.095,66.869 24.095,67.053C21.812,67.6 18.801,67.692 16.337,67.966M-9.014,67.952C-11.204,66.858 -10.108,63.481 -7.554,64.303C-5.363,65.306 -6.642,68.775 -9.014,67.952M0.091,70.065C0,66.688 -1.277,62.217 -4.381,60.117C-6.479,58.565 -9.948,57.653 -12.595,57.927L-12.96,8.734C-5.658,8.826 -0.456,5.266 -0.821,-3.495L11.408,-4.864C11.317,1.159 15.881,6.452 22.451,6.452L23.82,54.732C15.789,57.014 13.233,61.394 13.781,68.514L0.091,70.065ZM-9.765,70.794C-10.951,70.794 -11.956,70.247 -12.595,68.786L-12.595,60.026C-9.948,60.026 -7.757,60.755 -5.841,62.217C-3.833,64.041 -2.373,66.413 -2.373,70.247C-4.745,70.521 -7.393,70.794 -9.765,70.794M-99.582,-35.471C-99.918,-90.515 -99.205,-146.521 -99.205,-201.815L155.334,-201.724L155.334,-64.643C155.334,-55.15 155.253,-43.573 155.243,-35.471L74.825,-35.471C73.197,-39.922 73.658,-42.285 76.207,-43.105L83.6,-68.658C77.119,-74.956 75.294,-87.368 79.858,-96.677C77.027,-95.765 74.564,-95.764 72.101,-95.399C72.191,-93.117 73.56,-87.824 71.096,-87.733C68.724,-87.641 69.179,-92.297 68.541,-95.125C65.803,-95.125 62.426,-95.034 59.961,-95.399C60.144,-93.392 61.514,-87.277 58.775,-87.368C56.037,-87.368 57.315,-92.387 56.584,-95.399C51.292,-95.947 45.725,-96.768 40.522,-98.046C38.788,-94.578 37.693,-85.725 37.328,-80.797L29.936,-88.372C28.749,-86.546 26.649,-82.44 25.007,-80.978C23.911,-83.9 23.182,-85.178 21.539,-87.094C20.535,-84.356 20.535,-82.074 20.626,-79.244C32.854,-77.785 44.354,-76.324 56.037,-81.253C55.125,-81.618 53.3,-84.082 54.029,-84.264C54.759,-84.448 55.49,-83.809 56.22,-83.625C62.608,-78.15 67.536,-73.039 73.651,-68.203C76.479,-64.643 76.207,-57.615 73.469,-50.77C71.282,-45.304 67.732,-41.656 67.356,-35.471L58.984,-35.471C57.531,-40.428 58.722,-42.566 61.33,-43.196C62.426,-48.853 65.347,-57.524 68.905,-63.456C67.81,-65.281 66.533,-68.567 66.076,-71.304L58.045,-79.245C56.22,-78.242 53.756,-77.42 52.021,-76.872L59.323,-68.294C65.412,-57.114 52.678,-45.393 50.858,-35.471L-99.582,-35.471ZM-68.631,50.717C-86.152,29.656 -98.61,1.732 -99.518,-30.477L146.937,-30.477C144.899,-25.702 140.844,-20.599 136.168,-17.003C137.902,-17.003 143.104,-18.736 143.561,-17.003C133.521,-13.899 122.295,-9.427 113.809,-3.677C115.907,-3.952 119.558,-4.681 120.836,-3.677C118.828,-2.674 113.809,-1.67 110.248,-0.301C106.781,0.976 102.218,3.533 98.933,4.992C101.122,8.643 103.221,13.206 103.769,16.401C103.586,19.778 103.495,21.329 101.67,23.611C101.396,18.774 99.662,10.195 95.737,6.544C91.995,7.639 87.798,8.369 83.782,9.008C88.254,20.69 89.896,36.661 87.25,45.879C100.302,40.585 114.629,33.375 126.95,26.166C128.045,25.618 129.231,24.615 130.875,23.611C127.498,24.432 123.664,25.071 119.923,25.071C120.196,24.249 121.656,23.792 122.752,23.245C128.137,21.512 130.875,21.694 135.986,19.595C137.72,18.955 138.176,18.682 139.454,17.587C145.007,6.572 150.377,-14.52 150.405,-30.477L155.209,-30.477C154.609,0.733 145.698,22.714 129.05,45.972C80.771,109.765 -18.161,110.679 -68.631,50.717M98.273,-249.715C99.229,-249.715 100.088,-249.238 100.564,-248.57C101.138,-247.806 101.424,-246.946 101.424,-246.183C101.424,-245.324 101.138,-244.465 100.66,-243.797C100.088,-243.033 99.229,-242.651 98.273,-242.651C97.128,-242.652 96.269,-243.032 95.792,-243.701C95.219,-244.369 94.932,-245.229 94.932,-246.087C94.932,-246.947 95.219,-247.806 95.696,-248.474C96.269,-249.238 97.128,-249.62 98.273,-249.62L98.273,-249.715ZM73.166,-245.324C73.166,-245.706 73.358,-246.278 73.358,-246.756C73.454,-247.233 73.644,-247.806 73.644,-248.283C73.644,-248.856 73.739,-249.428 73.739,-249.905C73.739,-250.383 73.835,-250.956 73.835,-251.339L73.835,-252.293C73.835,-252.579 73.739,-252.96 73.739,-253.248C73.739,-253.916 73.549,-254.679 73.549,-255.253C73.454,-255.824 73.166,-256.492 72.976,-257.065C72.499,-258.689 71.544,-260.025 70.207,-260.98C68.871,-261.935 67.248,-262.411 65.721,-262.411L64.862,-262.411C64.289,-262.411 63.716,-262.221 63.143,-262.03C62.57,-261.84 61.997,-261.361 61.521,-260.98C60.374,-260.025 59.516,-258.784 58.943,-257.447C58.37,-256.111 57.988,-254.583 57.988,-253.056L57.988,-252.674C57.988,-250.383 58.656,-248.188 59.993,-246.278C61.329,-244.369 63.334,-243.414 66.007,-243.414C66.962,-243.415 68.202,-243.605 69.349,-243.797C70.494,-244.082 71.83,-244.656 73.071,-245.229L73.166,-245.324ZM56.365,-227.568L56.46,-227.663C56.461,-227.663 56.556,-227.759 56.556,-227.759C60.279,-229.477 63.524,-231.482 66.007,-233.582C68.585,-235.682 70.78,-238.832 72.499,-242.651C70.971,-241.887 69.349,-241.315 68.012,-241.123C66.58,-240.837 65.243,-240.646 64.098,-240.646C60.47,-240.646 57.702,-241.792 55.888,-244.082C54.074,-246.374 53.12,-249.142 53.12,-252.006L53.12,-252.77C53.311,-255.824 54.551,-258.784 56.651,-261.266C58.848,-263.749 62.093,-265.085 66.293,-265.085C70.207,-265.085 73.263,-263.748 75.362,-261.075C77.463,-258.402 78.607,-255.061 78.607,-251.243C78.607,-245.133 76.508,-239.691 72.308,-235.109C68.106,-230.432 63.238,-227.09 57.702,-225.18L56.365,-227.568ZM51.21,-264.607L51.21,-262.317L48.347,-257.162L32.977,-227.185L32.977,-226.135L28.395,-226.135L30.877,-230.622L46.246,-260.406L29.444,-260.406L28.585,-255.444L25.912,-255.444L25.912,-264.607L51.21,-264.607ZM22.38,-264.607L22.284,-260.406L6.151,-260.406L6.151,-249.428C7.106,-249.62 8.251,-249.81 9.206,-249.905C10.16,-250.002 11.21,-250.097 11.975,-250.097C15.793,-250.097 18.848,-249.046 20.757,-246.946C22.762,-244.846 23.812,-242.364 23.812,-239.786L23.812,-239.596C23.812,-235.587 22.284,-232.531 19.421,-230.622C16.558,-228.617 13.216,-227.568 9.684,-227.568L7.965,-227.568C7.297,-227.568 6.533,-227.759 5.865,-227.854C4.433,-228.045 3.001,-228.617 1.855,-229.286C0.71,-229.954 0.042,-231.099 0.042,-232.627C0.042,-233.391 0.424,-234.154 0.996,-234.536C1.569,-234.918 2.428,-235.205 3.383,-235.205L4.528,-235.3L6.533,-230.622C7.106,-230.432 7.774,-230.145 8.347,-230.049C8.92,-229.859 9.588,-229.763 10.065,-229.763C12.738,-229.763 14.934,-230.718 16.461,-232.437C17.988,-234.25 18.848,-236.445 18.848,-238.927L18.848,-239.596C18.848,-239.787 18.752,-240.168 18.752,-240.36C18.37,-242.746 17.226,-244.465 15.315,-245.229C13.406,-246.088 11.21,-246.66 8.92,-246.66C8.729,-246.66 8.442,-246.756 8.251,-246.756L5.101,-246.756C4.338,-246.756 3.479,-246.565 2.811,-246.565L2.811,-264.607L22.38,-264.607ZM-8.646,-265.371L-8.741,-261.171L-8.741,-231.195L-7.977,-230.432L-2.059,-230.24L-2.059,-227.95L-20.483,-227.95L-20.483,-230.24L-14.183,-230.622L-13.514,-231.482L-13.514,-260.98L-22.106,-259.357L-22.106,-261.648L-10.173,-265.277L-8.646,-265.371ZM-41.485,-249.715C-40.53,-249.715 -39.671,-249.238 -39.193,-248.57C-38.621,-247.806 -38.335,-246.946 -38.335,-246.183C-38.335,-245.324 -38.621,-244.465 -39.098,-243.797C-39.671,-243.033 -40.53,-242.651 -41.485,-242.651C-42.631,-242.652 -43.489,-243.032 -43.967,-243.701C-44.539,-244.369 -44.826,-245.229 -44.826,-246.087C-44.826,-246.947 -44.539,-247.806 -44.063,-248.474C-43.489,-249.238 -42.631,-249.62 -41.485,-249.62L-41.485,-249.715ZM230.013,-77.881C230.108,-78.836 230.586,-79.695 231.254,-80.077C231.922,-80.554 232.781,-80.744 233.545,-80.649C234.31,-80.649 235.168,-80.267 235.74,-79.791C236.409,-79.218 236.695,-78.358 236.695,-77.308C236.6,-76.353 236.123,-75.494 235.454,-75.112C234.787,-74.636 234.022,-74.444 233.259,-74.539C232.495,-74.54 231.636,-74.826 230.967,-75.304C230.396,-75.971 230.013,-76.831 230.108,-77.786L230.013,-77.881ZM244.237,-30.341L235.264,-31.677L235.836,-34.731L241.755,-34.35L242.806,-35.019C243.282,-35.686 243.76,-36.45 244.046,-37.405C244.428,-38.359 244.618,-39.409 244.811,-40.364C245.097,-42.369 244.905,-44.278 244.237,-46.091C243.569,-47.81 242.137,-48.955 239.846,-49.242C238.128,-49.528 236.504,-49.147 235.359,-48.096C234.214,-46.856 233.067,-45.519 232.209,-43.991C231.826,-43.419 231.35,-42.655 231.063,-42.083C230.776,-41.414 230.396,-40.841 230.108,-40.268C229.059,-38.741 227.626,-37.214 226.003,-35.972C224.477,-34.731 222.472,-34.255 220.371,-34.541C217.221,-35.113 214.93,-36.736 213.593,-39.409C212.353,-42.177 211.875,-45.041 212.352,-47.81C212.447,-48.192 212.447,-48.573 212.543,-48.955C212.639,-49.338 212.734,-49.815 212.829,-50.197C213.116,-51.247 213.593,-52.392 213.976,-53.443C214.262,-54.589 214.834,-55.543 215.216,-56.497L223.14,-55.256L222.663,-52.583L217.794,-52.583C217.03,-52.01 216.266,-51.247 215.789,-50.578C215.312,-49.815 214.93,-48.86 214.834,-47.906L214.739,-47.715L214.739,-47.524C214.548,-45.805 214.93,-44.088 215.789,-42.465C216.647,-40.841 218.08,-39.886 219.895,-39.6C221.326,-39.314 222.663,-39.6 223.521,-40.364C224.477,-41.128 225.431,-41.986 226.194,-43.037C226.29,-43.323 226.576,-43.61 226.672,-43.896C226.958,-44.182 227.245,-44.564 227.341,-44.755C227.626,-45.137 227.817,-45.71 228.104,-45.996C228.391,-46.379 228.677,-46.856 228.867,-47.237C230.108,-49.147 231.54,-50.864 233.067,-52.392C234.69,-53.824 236.695,-54.492 239.178,-54.111C242.328,-53.633 244.618,-52.009 245.765,-49.528C247.005,-46.856 247.578,-44.088 247.483,-41.319C247.387,-40.938 247.291,-40.46 247.291,-40.078C247.195,-39.696 247.195,-39.218 247.195,-38.837C247.101,-38.455 247.101,-38.072 247.005,-37.787C246.91,-37.405 246.813,-37.023 246.72,-36.641C246.528,-35.59 246.146,-34.445 245.86,-33.395C245.479,-32.25 244.905,-31.104 244.333,-30.245L244.237,-30.341ZM237.841,-11.916L238.414,-15.067L237.841,-15.925L237.746,-15.925L210.157,-22.799L209.298,-22.322L208.343,-19.172L206.243,-19.745L209.393,-32.344L211.492,-31.772L210.92,-28.527L211.302,-27.572L211.589,-27.477L238.986,-20.603L239.941,-21.272L241.087,-24.422L243.092,-23.945L239.941,-11.343L237.841,-11.916ZM229.154,15.004L220.658,11.663L221.804,8.799L227.531,10.422L228.677,10.135C229.345,9.564 229.917,8.894 230.491,8.035C231.063,7.272 231.54,6.221 231.922,5.363C232.686,3.453 232.876,1.543 232.686,-0.365C232.399,-2.178 231.158,-3.611 229.059,-4.47C227.437,-5.139 225.812,-5.043 224.477,-4.28C223.044,-3.42 221.612,-2.371 220.467,-1.033C219.989,-0.556 219.32,0.017 218.844,0.589C218.462,1.162 217.89,1.639 217.507,2.117C216.171,3.359 214.356,4.504 212.639,5.363C210.825,6.317 208.725,6.221 206.815,5.458C203.761,4.312 201.946,2.212 201.278,-0.748C200.61,-3.707 200.896,-6.57 201.946,-9.244C202.138,-9.625 202.233,-9.912 202.424,-10.294C202.52,-10.674 202.806,-11.057 202.901,-11.439C203.475,-12.489 204.143,-13.443 204.715,-14.398C205.384,-15.353 206.147,-16.213 206.624,-17.071L214.07,-14.016L213.116,-11.534L208.247,-12.68C207.389,-12.299 206.529,-11.725 205.86,-11.153C205.192,-10.484 204.715,-9.72 204.334,-8.766L204.238,-8.575L204.238,-8.48C203.665,-6.856 203.665,-4.947 204.047,-3.23C204.619,-1.51 205.67,-0.174 207.483,0.494C208.82,1.067 210.157,1.067 211.207,0.589C212.162,0.017 213.402,-0.652 214.356,-1.415C214.548,-1.702 214.834,-1.988 215.025,-2.178C215.312,-2.371 215.693,-2.656 215.885,-2.942C216.171,-3.23 216.553,-3.611 216.935,-3.897C217.221,-4.183 217.603,-4.661 217.89,-4.947C219.512,-6.57 221.326,-7.907 223.14,-9.052C225.049,-10.102 227.149,-10.294 229.44,-9.339C232.495,-8.097 234.309,-6.092 234.881,-3.324C235.454,-0.556 235.454,2.307 234.69,4.981C234.596,5.363 234.404,5.84 234.214,6.126C234.118,6.509 234.022,6.985 233.831,7.367C233.735,7.655 233.545,8.035 233.45,8.323C233.354,8.704 233.067,8.99 232.973,9.371C232.495,10.422 231.922,11.377 231.254,12.427C230.681,13.381 229.917,14.432 229.153,15.101L229.154,15.004ZM209.774,50.23L210.92,47.271L210.634,46.126L185.909,32.379L184.955,32.856L183.142,35.624L181.231,34.479L185.909,26.078L186.959,26.651L218.749,24.074L197.46,12.332L196.313,12.617L194.405,15.291L192.496,14.241L197.746,4.695L199.656,5.745L198.606,8.513L198.797,9.849L201.47,11.377L226.194,25.029L224.572,28.083L223.14,28.179L189.154,31.042L211.971,43.643L213.212,43.263L215.121,40.78L216.935,41.734L211.684,51.281L209.774,50.23ZM189.918,76.578L191.541,74.097L191.541,72.951L191.446,72.856L168.726,55.768L167.676,56.054L165.767,58.249L164.048,56.912L178.94,37.152L184.955,41.639L183.045,44.121L179.322,42.021L178.081,42.117L171.017,51.662L181.518,59.586L186.577,52.808L186.291,51.662L183.713,48.99L185.146,47.08L194.31,53.953L192.878,55.863L189.441,54.05L188.391,54.24L183.332,60.922L194.883,69.61L203.283,58.632L202.997,57.486L199.465,53.667L200.992,51.567L207.77,56.626L191.732,77.82L189.918,76.578ZM162.234,104.932L164.143,102.449L164.143,101.207L144.191,81.257L143.142,81.351L140.659,83.547L139.132,81.925L145.91,75.147L146.864,76.007L178.081,82.306L160.897,65.122L159.656,65.122L157.079,67.127L155.551,65.504L163.188,57.867L164.812,59.395L162.998,61.782L162.807,63.117L165.003,65.314L184.955,85.265L182.567,87.652L181.137,87.461L147.724,80.779L166.147,99.203L167.39,99.203L169.967,97.294L171.494,98.726L163.762,106.458L162.234,104.932ZM137.223,122.115L139.514,120.205L139.896,119.06L139.801,118.963L123.476,95.67L122.33,95.67L119.753,97.294L118.512,95.48L128.727,88.32L129.968,90.135L127.771,91.948L127.391,92.998L127.867,93.762L144.191,117.056L153.738,110.277L153.929,109.132L150.97,103.595L153.261,102.067L158.701,109.801L138.368,123.929L137.223,122.115ZM120.708,131.948L123.38,130.134L123.571,129.18L123.571,129.083L109.348,104.453L108.393,104.167L105.528,105.695L104.384,103.786L115.648,97.294L116.698,99.203L113.93,101.017L113.548,101.972L113.644,102.259L127.771,126.696L128.917,126.984L131.973,125.552L133.022,127.365L121.758,133.857L120.708,131.948ZM82.999,112.473L83.859,114.478L80.994,115.813L80.709,116.577L99.229,137.484L98.561,109.801L97.796,109.322L94.646,110.277L93.882,108.271L103.619,104.55L104.384,106.555L101.614,108.271L101.52,112.473L101.997,142.448L98.655,143.784L95.887,140.73L75.744,118.201L72.689,118.774L71.926,116.769L82.999,112.473ZM32.118,155.527L31.449,146.457L34.6,146.267L35.555,152.091L36.413,153.044C37.177,153.33 38.036,153.617 38.99,153.713C39.945,153.808 41.091,153.808 42.046,153.808C44.051,153.617 45.96,153.044 47.487,151.995C49.015,150.849 49.777,149.227 49.587,146.935C49.492,145.218 48.728,143.689 47.393,142.829C46.055,141.971 44.433,141.206 42.81,140.73C42.046,140.444 41.282,140.157 40.613,139.967C39.945,139.87 39.277,139.584 38.705,139.489C36.892,138.821 35.077,137.676 33.55,136.435C31.927,135.193 31.067,133.378 30.877,131.279C30.686,128.034 31.735,125.455 34.122,123.641C36.509,121.732 39.182,120.683 42.046,120.492C42.429,120.396 42.81,120.396 43.191,120.396L44.433,120.396C45.578,120.396 46.723,120.586 47.868,120.683C49.015,120.872 50.16,121.159 51.115,121.255L51.688,129.274L49.015,129.464L47.868,124.692C47.201,124.024 46.246,123.546 45.482,123.164C44.623,122.877 43.669,122.782 42.714,122.782L42.522,122.782L42.332,122.877C40.613,123.07 38.896,123.832 37.559,124.979C36.222,126.22 35.555,127.843 35.649,129.751C35.841,131.183 36.317,132.328 37.272,133.093C38.132,133.762 39.277,134.524 40.423,135.001C40.805,135.098 41.187,135.288 41.474,135.384C41.76,135.479 42.141,135.67 42.428,135.765C42.81,135.956 43.382,136.053 43.764,136.242C44.241,136.435 44.814,136.529 45.196,136.721C47.297,137.389 49.302,138.439 51.115,139.681C52.929,140.825 53.979,142.734 54.17,145.218C54.456,148.367 53.311,150.945 51.21,152.662C48.919,154.477 46.342,155.718 43.573,156.195L42.332,156.195C41.95,156.289 41.474,156.386 41.091,156.386C40.71,156.481 40.327,156.481 40.041,156.481L38.896,156.481C37.751,156.576 36.604,156.481 35.459,156.289C34.313,156.195 33.072,155.909 32.022,155.622L32.118,155.527ZM3.956,139.775L14.266,140.538L9.97,125.742L3.956,139.775ZM12.738,120.396L14.074,124.598L23.049,153.713L26.008,154.572L25.816,156.672L14.17,155.813L14.361,153.713L17.512,153.713L17.894,152.949L14.934,142.926L2.715,142.066L-1.677,151.613L-1.199,152.375L2.142,152.854L2.046,154.953L-8.072,154.284L-7.882,152.185L-4.923,151.708L-3.014,147.889L9.302,120.205L12.738,120.396ZM-31.271,111.232L-4.254,119.536L-6.641,127.175L-9.313,126.315L-8.551,121.637L-9.123,120.492L-16.664,118.201L-16.951,119.156L-25.16,146.171L-24.588,147.125L-21.437,148.462L-22.011,150.467L-34.898,146.457L-34.229,144.452L-30.889,145.218L-29.838,144.739L-29.552,143.88L-21.342,116.769L-28.692,114.573L-29.742,115.146L-31.938,119.442L-34.612,118.582L-32.32,110.945L-31.271,111.232ZM-59.719,134.142L-56.759,135.384L-55.805,134.907L-55.709,134.907L-43.776,109.035L-44.063,108.177L-46.927,106.649L-45.972,104.645L-34.229,110.181L-35.185,112.091L-38.239,110.85L-39.289,111.137L-39.48,111.422L-51.413,137.007L-50.936,138.056L-47.977,139.775L-48.932,141.589L-60.673,136.147L-59.719,134.142ZM-85.303,121.351L-81.006,113.428L-78.238,114.953L-80.625,120.396L-80.434,121.637C-79.861,122.306 -79.289,122.973 -78.524,123.546C-77.856,124.216 -76.807,124.884 -76.043,125.36C-74.229,126.315 -72.319,126.792 -70.506,126.792C-68.597,126.696 -67.068,125.742 -65.924,123.737C-65.159,122.21 -64.969,120.586 -65.542,119.06C-66.305,117.627 -67.164,116.005 -68.311,114.764C-68.787,114.191 -69.265,113.523 -69.742,112.95C-70.219,112.473 -70.697,111.9 -71.078,111.518C-72.225,109.991 -73.083,108.08 -73.751,106.172C-74.42,104.264 -74.133,102.259 -73.083,100.444C-71.556,97.58 -69.265,95.957 -66.21,95.67C-63.251,95.386 -60.387,95.957 -57.904,97.389C-57.618,97.58 -57.236,97.771 -56.95,97.962C-56.568,98.154 -56.186,98.439 -55.899,98.63C-54.945,99.3 -54.086,100.062 -53.131,100.826C-52.272,101.494 -51.509,102.353 -50.745,103.022L-54.659,109.991L-56.95,108.654L-55.327,104.072C-55.518,103.117 -55.995,102.259 -56.473,101.494C-57.045,100.826 -57.809,100.158 -58.669,99.681L-58.859,99.584L-58.955,99.49C-60.577,98.726 -62.392,98.534 -64.109,98.726C-65.924,99.013 -67.355,99.968 -68.215,101.685C-68.978,102.928 -69.169,104.264 -68.787,105.313C-68.405,106.458 -67.833,107.7 -67.164,108.749C-66.974,108.941 -66.688,109.322 -66.496,109.514C-66.305,109.801 -66.114,110.181 -65.924,110.372C-65.637,110.754 -65.255,111.232 -64.969,111.518C-64.778,111.9 -64.396,112.377 -64.109,112.76C-62.678,114.478 -61.628,116.388 -60.768,118.392C-59.909,120.396 -60.005,122.592 -61.15,124.692C-62.773,127.556 -65.064,129.083 -67.737,129.369C-70.602,129.656 -73.465,129.274 -76.043,128.129C-76.425,127.938 -76.807,127.746 -77.093,127.556C-77.475,127.365 -77.952,127.175 -78.238,126.984C-78.62,126.792 -78.906,126.696 -79.192,126.505C-79.479,126.315 -79.766,126.029 -80.147,125.838C-81.102,125.36 -82.057,124.598 -83.012,123.832C-83.87,123.164 -84.729,122.21 -85.398,121.446L-85.303,121.351ZM-98.667,90.039L-98.572,90.23C-98.477,90.326 -98.285,90.42 -98.19,90.42C-97.903,90.706 -97.521,91.088 -97.235,91.281C-96.854,91.567 -96.472,91.757 -96.186,92.043C-94.563,93.38 -92.652,94.24 -90.936,94.812C-89.121,95.288 -87.116,94.62 -85.303,92.711L-85.017,92.33C-84.253,91.472 -83.775,90.326 -83.394,89.275C-83.012,88.034 -82.916,86.792 -83.202,85.553C-83.488,84.884 -83.87,84.024 -84.538,83.357C-85.111,82.688 -85.685,81.925 -86.353,81.448C-86.448,81.351 -86.544,81.257 -86.639,81.159C-86.83,81.065 -86.925,80.971 -87.021,80.874L-89.503,78.869L-98.667,90.039ZM-84.348,80.015C-81.961,81.925 -80.052,84.217 -78.811,86.698C-77.57,89.083 -78.238,91.948 -80.625,94.908C-82.248,97.009 -84.253,98.058 -86.162,98.058C-88.262,97.962 -90.458,97.485 -92.558,96.53C-91.03,98.726 -90.362,100.539 -90.458,101.781C-90.648,103.117 -91.03,104.55 -91.698,105.79C-92.176,106.458 -92.558,107.412 -92.939,108.177C-93.321,109.035 -93.703,110.181 -93.799,111.232C-93.895,112.568 -93.703,113.809 -92.939,114.573C-92.176,115.528 -91.412,116.388 -90.458,117.151L-90.362,117.245L-90.267,117.342L-91.412,118.774C-91.603,118.679 -91.985,118.487 -92.08,118.392C-92.367,118.201 -92.652,118.01 -92.844,117.818C-93.131,117.533 -93.607,117.245 -93.989,117.056C-94.276,116.769 -94.753,116.482 -95.04,116.291C-96.376,115.146 -97.331,113.904 -97.809,112.568C-98.285,111.137 -98.095,109.227 -97.235,107.031C-96.758,106.172 -96.376,105.218 -96.09,104.453C-95.708,103.786 -95.517,102.831 -95.326,102.259C-94.563,100.444 -94.371,98.726 -94.753,97.676C-95.04,96.625 -96.376,95.002 -98.572,93.284L-100.1,91.852L-107.928,101.494L-107.736,102.64L-105.637,104.74L-106.973,106.363L-116.52,98.63L-115.183,97.009L-112.796,98.534L-111.555,98.63L-111.555,98.534L-93.607,76.388L-93.895,75.242L-95.994,73.332L-94.658,71.614L-84.348,80.015ZM-137.33,72.856L-135.134,74.86L-133.988,74.955L-133.894,74.955L-113.083,55.481L-113.178,54.431L-114.992,52.235L-113.368,50.707L-96.567,68.75L-102.104,73.906L-104.108,71.709L-101.436,68.369L-101.341,67.127L-109.454,58.441L-119.096,67.51L-113.368,73.618L-112.223,73.618L-109.073,71.423L-107.45,73.238L-115.851,81.065L-117.474,79.25L-115.087,76.292L-114.992,75.147L-120.72,69.036L-131.315,78.966L-121.865,89.083L-120.72,88.989L-116.424,86.125L-114.609,88.13L-120.72,93.857L-138.857,74.383L-137.33,72.856ZM-126.161,32.57L-127.975,33.716L-129.885,31.328L-130.743,31.139L-147.354,53.573L-120.338,47.176L-120.051,46.317L-121.675,43.547L-119.86,42.307L-114.133,50.993L-116.042,52.235L-118.237,49.848L-122.343,50.707L-151.649,57.39L-153.559,54.335L-151.173,51.091L-133.321,26.651L-134.562,23.692L-132.652,22.546L-126.161,32.57ZM-168.833,23.405L-167.114,26.173L-166.16,26.46L-166.064,26.365L-140.767,13.478L-140.48,12.523L-141.722,9.564L-139.812,8.609L-133.894,20.16L-135.803,21.115L-137.521,18.25L-138.476,17.773L-138.762,17.963L-163.964,30.757L-164.251,31.902L-163.01,34.955L-164.823,35.911L-170.742,24.36L-168.833,23.405ZM-182.771,-13.921L-181.435,-11.153L-180.288,-10.58L-153.559,-19.745L-153.272,-20.795L-154.132,-23.945L-152.031,-24.613L-148.881,-15.544L-150.122,-15.163L-169.405,10.232L-146.399,2.307L-145.922,1.162L-146.59,-1.988L-144.49,-2.752L-140.958,7.559L-143.058,8.323L-144.395,5.65L-145.539,4.885L-148.404,5.935L-175.134,15.101L-176.184,11.854L-175.42,10.708L-154.8,-16.402L-179.43,-8.002L-179.906,-6.761L-179.334,-3.611L-181.339,-2.942L-184.871,-13.253L-182.771,-13.921ZM-157.187,-47.047L-159.382,-46.665L-160.241,-49.719L-161.101,-50.387L-179.524,-46.474C-180.002,-46.379 -180.575,-46.283 -180.957,-46.187C-181.435,-46.091 -181.911,-45.805 -182.293,-45.805C-183.057,-45.615 -183.82,-45.233 -184.394,-44.945C-185.062,-44.564 -185.73,-43.991 -186.207,-43.419C-187.066,-42.369 -187.639,-41.128 -187.83,-39.696C-188.021,-38.264 -188.021,-36.832 -187.734,-35.305C-187.448,-33.967 -186.876,-32.536 -186.112,-31.294C-185.348,-30.053 -184.298,-29.195 -183.057,-28.622C-182.389,-28.24 -181.625,-28.049 -180.861,-28.049C-180.098,-27.954 -179.334,-27.858 -178.57,-28.049C-178.188,-28.145 -177.615,-28.145 -177.233,-28.24C-176.756,-28.335 -176.184,-28.431 -175.706,-28.527L-157.664,-32.344L-156.995,-33.395L-157.187,-36.45L-155.086,-36.927L-152.795,-26.236L-154.991,-25.854L-155.945,-28.812L-156.995,-29.576L-175.516,-25.662C-176.088,-25.568 -176.661,-25.376 -177.138,-25.28C-177.615,-25.185 -178.283,-25.185 -178.761,-25.09C-179.715,-24.899 -180.861,-24.994 -181.815,-25.09C-182.866,-25.185 -184.012,-25.472 -184.966,-25.949C-186.112,-26.617 -187.258,-27.667 -188.021,-28.812C-188.88,-30.15 -189.549,-31.581 -190.026,-32.918C-190.121,-33.395 -190.312,-33.873 -190.407,-34.255C-190.503,-34.731 -190.694,-35.305 -190.79,-35.686C-190.885,-36.069 -190.98,-36.641 -191.075,-37.023C-191.172,-37.405 -191.172,-38.072 -191.267,-38.55C-191.362,-40.078 -191.267,-41.605 -191.075,-43.037C-190.79,-44.469 -190.217,-45.805 -189.453,-46.95C-188.689,-47.81 -187.925,-48.573 -186.971,-48.955C-186.112,-49.433 -185.062,-50.006 -184.202,-50.292C-183.63,-50.387 -183.057,-50.483 -182.58,-50.578C-182.007,-50.674 -181.435,-50.961 -181.052,-51.056L-162.055,-55.066L-161.578,-56.02L-161.96,-58.98L-159.859,-59.457L-157.187,-47.047ZM-174.561,-78.168C-174.561,-77.213 -174.942,-76.353 -175.516,-75.877C-176.184,-75.304 -177.043,-75.017 -177.807,-75.017C-178.57,-74.922 -179.43,-75.208 -180.098,-75.59C-180.766,-76.067 -181.243,-76.926 -181.243,-77.976C-181.339,-78.932 -180.957,-79.791 -180.384,-80.267C-179.715,-80.84 -178.952,-81.127 -178.188,-81.127C-177.425,-81.222 -176.565,-81.031 -175.897,-80.649C-175.229,-80.077 -174.752,-79.217 -174.752,-78.262L-174.561,-78.168ZM215.598,-121.603L224.667,-122.271L224.857,-119.121L219.034,-118.167L218.08,-117.307C217.794,-116.544 217.507,-115.684 217.411,-114.73C217.316,-113.775 217.316,-112.63 217.316,-111.674C217.507,-109.67 218.08,-107.76 219.13,-106.234C220.275,-104.707 221.897,-103.942 224.188,-104.134C225.908,-104.229 227.436,-104.992 228.295,-106.329C229.154,-107.666 229.917,-109.287 230.396,-110.911C230.681,-111.674 230.967,-112.439 231.158,-113.108C231.254,-113.775 231.54,-114.443 231.636,-115.017C232.304,-116.83 233.45,-118.645 234.69,-120.172C235.932,-121.794 237.745,-122.652 239.846,-122.844C243.092,-123.035 245.669,-121.985 247.483,-119.598C249.392,-117.212 250.441,-114.539 250.633,-111.674C250.729,-111.293 250.729,-110.911 250.729,-110.529L250.729,-109.287C250.729,-108.143 250.537,-106.997 250.441,-105.851C250.252,-104.707 249.964,-103.561 249.869,-102.606L241.851,-102.034L241.66,-104.707L246.432,-105.851C247.101,-106.52 247.578,-107.475 247.96,-108.238C248.246,-109.098 248.342,-110.052 248.342,-111.007L248.342,-111.198L248.246,-111.389C248.056,-113.108 247.291,-114.825 246.146,-116.162C244.905,-117.499 243.282,-118.167 241.373,-118.071C239.941,-117.88 238.796,-117.403 238.032,-116.448C237.363,-115.589 236.6,-114.443 236.123,-113.298C236.028,-112.916 235.836,-112.534 235.74,-112.248C235.645,-111.961 235.454,-111.58 235.359,-111.293C235.168,-110.911 235.072,-110.339 234.881,-109.957C234.69,-109.48 234.595,-108.906 234.404,-108.525C233.735,-106.425 232.686,-104.42 231.445,-102.606C230.3,-100.793 228.391,-99.742 225.908,-99.551C222.758,-99.265 220.18,-100.41 218.462,-102.511C216.647,-104.801 215.407,-107.379 214.93,-110.148L214.93,-111.389C214.834,-111.77 214.739,-112.248 214.739,-112.63C214.644,-113.012 214.644,-113.393 214.644,-113.679L214.644,-114.825C214.548,-115.97 214.644,-117.116 214.834,-118.262C214.93,-119.408 215.216,-120.649 215.502,-121.698L215.598,-121.603ZM224.477,-148.905L226.672,-138.787L239.655,-146.902L224.477,-148.905ZM245.574,-145.755L241.946,-143.273L216.457,-126.662L216.457,-123.608L214.356,-123.226L211.971,-134.586L213.976,-135.064L214.93,-132.009L215.694,-131.914L224.572,-137.45L222.089,-149.478L211.684,-151.007L211.017,-150.433L211.492,-146.996L209.393,-146.519L207.293,-156.447L209.393,-156.925L210.634,-154.157L214.834,-153.392L244.905,-149.096L245.574,-145.755ZM229.727,-196.542L238.892,-169.812L231.35,-167.235L230.396,-169.907L234.69,-172.103L235.264,-173.249L232.686,-180.6L231.826,-180.313L205.097,-171.149L204.619,-170.099L205.479,-166.757L203.475,-165.993L199.083,-178.785L201.087,-179.454L202.52,-176.304L203.475,-175.731L204.334,-176.017L231.158,-185.277L228.581,-192.532L227.531,-193.106L222.758,-192.246L221.804,-194.919L229.345,-197.591L229.727,-196.542ZM184.859,-212.389L186.291,-209.907L187.436,-209.429L187.531,-209.525L212.829,-222.413L213.021,-223.463L211.875,-226.135L213.879,-227.09L225.049,-205.038L218.366,-201.697L217.03,-204.37L220.562,-206.852L220.944,-207.998L215.598,-218.499L203.854,-212.58L207.675,-205.038L208.725,-204.752L212.353,-205.993L213.402,-203.798L203.188,-198.642L202.138,-200.742L205.288,-203.034L205.574,-203.988L201.756,-211.53L188.868,-204.943L195.169,-192.628L196.219,-192.341L201.183,-193.869L202.424,-191.483L194.978,-187.664L182.949,-211.338L184.859,-212.389ZM192.019,-256.97L209.393,-234.727L203.092,-229.763L201.374,-232.055L204.715,-235.491L204.811,-236.733L200.037,-242.938L199.274,-242.27L177.031,-224.895L176.935,-223.749L178.845,-220.886L177.126,-219.548L168.917,-230.145L170.539,-231.482L172.83,-228.904L173.976,-228.713L174.645,-229.286L196.982,-246.756L192.304,-252.865L191.063,-252.961L186.864,-250.67L185.051,-252.865L191.351,-257.83L192.019,-256.97ZM154.884,-248.951L157.175,-246.66L158.225,-246.756L158.32,-246.756L179.131,-266.135L179.131,-267.089L177.031,-269.667L178.653,-271.099L187.531,-261.648L185.909,-260.121L183.522,-262.411L182.472,-262.603L182.187,-262.411L161.566,-243.128L161.566,-241.983L163.665,-239.405L162.139,-237.974L153.261,-247.423L154.884,-248.951ZM136.077,-264.32L141.9,-271.194L144.287,-269.191L140.851,-264.32L140.851,-263.08C141.137,-262.317 141.614,-261.553 142.187,-260.788C142.76,-260.025 143.619,-259.166 144.287,-258.497C145.814,-257.257 147.532,-256.302 149.442,-256.015C151.256,-255.634 152.974,-256.302 154.501,-258.02C155.646,-259.357 156.124,-260.884 155.838,-262.411C155.456,-264.035 154.883,-265.753 154.024,-267.28C153.738,-267.948 153.451,-268.712 153.069,-269.285C152.687,-269.858 152.307,-270.526 152.019,-271.099C151.256,-272.722 150.777,-274.822 150.588,-276.732C150.302,-278.736 150.969,-280.741 152.307,-282.268C154.406,-284.75 156.983,-285.8 160.039,-285.513C162.998,-285.132 165.67,-283.986 167.866,-282.077C168.152,-281.886 168.439,-281.6 168.726,-281.313C169.012,-281.123 169.298,-280.741 169.585,-280.454C170.349,-279.691 171.017,-278.64 171.78,-277.78C172.544,-276.922 173.021,-275.872 173.689,-275.109L168.439,-269.094L166.339,-270.813L169.012,-275.013C168.917,-275.968 168.63,-276.922 168.344,-277.78C167.962,-278.64 167.389,-279.404 166.625,-279.977L166.435,-280.072L166.339,-280.263C165.003,-281.313 163.284,-281.886 161.47,-282.077C159.656,-282.173 158.034,-281.504 156.792,-280.072C155.838,-278.927 155.456,-277.686 155.551,-276.54C155.742,-275.394 155.934,-274.059 156.411,-272.913C156.602,-272.626 156.697,-272.244 156.889,-271.957C156.983,-271.672 157.175,-271.29 157.271,-271.003C157.461,-270.621 157.746,-270.145 157.937,-269.667C158.13,-269.285 158.415,-268.808 158.606,-268.426C159.562,-266.324 160.324,-264.226 160.706,-262.125C161.089,-260.025 160.611,-257.924 158.988,-256.015C156.792,-253.629 154.311,-252.579 151.542,-252.865C148.679,-253.248 146.005,-254.202 143.715,-255.824C143.428,-256.015 143.046,-256.398 142.76,-256.588C142.474,-256.875 141.996,-257.065 141.71,-257.352C141.423,-257.639 141.137,-257.829 140.946,-258.02C140.659,-258.307 140.468,-258.593 140.182,-258.879C139.322,-259.643 138.56,-260.502 137.796,-261.361C137.032,-262.317 136.363,-263.366 135.886,-264.32L136.077,-264.32ZM123.667,-293.055L123.762,-292.865C123.857,-292.865 124.049,-292.769 124.144,-292.673C124.431,-292.483 124.908,-292.195 125.194,-291.91C125.576,-291.72 125.958,-291.527 126.34,-291.337C128.059,-290.192 129.968,-289.524 131.781,-289.141C133.69,-288.855 135.6,-289.715 137.223,-291.814L137.413,-292.195C138.082,-293.151 138.463,-294.296 138.75,-295.442C138.941,-296.683 138.941,-297.924 138.56,-299.165C138.177,-299.833 137.7,-300.597 137.032,-301.17C136.363,-301.742 135.695,-302.507 134.932,-302.888C134.836,-302.984 134.74,-303.079 134.645,-303.174C134.454,-303.269 134.358,-303.366 134.264,-303.366L131.494,-305.179L123.667,-293.055ZM136.841,-304.607C139.418,-302.888 141.519,-300.788 143.046,-298.497C144.479,-296.205 144.19,-293.342 142.091,-290.096C140.659,-287.805 138.846,-286.659 136.841,-286.468C134.836,-286.277 132.64,-286.468 130.35,-287.232C132.067,-285.227 133.022,-283.509 133.022,-282.268C132.928,-280.931 132.735,-279.5 132.163,-278.068C131.781,-277.399 131.59,-276.445 131.208,-275.681C130.923,-274.726 130.731,-273.581 130.636,-272.435C130.731,-271.099 131.113,-269.953 131.877,-269.19C132.735,-268.426 133.595,-267.566 134.645,-266.994C134.646,-266.994 134.645,-266.899 134.645,-266.899C134.646,-266.899 134.836,-266.803 134.836,-266.803L133.786,-265.18C133.595,-265.277 133.309,-265.467 133.118,-265.562C132.832,-265.657 132.544,-265.943 132.354,-266.039C131.973,-266.231 131.494,-266.517 131.113,-266.707C130.731,-266.994 130.254,-267.185 129.968,-267.376C128.535,-268.33 127.485,-269.476 126.816,-270.716C126.245,-272.054 126.244,-274.059 126.816,-276.349C127.199,-277.209 127.485,-278.258 127.676,-278.927C127.963,-279.691 128.153,-280.645 128.249,-281.217C128.822,-283.128 128.822,-284.845 128.345,-285.895C127.867,-286.946 126.436,-288.377 124.049,-289.809L122.33,-291.05L115.648,-280.646L115.935,-279.595L118.226,-277.686L117.079,-275.968L106.77,-282.651L107.916,-284.368L110.492,-283.128L111.734,-283.222L111.734,-283.318L127.199,-307.183L126.816,-308.234L124.526,-309.952L125.672,-311.766L136.841,-304.607ZM81.473,-295.919L84.24,-294.869L85.29,-295.252L85.386,-295.346L96.937,-321.313L96.365,-322.267L93.882,-323.603L94.741,-325.608L117.366,-315.585L114.312,-308.616L111.447,-309.857L112.688,-314.057L112.307,-315.203L101.424,-319.976L96.078,-307.947L103.811,-304.511L104.86,-304.988L106.865,-308.234L109.062,-307.183L104.384,-296.778L102.188,-297.733L103.238,-301.457L102.854,-302.507L95.123,-305.848L89.3,-292.578L101.901,-286.946L102.951,-287.424L105.815,-291.814L108.297,-290.764L104.86,-283.032L80.612,-293.819L81.473,-295.919ZM64.384,-332.672L63.907,-330.572L60.853,-330.955L60.184,-330.477L64.289,-302.888L78.894,-326.467L78.417,-327.231L75.362,-328.09L75.744,-330.286L85.959,-328.09L85.481,-325.99L82.235,-326.086L79.849,-322.553L63.907,-297.16L60.374,-297.924L59.803,-301.934L55.125,-331.814L52.261,-333.054L52.737,-335.155L64.384,-332.672ZM30.973,-303.366L34.218,-303.462L34.886,-304.225L34.886,-304.32L35.937,-332.672L35.268,-333.436L32.022,-333.723L32.118,-335.919L45.101,-335.441L45.005,-333.246L41.664,-333.15L40.805,-332.577L40.71,-332.291L39.755,-304.033L40.613,-303.174L43.955,-302.792L43.859,-300.693L30.877,-301.17L30.973,-303.366ZM-4.923,-301.074L-1.772,-301.742L-1.009,-302.697L-3.49,-330.764L-4.445,-331.431L-7.691,-331.337L-7.882,-333.531L1.76,-334.296L1.855,-333.054L21.808,-308.234L19.612,-332.482L18.752,-333.246L15.411,-333.341L15.221,-335.536L26.103,-336.491L26.295,-334.296L23.335,-333.627L22.38,-332.672L22.666,-329.617L25.148,-301.457L21.712,-301.17L20.854,-302.22L-0.531,-328.854L1.76,-302.888L2.715,-302.125L5.961,-301.934L6.151,-299.833L-4.731,-298.878L-4.923,-301.074ZM-36.903,-325.131L-36.329,-323.031L-39.289,-321.885L-39.957,-321.027L-34.42,-302.888C-34.325,-302.507 -34.135,-301.934 -34.039,-301.552C-33.848,-301.074 -33.657,-300.597 -33.466,-300.215C-33.274,-299.452 -32.893,-298.783 -32.511,-298.21C-32.13,-297.543 -31.365,-296.969 -30.793,-296.588C-29.742,-295.824 -28.406,-295.251 -26.975,-295.251C-25.543,-295.156 -24.11,-295.346 -22.679,-295.728C-21.247,-296.205 -19.91,-296.874 -18.765,-297.733C-17.619,-298.592 -16.76,-299.738 -16.378,-300.979C-16.092,-301.647 -15.9,-302.507 -15.9,-303.174C-15.996,-303.938 -15.9,-304.797 -16.187,-305.561C-16.283,-305.848 -16.378,-306.42 -16.474,-306.802C-16.569,-307.279 -16.76,-307.852 -16.855,-308.33L-22.297,-325.99L-23.347,-326.563L-26.401,-326.086L-27.07,-328.186L-16.664,-331.337L-15.996,-329.236L-18.955,-327.9L-19.624,-326.849L-14.087,-308.807C-13.896,-308.234 -13.705,-307.661 -13.609,-307.183C-13.419,-306.706 -13.323,-306.133 -13.132,-305.561C-12.941,-304.607 -12.941,-303.556 -12.941,-302.507C-12.941,-301.552 -13.132,-300.31 -13.609,-299.356C-14.087,-298.114 -15.041,-296.874 -16.187,-296.015C-17.333,-295.061 -18.669,-294.296 -20.006,-293.628C-20.483,-293.533 -20.96,-293.246 -21.342,-293.151C-21.819,-293.055 -22.297,-292.769 -22.679,-292.673C-23.061,-292.578 -23.633,-292.387 -24.016,-292.291C-24.397,-292.101 -25.065,-292.101 -25.543,-292.005C-26.975,-291.72 -28.597,-291.624 -30.029,-291.719C-31.461,-291.91 -32.893,-292.291 -34.135,-293.055C-34.993,-293.629 -35.853,-294.392 -36.329,-295.251C-36.807,-296.11 -37.476,-297.16 -37.857,-298.02C-37.953,-298.592 -38.144,-299.069 -38.335,-299.547C-38.43,-300.12 -38.717,-300.597 -38.812,-301.074L-44.539,-319.595L-45.494,-319.976L-48.454,-319.308L-49.026,-321.409L-36.903,-325.131ZM-72.225,-269.667L-77.283,-277.209L-74.61,-278.927L-70.887,-274.344L-69.742,-273.963C-68.883,-274.059 -68.023,-274.249 -67.164,-274.631C-66.21,-275.013 -65.255,-275.49 -64.396,-276.063C-62.773,-277.114 -61.437,-278.545 -60.577,-280.263C-59.719,-281.981 -59.909,-283.796 -61.15,-285.704C-62.105,-287.136 -63.441,-288.09 -64.969,-288.187C-66.688,-288.282 -68.501,-288.187 -70.124,-287.805C-70.887,-287.71 -71.651,-287.614 -72.319,-287.423C-72.987,-287.136 -73.751,-287.042 -74.324,-286.946C-76.138,-286.564 -78.334,-286.755 -80.243,-287.042C-82.248,-287.328 -83.87,-288.569 -85.017,-290.286C-86.83,-293.055 -87.116,-295.728 -85.971,-298.592C-84.825,-301.361 -83.012,-303.556 -80.625,-305.178C-80.243,-305.371 -79.957,-305.561 -79.67,-305.752C-79.289,-305.943 -78.811,-306.133 -78.524,-306.324C-77.57,-306.898 -76.425,-307.279 -75.374,-307.757C-74.324,-308.234 -73.179,-308.521 -72.319,-308.807L-67.928,-302.125L-70.124,-300.693L-73.465,-304.32C-74.42,-304.511 -75.374,-304.511 -76.233,-304.416C-77.188,-304.32 -78.047,-303.938 -78.906,-303.366L-79.097,-303.269L-79.192,-303.174C-80.625,-302.22 -81.675,-300.693 -82.343,-299.069C-82.916,-297.256 -82.725,-295.633 -81.675,-294.01C-80.911,-292.77 -79.766,-292.005 -78.62,-291.814C-77.57,-291.624 -76.138,-291.527 -74.896,-291.624C-74.61,-291.72 -74.229,-291.814 -73.847,-291.814C-73.561,-291.814 -73.083,-291.91 -72.797,-292.005C-72.415,-292.005 -71.842,-292.195 -71.365,-292.195C-70.982,-292.291 -70.41,-292.387 -69.933,-292.483C-67.737,-292.865 -65.542,-292.96 -63.346,-292.769C-61.15,-292.578 -59.337,-291.527 -58,-289.427C-56.186,-286.755 -55.899,-283.986 -56.95,-281.409C-58.096,-278.736 -59.813,-276.445 -61.914,-274.726C-62.296,-274.441 -62.678,-274.249 -62.964,-273.963C-63.346,-273.772 -63.632,-273.485 -64.015,-273.295C-64.3,-273.008 -64.587,-272.818 -64.873,-272.721C-65.159,-272.435 -65.542,-272.34 -65.828,-272.15C-66.878,-271.48 -67.928,-271.003 -68.978,-270.621C-70.028,-270.145 -71.27,-269.762 -72.319,-269.571L-72.225,-269.667ZM-112.7,-280.549L-111.363,-278.831L-113.655,-276.635L-113.847,-275.586L-101.436,-261.267C-101.149,-260.884 -100.768,-260.502 -100.481,-260.216C-100.195,-259.835 -99.718,-259.452 -99.526,-259.166C-98.954,-258.594 -98.381,-258.116 -97.713,-257.734C-97.141,-257.352 -96.28,-257.065 -95.517,-256.97C-94.276,-256.684 -92.844,-256.779 -91.508,-257.257C-90.171,-257.83 -88.931,-258.497 -87.784,-259.548C-86.639,-260.406 -85.685,-261.648 -85.017,-262.888C-84.348,-264.13 -84.062,-265.562 -84.157,-266.803C-84.157,-267.566 -84.348,-268.426 -84.635,-268.998C-85.017,-269.762 -85.303,-270.526 -85.779,-271.099C-86.065,-271.385 -86.353,-271.862 -86.639,-272.15C-86.925,-272.531 -87.308,-272.913 -87.594,-273.295L-99.718,-287.328L-100.958,-287.328L-103.536,-285.61L-104.968,-287.328L-96.758,-294.488L-95.326,-292.77L-97.426,-290.478L-97.617,-289.141L-85.207,-274.917C-84.825,-274.441 -84.443,-274.059 -84.157,-273.677C-83.775,-273.198 -83.488,-272.721 -83.106,-272.34C-82.534,-271.577 -82.057,-270.526 -81.675,-269.667C-81.197,-268.713 -81.007,-267.566 -80.911,-266.517C-80.911,-265.085 -81.197,-263.652 -81.961,-262.411C-82.629,-261.076 -83.584,-259.738 -84.538,-258.689C-84.825,-258.402 -85.207,-257.924 -85.493,-257.638C-85.875,-257.352 -86.257,-256.874 -86.544,-256.684C-86.83,-256.398 -87.212,-256.015 -87.498,-255.824C-87.88,-255.444 -88.453,-255.253 -88.834,-254.965C-90.076,-254.106 -91.508,-253.342 -92.844,-252.865C-94.181,-252.388 -95.708,-252.197 -97.141,-252.388C-98.19,-252.579 -99.24,-252.96 -100.004,-253.533C-100.862,-254.106 -101.817,-254.775 -102.486,-255.443C-102.868,-255.824 -103.249,-256.302 -103.631,-256.588C-103.918,-257.066 -104.396,-257.447 -104.682,-257.829L-117.474,-272.435L-118.523,-272.34L-120.91,-270.526L-122.343,-272.244L-112.7,-280.549ZM-126.924,-236.636L-120.624,-244.751L-135.229,-249.524L-126.924,-236.636ZM-138.094,-254.775L-133.894,-253.533L-104.777,-244.751L-102.391,-246.66L-100.768,-245.42L-107.928,-236.159L-109.551,-237.496L-107.832,-240.169L-108.31,-240.837L-118.237,-244.082L-125.779,-234.442L-120.338,-225.467L-119.479,-225.372L-117.092,-227.854L-115.469,-226.613L-121.675,-218.594L-123.297,-219.931L-122.056,-222.604L-124.156,-226.422L-140.194,-252.101L-138.094,-254.775ZM-131.315,-206.756L-129.693,-209.621L-129.979,-210.575L-130.075,-210.671L-154.228,-225.754L-155.086,-225.467L-156.995,-222.89L-158.904,-224.036L-152.031,-235.013L-150.122,-233.868L-151.745,-230.91L-151.649,-229.859L-151.363,-229.668L-127.402,-214.776L-126.352,-215.062L-124.347,-217.735L-122.533,-216.59L-129.406,-205.611L-131.315,-206.756ZM-147.067,-174.967L-146.112,-178.022L-146.59,-179.168L-172.365,-190.623L-173.32,-190.146L-174.847,-187.282L-176.852,-188.141L-172.937,-196.924L-171.793,-196.446L-140.385,-201.793L-162.628,-211.72L-163.773,-211.243L-165.396,-208.475L-167.4,-209.334L-163.01,-219.262L-161.005,-218.403L-161.864,-215.539L-161.482,-214.202L-158.714,-212.962L-132.843,-201.506L-134.275,-198.356L-135.612,-198.165L-169.215,-192.341L-145.444,-181.745L-144.299,-182.223L-142.58,-184.895L-140.671,-184.037L-145.062,-174.108L-147.067,-174.967ZM-154.8,-149.574L-154.132,-152.438L-154.514,-153.584L-154.608,-153.584L-181.815,-161.888L-182.771,-161.221L-183.82,-158.357L-185.921,-158.929L-182.293,-170.957L-180.193,-170.29L-180.861,-167.521L-180.479,-166.375L-179.524,-166.089L-152.413,-157.784L-148.977,-169.048L-149.645,-170.003L-155.373,-172.581L-154.514,-175.159L-145.444,-172.485L-152.699,-148.811L-154.8,-149.574ZM-158.046,-134.682L-157.568,-137.832L-158.236,-138.691L-158.332,-138.691L-186.112,-144.61L-186.971,-144.133L-187.83,-140.983L-189.93,-141.459L-187.258,-154.157L-185.062,-153.679L-185.634,-150.338L-185.157,-149.382L-184.871,-149.288L-157.187,-143.465L-156.232,-144.133L-155.277,-147.379L-153.272,-146.902L-155.945,-134.204L-158.046,-134.682ZM-193.94,-114.443L-191.744,-114.253L-191.935,-111.198L-191.362,-110.529L-164.251,-117.022L-189.071,-129.431L-189.739,-128.954L-190.312,-125.804L-192.508,-126.09L-191.267,-136.4L-189.071,-136.113L-188.88,-132.772L-185.253,-130.863L-158.522,-117.116L-159,-113.584L-162.914,-112.63L-192.316,-105.374L-193.271,-102.415L-195.372,-102.606L-193.94,-114.443Z" style="fill:white;"/>
                </g>
                <g transform="matrix(1,0,0,1,260.671,653.528)">
                    <path d="M0,52.66L11.219,52.66C11.129,51.105 10.948,50.014 10.659,49.382C10.226,48.396 9.565,47.62 8.689,47.052C7.813,46.492 6.901,46.202 5.953,46.202C4.489,46.202 3.18,46.769 2.023,47.91C0.867,49.048 0.189,50.637 0,52.66M0,54.195C-0.019,57.801 0.849,60.618 2.619,62.669C4.382,64.71 6.459,65.73 8.834,65.73C10.424,65.73 11.806,65.297 12.979,64.42C14.155,63.554 15.13,62.055 15.925,59.939L16.747,60.464C16.376,62.886 15.302,65.09 13.522,67.066C11.734,69.056 9.503,70.049 6.829,70.049C3.912,70.049 1.419,68.919 -0.65,66.651C-2.728,64.385 -3.758,61.332 -3.758,57.502C-3.758,53.355 -2.701,50.122 -0.568,47.808C1.554,45.489 4.219,44.323 7.434,44.323C10.153,44.323 12.384,45.218 14.127,47.014C15.87,48.804 16.747,51.195 16.747,54.195L0,54.195ZM-14.055,64.727L-14.055,52.234C-14.163,51.043 -14.479,49.94 -15.003,48.957C-15.536,47.973 -16.24,47.223 -17.108,46.725C-17.984,46.221 -18.833,45.968 -19.664,45.968C-21.218,45.968 -22.6,46.662 -23.819,48.054C-25.427,49.895 -26.231,52.569 -26.231,56.1C-26.231,59.671 -25.454,62.396 -23.9,64.294C-22.347,66.191 -20.622,67.139 -18.716,67.139C-17.108,67.139 -15.555,66.336 -14.055,64.727M-14.055,66.58C-15.238,67.815 -16.394,68.702 -17.523,69.244C-18.652,69.776 -19.872,70.049 -21.173,70.049C-23.819,70.049 -26.131,68.936 -28.109,66.723C-30.079,64.512 -31.072,61.665 -31.072,58.197C-31.072,54.721 -29.979,51.541 -27.784,48.649C-25.599,45.767 -22.789,44.323 -19.348,44.323C-17.216,44.323 -15.446,45.01 -14.055,46.364L-14.055,41.892C-14.055,39.12 -14.118,37.423 -14.253,36.78C-14.389,36.147 -14.597,35.716 -14.876,35.489C-15.157,35.254 -15.509,35.144 -15.934,35.144C-16.394,35.144 -16.999,35.281 -17.758,35.569L-18.102,34.639L-10.875,31.678L-9.692,31.678L-9.692,59.706C-9.692,62.542 -9.62,64.274 -9.493,64.898C-9.357,65.531 -9.149,65.966 -8.853,66.209C-8.563,66.463 -8.22,66.58 -7.84,66.58C-7.361,66.58 -6.721,66.434 -5.935,66.129L-5.637,67.057L-12.836,70.049L-14.055,70.049L-14.055,66.58ZM-37.025,45.063L-37.025,59.751C-37.025,62.559 -36.962,64.274 -36.827,64.898C-36.691,65.531 -36.483,65.966 -36.193,66.209C-35.896,66.463 -35.562,66.58 -35.174,66.58C-34.622,66.58 -34.009,66.434 -33.322,66.129L-32.951,67.057L-40.205,70.049L-41.388,70.049L-41.388,64.918C-43.475,67.176 -45.064,68.594 -46.157,69.172C-47.25,69.759 -48.406,70.049 -49.617,70.049C-50.98,70.049 -52.155,69.66 -53.157,68.874C-54.15,68.088 -54.847,67.077 -55.235,65.839C-55.623,64.6 -55.813,62.858 -55.813,60.598L-55.813,49.78C-55.813,48.632 -55.939,47.838 -56.184,47.393C-56.428,46.952 -56.798,46.617 -57.285,46.374C-57.765,46.138 -58.649,46.031 -59.914,46.049L-59.914,45.063L-51.423,45.063L-51.423,61.287C-51.423,63.544 -51.026,65.025 -50.24,65.73C-49.454,66.444 -48.506,66.796 -47.395,66.796C-46.636,66.796 -45.778,66.554 -44.819,66.083C-43.854,65.603 -42.717,64.69 -41.388,63.353L-41.388,49.617C-41.388,48.244 -41.642,47.312 -42.146,46.825C-42.652,46.346 -43.691,46.084 -45.281,46.049L-45.281,45.063L-37.025,45.063ZM-66.291,37.105L-66.291,45.063L-60.628,45.063L-60.628,46.916L-66.291,46.916L-66.291,62.64C-66.291,64.214 -66.065,65.268 -65.613,65.81C-65.171,66.361 -64.593,66.634 -63.889,66.634C-63.301,66.634 -62.741,66.454 -62.19,66.091C-61.647,65.73 -61.224,65.198 -60.917,64.493L-59.887,64.493C-60.51,66.218 -61.377,67.518 -62.506,68.393C-63.635,69.271 -64.801,69.705 -66.001,69.705C-66.814,69.705 -67.61,69.479 -68.387,69.026C-69.163,68.576 -69.732,67.933 -70.103,67.095C-70.474,66.264 -70.663,64.972 -70.663,63.22L-70.663,46.916L-74.492,46.916L-74.492,46.049C-73.526,45.661 -72.532,45 -71.521,44.079C-70.51,43.148 -69.597,42.048 -68.811,40.782C-68.404,40.114 -67.836,38.886 -67.113,37.105L-66.291,37.105ZM-80.318,32.606L-80.318,45.017L-81.295,45.017C-81.619,42.635 -82.188,40.736 -83.001,39.328C-83.823,37.91 -84.997,36.79 -86.515,35.969C-88.032,35.138 -89.596,34.722 -91.221,34.722C-93.055,34.722 -94.572,35.281 -95.773,36.4C-96.976,37.521 -97.571,38.795 -97.571,40.222C-97.571,41.314 -97.191,42.317 -96.434,43.213C-95.34,44.54 -92.738,46.302 -88.629,48.506C-85.277,50.303 -82.983,51.684 -81.765,52.65C-80.535,53.608 -79.587,54.747 -78.928,56.047C-78.269,57.356 -77.934,58.722 -77.934,60.148C-77.934,62.867 -78.991,65.208 -81.096,67.176C-83.209,69.143 -85.919,70.13 -89.233,70.13C-90.282,70.13 -91.257,70.049 -92.178,69.887C-92.721,69.804 -93.858,69.479 -95.574,68.929C-97.291,68.369 -98.385,68.088 -98.845,68.088C-99.287,68.088 -99.631,68.223 -99.893,68.485C-100.146,68.749 -100.335,69.299 -100.462,70.13L-101.437,70.13L-101.437,57.827L-100.462,57.827C-100.001,60.401 -99.378,62.326 -98.601,63.606C-97.824,64.882 -96.641,65.947 -95.042,66.796C-93.452,67.637 -91.7,68.06 -89.794,68.06C-87.59,68.06 -85.847,67.482 -84.564,66.316C-83.291,65.151 -82.648,63.78 -82.648,62.188C-82.648,61.306 -82.893,60.419 -83.372,59.515C-83.859,58.613 -84.618,57.782 -85.64,57.005C-86.325,56.472 -88.204,55.351 -91.275,53.628C-94.347,51.911 -96.523,50.537 -97.824,49.516C-99.125,48.485 -100.101,47.357 -100.778,46.13C-101.446,44.89 -101.78,43.526 -101.78,42.048C-101.78,39.472 -100.796,37.26 -98.817,35.398C-96.84,33.538 -94.328,32.606 -91.275,32.606C-89.369,32.606 -87.347,33.067 -85.215,34.008C-84.23,34.45 -83.525,34.668 -83.128,34.668C-82.667,34.668 -82.287,34.531 -81.999,34.261C-81.71,33.98 -81.475,33.43 -81.295,32.606L-80.318,32.606ZM312.352,-13.947C311.422,-13.947 310.482,-13.676 309.533,-13.114C308.594,-12.556 307.827,-11.589 307.248,-10.191C306.661,-8.798 306.372,-7.009 306.372,-4.822C306.372,-1.292 307.077,1.752 308.477,4.306C309.877,6.864 311.729,8.147 314.023,8.147C315.729,8.147 317.139,7.441 318.26,6.034C319.37,4.615 319.921,2.194 319.921,-1.246C319.921,-5.556 319,-8.943 317.139,-11.408C315.893,-13.107 314.295,-13.947 312.352,-13.947M313.174,-15.671C316.841,-15.671 319.785,-14.273 322.017,-11.49C323.904,-9.106 324.844,-6.368 324.844,-3.288C324.844,-1.111 324.32,1.084 323.282,3.306C322.242,5.527 320.807,7.208 318.982,8.338C317.156,9.466 315.126,10.026 312.885,10.026C309.227,10.026 306.328,8.57 304.178,5.663C302.361,3.206 301.449,0.451 301.449,-2.592C301.449,-4.822 302,-7.028 303.103,-9.224C304.204,-11.417 305.659,-13.044 307.456,-14.091C309.254,-15.149 311.16,-15.671 313.174,-15.671M293.302,-22.916L293.302,-14.958L298.966,-14.958L298.966,-13.107L293.302,-13.107L293.302,2.62C293.302,4.19 293.528,5.247 293.979,5.79C294.423,6.341 295,6.611 295.704,6.611C296.292,6.611 296.852,6.431 297.403,6.068C297.945,5.709 298.369,5.177 298.677,4.471L299.706,4.471C299.083,6.195 298.216,7.497 297.087,8.373C295.958,9.249 294.792,9.681 293.591,9.681C292.777,9.681 291.983,9.458 291.207,9.005C290.43,8.554 289.861,7.913 289.49,7.072C289.12,6.241 288.93,4.95 288.93,3.198L288.93,-13.107L285.101,-13.107L285.101,-13.975C286.066,-14.361 287.061,-15.023 288.072,-15.944C289.083,-16.873 289.997,-17.977 290.782,-19.24C291.188,-19.908 291.758,-21.136 292.479,-22.916L293.302,-22.916ZM266.285,-7.361L277.503,-7.361C277.414,-8.915 277.232,-10.009 276.943,-10.642C276.511,-11.625 275.851,-12.403 274.975,-12.971C274.099,-13.53 273.186,-13.82 272.238,-13.82C270.774,-13.82 269.465,-13.251 268.308,-12.112C267.152,-10.976 266.475,-9.385 266.285,-7.361M266.285,-5.825C266.268,-2.224 267.135,0.595 268.905,2.645C270.666,4.686 272.743,5.709 275.119,5.709C276.708,5.709 278.091,5.274 279.266,4.397C280.438,3.532 281.416,2.032 282.21,-0.082L283.032,0.44C282.662,2.863 281.587,5.067 279.808,7.046C278.019,9.032 275.788,10.026 273.113,10.026C270.196,10.026 267.703,8.896 265.635,6.63C263.558,4.361 262.527,1.308 262.527,-2.522C262.527,-6.666 263.585,-9.901 265.717,-12.213C267.839,-14.533 270.503,-15.699 273.72,-15.699C276.437,-15.699 278.669,-14.806 280.412,-13.008C282.155,-11.22 283.032,-8.825 283.032,-5.825L266.285,-5.825ZM254.19,-22.916L254.19,-14.958L259.854,-14.958L259.854,-13.107L254.19,-13.107L254.19,2.62C254.19,4.19 254.416,5.247 254.868,5.79C255.311,6.341 255.889,6.611 256.593,6.611C257.18,6.611 257.74,6.431 258.292,6.068C258.833,5.709 259.258,5.177 259.563,4.471L260.595,4.471C259.972,6.195 259.104,7.497 257.976,8.373C256.847,9.249 255.681,9.681 254.479,9.681C253.667,9.681 252.871,9.458 252.096,9.005C251.318,8.554 250.75,7.913 250.379,7.072C250.008,6.241 249.818,4.95 249.818,3.198L249.818,-13.107L245.989,-13.107L245.989,-13.975C246.955,-14.361 247.948,-15.023 248.961,-15.944C249.972,-16.873 250.885,-17.977 251.671,-19.24C252.077,-19.908 252.646,-21.136 253.368,-22.916L254.19,-22.916ZM240.452,-15.671L240.452,3.811C240.452,5.33 240.561,6.331 240.786,6.839C241.003,7.344 241.327,7.714 241.762,7.967C242.195,8.21 242.99,8.338 244.138,8.338L244.138,9.286L232.358,9.286L232.358,8.338C233.542,8.338 234.337,8.22 234.734,7.984C235.141,7.759 235.467,7.38 235.7,6.847C235.944,6.323 236.062,5.31 236.062,3.811L236.062,-5.537C236.062,-8.165 235.979,-9.864 235.827,-10.642C235.7,-11.209 235.502,-11.6 235.24,-11.816C234.978,-12.041 234.616,-12.15 234.156,-12.15C233.659,-12.15 233.063,-12.015 232.358,-11.752L231.988,-12.708L239.286,-15.671L240.452,-15.671ZM238.257,-28.345C238.997,-28.345 239.63,-28.082 240.154,-27.569C240.669,-27.044 240.931,-26.411 240.931,-25.671C240.931,-24.932 240.669,-24.299 240.154,-23.767C239.63,-23.241 238.997,-22.97 238.257,-22.97C237.517,-22.97 236.884,-23.241 236.352,-23.767C235.827,-24.299 235.556,-24.932 235.556,-25.671C235.556,-26.411 235.818,-27.044 236.342,-27.569C236.857,-28.082 237.498,-28.345 238.257,-28.345M226.668,-15.671L226.668,-7.416L225.791,-7.416C225.124,-10.009 224.265,-11.771 223.218,-12.708C222.161,-13.64 220.823,-14.111 219.207,-14.111C217.97,-14.111 216.976,-13.783 216.217,-13.124C215.458,-12.476 215.079,-11.752 215.079,-10.957C215.079,-9.974 215.359,-9.123 215.92,-8.418C216.47,-7.695 217.581,-6.928 219.261,-6.115L223.118,-4.237C226.704,-2.492 228.492,-0.191 228.492,2.674C228.492,4.878 227.662,6.647 225.99,8.002C224.329,9.348 222.459,10.026 220.399,10.026C218.909,10.026 217.22,9.764 215.313,9.23C214.735,9.058 214.257,8.97 213.887,8.97C213.479,8.97 213.164,9.195 212.929,9.656L212.062,9.656L212.062,1.003L212.929,1.003C213.426,3.468 214.374,5.33 215.766,6.586C217.157,7.84 218.719,8.464 220.444,8.464C221.663,8.464 222.658,8.11 223.425,7.397C224.193,6.675 224.572,5.815 224.572,4.812C224.572,3.595 224.147,2.575 223.29,1.743C222.44,0.912 220.734,-0.135 218.168,-1.409C215.611,-2.674 213.94,-3.821 213.146,-4.841C212.352,-5.855 211.954,-7.119 211.954,-8.653C211.954,-10.651 212.64,-12.32 214.004,-13.657C215.368,-14.994 217.139,-15.671 219.307,-15.671C220.264,-15.671 221.42,-15.463 222.774,-15.059C223.679,-14.796 224.274,-14.66 224.572,-14.66C224.861,-14.66 225.078,-14.724 225.241,-14.851C225.395,-14.978 225.584,-15.247 225.791,-15.671L226.668,-15.671ZM200.049,-15.671L200.049,-10.216C202.072,-13.858 204.158,-15.671 206.29,-15.671C207.257,-15.671 208.061,-15.374 208.701,-14.786C209.335,-14.192 209.65,-13.504 209.65,-12.736C209.65,-12.041 209.425,-11.462 208.964,-10.985C208.503,-10.504 207.962,-10.272 207.32,-10.272C206.706,-10.272 206.011,-10.577 205.242,-11.183C204.475,-11.788 203.905,-12.095 203.536,-12.095C203.219,-12.095 202.876,-11.923 202.506,-11.57C201.711,-10.85 200.889,-9.656 200.049,-7.994L200.049,3.621C200.049,4.959 200.211,5.978 200.546,6.666C200.78,7.144 201.187,7.542 201.766,7.857C202.352,8.174 203.183,8.338 204.275,8.338L204.275,9.286L191.865,9.286L191.865,8.338C193.103,8.338 194.023,8.139 194.62,7.749C195.062,7.471 195.369,7.016 195.551,6.404C195.632,6.097 195.677,5.247 195.677,3.831L195.677,-5.566C195.677,-8.382 195.622,-10.064 195.505,-10.607C195.397,-11.137 195.18,-11.535 194.873,-11.779C194.565,-12.024 194.178,-12.15 193.717,-12.15C193.175,-12.15 192.561,-12.015 191.865,-11.752L191.604,-12.708L198.937,-15.671L200.049,-15.671ZM172.978,-7.361L184.196,-7.361C184.104,-8.915 183.925,-10.009 183.636,-10.642C183.202,-11.625 182.543,-12.403 181.667,-12.971C180.791,-13.53 179.878,-13.82 178.93,-13.82C177.467,-13.82 176.158,-13.251 175.001,-12.112C173.845,-10.976 173.167,-9.385 172.978,-7.361M172.978,-5.825C172.959,-2.224 173.827,0.595 175.598,2.645C177.357,4.686 179.436,5.709 181.812,5.709C183.401,5.709 184.782,5.274 185.957,4.397C187.131,3.532 188.107,2.032 188.901,-0.082L189.725,0.44C189.354,2.863 188.279,5.067 186.5,7.046C184.711,9.032 182.479,10.026 179.806,10.026C176.889,10.026 174.396,8.896 172.327,6.63C170.25,4.361 169.22,1.308 169.22,-2.522C169.22,-6.666 170.276,-9.901 172.409,-12.213C174.531,-14.533 177.195,-15.699 180.412,-15.699C183.13,-15.699 185.361,-14.806 187.104,-13.008C188.848,-11.22 189.725,-8.825 189.725,-5.825L172.978,-5.825ZM140.559,-14.958L151.968,-14.958L151.968,-13.975L151.218,-13.975C150.531,-13.975 150.008,-13.812 149.646,-13.479C149.284,-13.133 149.104,-12.693 149.104,-12.121C149.104,-11.508 149.294,-10.777 149.664,-9.928L155.301,3.46L160.964,-10.434C161.37,-11.417 161.569,-12.167 161.569,-12.684C161.569,-12.926 161.497,-13.124 161.361,-13.287C161.163,-13.549 160.919,-13.732 160.621,-13.829C160.313,-13.93 159.708,-13.975 158.787,-13.975L158.787,-14.958L166.699,-14.958L166.699,-13.975C165.787,-13.902 165.146,-13.723 164.793,-13.423C164.18,-12.892 163.629,-12.005 163.132,-10.777L154.533,10.026L153.449,10.026L144.796,-10.434C144.407,-11.382 144.036,-12.069 143.685,-12.486C143.323,-12.9 142.88,-13.242 142.33,-13.522C142.031,-13.686 141.436,-13.838 140.559,-13.975L140.559,-14.958ZM135.104,-15.671L135.104,3.811C135.104,5.33 135.212,6.331 135.437,6.839C135.654,7.344 135.979,7.714 136.413,7.967C136.847,8.21 137.642,8.338 138.789,8.338L138.789,9.286L127.01,9.286L127.01,8.338C128.193,8.338 128.988,8.22 129.387,7.984C129.792,7.759 130.117,7.38 130.353,6.847C130.597,6.323 130.714,5.31 130.714,3.811L130.714,-5.537C130.714,-8.165 130.632,-9.864 130.479,-10.642C130.353,-11.209 130.153,-11.6 129.892,-11.816C129.63,-12.041 129.269,-12.15 128.809,-12.15C128.312,-12.15 127.715,-12.015 127.01,-11.752L126.64,-12.708L133.938,-15.671L135.104,-15.671ZM132.908,-28.345C133.649,-28.345 134.281,-28.082 134.805,-27.569C135.32,-27.044 135.582,-26.411 135.582,-25.671C135.582,-24.932 135.32,-24.299 134.805,-23.767C134.281,-23.241 133.649,-22.97 132.908,-22.97C132.168,-22.97 131.535,-23.241 131.003,-23.767C130.479,-24.299 130.208,-24.932 130.208,-25.671C130.208,-26.411 130.47,-27.044 130.993,-27.569C131.508,-28.082 132.15,-28.345 132.908,-28.345M106.713,-10.532C109.551,-13.955 112.259,-15.671 114.834,-15.671C116.162,-15.671 117.3,-15.338 118.249,-14.678C119.206,-14.02 119.964,-12.926 120.523,-11.408C120.912,-10.352 121.103,-8.727 121.103,-6.539L121.103,3.811C121.103,5.338 121.229,6.387 121.482,6.928C121.672,7.371 121.987,7.714 122.422,7.967C122.846,8.21 123.649,8.338 124.815,8.338L124.815,9.286L112.819,9.286L112.819,8.338L113.325,8.338C114.454,8.338 115.249,8.155 115.692,7.812C116.144,7.471 116.46,6.964 116.632,6.296C116.704,6.034 116.739,5.203 116.739,3.811L116.739,-6.115C116.739,-8.32 116.451,-9.918 115.882,-10.92C115.304,-11.914 114.337,-12.411 112.982,-12.411C110.886,-12.411 108.79,-11.265 106.713,-8.97L106.713,3.811C106.713,5.447 106.804,6.458 107.003,6.847C107.246,7.36 107.59,7.74 108.023,7.975C108.457,8.21 109.333,8.338 110.651,8.338L110.651,9.286L98.665,9.286L98.665,8.338L99.198,8.338C100.427,8.338 101.267,8.019 101.701,7.397C102.126,6.764 102.341,5.573 102.341,3.811L102.341,-5.194C102.341,-8.105 102.278,-9.874 102.144,-10.504C102.016,-11.148 101.809,-11.58 101.537,-11.808C101.267,-12.031 100.896,-12.15 100.436,-12.15C99.947,-12.15 99.352,-12.015 98.665,-11.752L98.268,-12.708L105.575,-15.671L106.713,-15.671L106.713,-10.532ZM93.797,-14.958L93.797,-0.273C93.797,2.537 93.86,4.254 93.995,4.878C94.131,5.51 94.338,5.942 94.627,6.186C94.926,6.438 95.26,6.556 95.648,6.556C96.199,6.556 96.813,6.414 97.5,6.105L97.87,7.036L90.617,10.026L89.434,10.026L89.434,4.895C87.347,7.154 85.758,8.57 84.664,9.149C83.571,9.736 82.415,10.026 81.205,10.026C79.841,10.026 78.667,9.638 77.664,8.85C76.67,8.065 75.975,7.055 75.587,5.815C75.197,4.579 75.009,2.837 75.009,0.578L75.009,-10.243C75.009,-11.391 74.882,-12.187 74.638,-12.628C74.394,-13.07 74.023,-13.404 73.536,-13.65C73.058,-13.884 72.173,-13.991 70.907,-13.975L70.907,-14.958L79.398,-14.958L79.398,1.264C79.398,3.521 79.796,5.004 80.582,5.709C81.367,6.423 82.315,6.773 83.427,6.773C84.185,6.773 85.044,6.531 86.001,6.06C86.968,5.582 88.105,4.67 89.434,3.333L89.434,-10.405C89.434,-11.779 89.181,-12.708 88.675,-13.197C88.169,-13.676 87.13,-13.939 85.541,-13.975L85.541,-14.958L93.797,-14.958ZM53.573,-15.671L53.573,-7.416L52.697,-7.416C52.029,-10.009 51.171,-11.771 50.122,-12.708C49.066,-13.64 47.729,-14.111 46.112,-14.111C44.875,-14.111 43.882,-13.783 43.123,-13.124C42.364,-12.476 41.984,-11.752 41.984,-10.957C41.984,-9.974 42.265,-9.123 42.825,-8.418C43.376,-7.695 44.486,-6.928 46.166,-6.115L50.024,-4.237C53.609,-2.492 55.398,-0.191 55.398,2.674C55.398,4.878 54.567,6.647 52.896,8.002C51.233,9.348 49.364,10.026 47.305,10.026C45.814,10.026 44.125,9.764 42.22,9.23C41.642,9.058 41.162,8.97 40.793,8.97C40.387,8.97 40.069,9.195 39.835,9.656L38.968,9.656L38.968,1.003L39.835,1.003C40.331,3.468 41.28,5.33 42.671,6.586C44.063,7.84 45.625,8.464 47.35,8.464C48.569,8.464 49.563,8.11 50.33,7.397C51.099,6.675 51.479,5.815 51.479,4.812C51.479,3.595 51.054,2.575 50.195,1.743C49.347,0.912 47.639,-0.135 45.074,-1.409C42.518,-2.674 40.847,-3.821 40.052,-4.841C39.257,-5.855 38.859,-7.119 38.859,-8.653C38.859,-10.651 39.546,-12.32 40.909,-13.657C42.273,-14.994 44.044,-15.671 46.212,-15.671C47.169,-15.671 48.325,-15.463 49.681,-15.059C50.584,-14.796 51.18,-14.66 51.479,-14.66C51.768,-14.66 51.983,-14.724 52.146,-14.851C52.3,-14.978 52.49,-15.247 52.697,-15.671L53.573,-15.671ZM32.058,-14.958L32.058,-0.273C32.058,2.537 32.121,4.254 32.256,4.878C32.392,5.51 32.6,5.942 32.889,6.186C33.187,6.438 33.521,6.556 33.909,6.556C34.461,6.556 35.074,6.414 35.761,6.105L36.131,7.036L28.878,10.026L27.694,10.026L27.694,4.895C25.607,7.154 24.019,8.57 22.925,9.149C21.832,9.736 20.677,10.026 19.466,10.026C18.102,10.026 16.929,9.638 15.925,8.85C14.932,8.065 14.236,7.055 13.848,5.815C13.459,4.579 13.27,2.837 13.27,0.578L13.27,-10.243C13.27,-11.391 13.144,-12.187 12.899,-12.628C12.655,-13.07 12.285,-13.404 11.797,-13.65C11.318,-13.884 10.434,-13.991 9.168,-13.975L9.168,-14.958L17.659,-14.958L17.659,1.264C17.659,3.521 18.057,5.004 18.843,5.709C19.629,6.423 20.576,6.773 21.688,6.773C22.446,6.773 23.305,6.531 24.262,6.06C25.229,5.582 26.366,4.67 27.694,3.333L27.694,-10.405C27.694,-11.779 27.442,-12.708 26.936,-13.197C26.431,-13.676 25.391,-13.939 23.802,-13.975L23.802,-14.958L32.058,-14.958ZM0.488,4.074L0.488,-5.167C-2.176,-4.102 -3.894,-3.353 -4.67,-2.917C-6.069,-2.143 -7.063,-1.327 -7.659,-0.48C-8.265,0.371 -8.563,1.291 -8.563,2.304C-8.563,3.567 -8.184,4.625 -7.425,5.465C-6.666,6.296 -5.79,6.721 -4.805,6.721C-3.459,6.721 -1.698,5.835 0.488,4.074M0.488,5.79C-1.995,7.714 -3.559,8.825 -4.2,9.123C-5.148,9.564 -6.16,9.791 -7.235,9.791C-8.915,9.791 -10.297,9.213 -11.381,8.065C-12.465,6.919 -13.007,5.41 -13.007,3.541C-13.007,2.356 -12.745,1.337 -12.212,0.47C-11.489,-0.723 -10.233,-1.853 -8.445,-2.917C-6.657,-3.976 -3.676,-5.257 0.488,-6.776L0.488,-7.734C0.488,-10.145 0.108,-11.808 -0.659,-12.708C-1.427,-13.605 -2.547,-14.056 -4.01,-14.056C-5.121,-14.056 -6.006,-13.757 -6.657,-13.153C-7.325,-12.556 -7.659,-11.868 -7.659,-11.092L-7.605,-9.558C-7.605,-8.743 -7.812,-8.12 -8.229,-7.68C-8.645,-7.236 -9.187,-7.019 -9.854,-7.019C-10.514,-7.019 -11.047,-7.244 -11.462,-7.704C-11.878,-8.165 -12.085,-8.79 -12.085,-9.584C-12.085,-11.103 -11.309,-12.492 -9.755,-13.767C-8.201,-15.031 -6.024,-15.671 -3.216,-15.671C-1.065,-15.671 0.696,-15.311 2.077,-14.588C3.116,-14.037 3.885,-13.18 4.382,-12.015C4.697,-11.255 4.851,-9.71 4.851,-7.361L4.851,0.866C4.851,3.18 4.896,4.597 4.986,5.122C5.077,5.637 5.221,5.989 5.42,6.161C5.628,6.341 5.862,6.431 6.125,6.431C6.404,6.431 6.658,6.368 6.865,6.241C7.235,6.014 7.949,5.365 9.007,4.306L9.007,5.79C7.037,8.435 5.148,9.764 3.342,9.764C2.483,9.764 1.798,9.466 1.283,8.86C0.769,8.264 0.507,7.234 0.488,5.79M-19.943,-15.671L-19.943,3.811C-19.943,5.33 -19.836,6.331 -19.609,6.839C-19.393,7.344 -19.067,7.714 -18.634,7.967C-18.2,8.21 -17.405,8.338 -16.259,8.338L-16.259,9.286L-28.036,9.286L-28.036,8.338C-26.854,8.338 -26.06,8.22 -25.661,7.984C-25.255,7.759 -24.93,7.38 -24.695,6.847C-24.451,6.323 -24.334,5.31 -24.334,3.811L-24.334,-5.537C-24.334,-8.165 -24.415,-9.864 -24.568,-10.642C-24.695,-11.209 -24.894,-11.6 -25.155,-11.816C-25.417,-12.041 -25.779,-12.15 -26.239,-12.15C-26.736,-12.15 -27.332,-12.015 -28.036,-11.752L-28.407,-12.708L-21.109,-15.671L-19.943,-15.671ZM-22.139,-28.345C-21.397,-28.345 -20.766,-28.082 -20.242,-27.569C-19.727,-27.044 -19.465,-26.411 -19.465,-25.671C-19.465,-24.932 -19.727,-24.299 -20.242,-23.767C-20.766,-23.241 -21.397,-22.97 -22.139,-22.97C-22.879,-22.97 -23.512,-23.241 -24.045,-23.767C-24.568,-24.299 -24.84,-24.932 -24.84,-25.671C-24.84,-26.411 -24.578,-27.044 -24.054,-27.569C-23.538,-28.082 -22.897,-28.345 -22.139,-28.345M-48.334,-10.532C-45.497,-13.955 -42.788,-15.671 -40.214,-15.671C-38.886,-15.671 -37.747,-15.338 -36.799,-14.678C-35.842,-14.02 -35.082,-12.926 -34.522,-11.408C-34.134,-10.352 -33.944,-8.727 -33.944,-6.539L-33.944,3.811C-33.944,5.338 -33.818,6.387 -33.565,6.928C-33.375,7.371 -33.06,7.714 -32.626,7.967C-32.201,8.21 -31.397,8.338 -30.232,8.338L-30.232,9.286L-42.229,9.286L-42.229,8.338L-41.722,8.338C-40.593,8.338 -39.798,8.155 -39.355,7.812C-38.903,7.471 -38.587,6.964 -38.416,6.296C-38.344,6.034 -38.308,5.203 -38.308,3.811L-38.308,-6.115C-38.308,-8.32 -38.597,-9.918 -39.165,-10.92C-39.744,-11.914 -40.71,-12.411 -42.065,-12.411C-44.161,-12.411 -46.256,-11.265 -48.334,-8.97L-48.334,3.811C-48.334,5.447 -48.243,6.458 -48.044,6.847C-47.801,7.36 -47.458,7.74 -47.023,7.975C-46.59,8.21 -45.714,8.338 -44.396,8.338L-44.396,9.286L-56.382,9.286L-56.382,8.338L-55.849,8.338C-54.62,8.338 -53.78,8.019 -53.347,7.397C-52.922,6.764 -52.705,5.573 -52.705,3.811L-52.705,-5.194C-52.705,-8.105 -52.769,-9.874 -52.903,-10.504C-53.031,-11.148 -53.238,-11.58 -53.509,-11.808C-53.78,-12.031 -54.15,-12.15 -54.611,-12.15C-55.099,-12.15 -55.695,-12.015 -56.382,-11.752L-56.779,-12.708L-49.472,-15.671L-48.334,-15.671L-48.334,-10.532ZM-62.126,-28.345L-62.126,3.811C-62.126,5.33 -62.009,6.331 -61.792,6.829C-61.575,7.316 -61.232,7.694 -60.771,7.948C-60.311,8.202 -59.462,8.338 -58.206,8.338L-58.206,9.286L-70.084,9.286L-70.084,8.338C-68.973,8.338 -68.215,8.22 -67.817,7.984C-67.411,7.759 -67.085,7.38 -66.859,6.847C-66.634,6.323 -66.517,5.31 -66.517,3.811L-66.517,-18.21C-66.517,-20.946 -66.58,-22.627 -66.697,-23.25C-66.823,-23.874 -67.021,-24.308 -67.293,-24.532C-67.572,-24.769 -67.916,-24.877 -68.341,-24.877C-68.802,-24.877 -69.38,-24.74 -70.084,-24.452L-70.536,-25.382L-63.31,-28.345L-62.126,-28.345ZM-77.156,-15.671L-77.156,3.811C-77.156,5.33 -77.049,6.331 -76.822,6.839C-76.605,7.344 -76.28,7.714 -75.848,7.967C-75.413,8.21 -74.619,8.338 -73.472,8.338L-73.472,9.286L-85.25,9.286L-85.25,8.338C-84.066,8.338 -83.271,8.22 -82.875,7.984C-82.469,7.759 -82.143,7.38 -81.908,6.847C-81.664,6.323 -81.547,5.31 -81.547,3.811L-81.547,-5.537C-81.547,-8.165 -81.628,-9.864 -81.781,-10.642C-81.908,-11.209 -82.106,-11.6 -82.368,-11.816C-82.63,-12.041 -82.992,-12.15 -83.452,-12.15C-83.949,-12.15 -84.546,-12.015 -85.25,-11.752L-85.621,-12.708L-78.322,-15.671L-77.156,-15.671ZM-79.352,-28.345C-78.61,-28.345 -77.979,-28.082 -77.455,-27.569C-76.939,-27.044 -76.679,-26.411 -76.679,-25.671C-76.679,-24.932 -76.939,-24.299 -77.455,-23.767C-77.979,-23.241 -78.61,-22.97 -79.352,-22.97C-80.093,-22.97 -80.725,-23.241 -81.258,-23.767C-81.781,-24.299 -82.053,-24.932 -82.053,-25.671C-82.053,-26.411 -81.791,-27.044 -81.267,-27.569C-80.751,-28.082 -80.11,-28.345 -79.352,-28.345M-84.617,-26.603L-84.617,-25.616C-85.892,-25.392 -86.849,-24.986 -87.508,-24.406C-88.438,-23.539 -89.27,-22.211 -89.992,-20.433L-102.512,10.106L-103.487,10.106L-116.928,-20.829C-117.623,-22.42 -118.103,-23.385 -118.392,-23.738C-118.824,-24.289 -119.366,-24.714 -120.017,-25.022C-120.658,-25.337 -121.525,-25.528 -122.618,-25.616L-122.618,-26.603L-107.958,-26.603L-107.958,-25.616C-109.62,-25.463 -110.695,-25.174 -111.191,-24.777C-111.68,-24.369 -111.933,-23.846 -111.933,-23.215C-111.933,-22.329 -111.525,-20.956 -110.713,-19.087L-101.581,1.952L-93.118,-18.817C-92.286,-20.866 -91.871,-22.283 -91.871,-23.078C-91.871,-23.594 -92.124,-24.081 -92.639,-24.551C-93.153,-25.012 -94.012,-25.346 -95.23,-25.536C-95.321,-25.555 -95.467,-25.58 -95.683,-25.616L-95.683,-26.603L-84.617,-26.603ZM296.807,33.927C297.602,33.927 298.278,34.206 298.849,34.775C299.408,35.336 299.687,36.014 299.687,36.806C299.687,37.601 299.408,38.28 298.849,38.847C298.278,39.41 297.602,39.699 296.807,39.699C296.012,39.699 295.334,39.41 294.767,38.847C294.206,38.28 293.926,37.601 293.926,36.806C293.926,36.014 294.196,35.336 294.757,34.775C295.308,34.206 295.994,33.927 296.807,33.927M290.512,52.66L301.729,52.66C301.64,51.105 301.459,50.014 301.17,49.382C300.736,48.396 300.076,47.62 299.2,47.052C298.324,46.492 297.412,46.202 296.464,46.202C295,46.202 293.691,46.769 292.534,47.91C291.378,49.048 290.7,50.637 290.512,52.66M290.512,54.195C290.493,57.801 291.36,60.618 293.131,62.669C294.892,64.71 296.97,65.73 299.345,65.73C300.935,65.73 302.316,65.297 303.49,64.42C304.665,63.554 305.642,62.055 306.435,59.939L307.258,60.464C306.888,62.886 305.812,65.09 304.033,67.066C302.244,69.056 300.014,70.049 297.339,70.049C294.423,70.049 291.929,68.919 289.861,66.651C287.784,64.385 286.753,61.332 286.753,57.502C286.753,53.355 287.81,50.122 289.942,47.808C292.063,45.489 294.729,44.323 297.945,44.323C300.663,44.323 302.895,45.218 304.638,47.014C306.381,48.804 307.258,51.195 307.258,54.195L290.512,54.195ZM265.978,50.942L265.978,65.441C266.873,66.327 267.803,66.995 268.77,67.437C269.727,67.889 270.711,68.116 271.723,68.116C273.321,68.116 274.821,67.23 276.204,65.47C277.586,63.707 278.281,61.14 278.281,57.771C278.281,54.666 277.586,52.282 276.204,50.609C274.821,48.947 273.249,48.107 271.479,48.107C270.549,48.107 269.609,48.35 268.68,48.822C267.974,49.173 267.07,49.887 265.978,50.942M265.978,49.246C268.326,45.983 270.856,44.349 273.575,44.349C276.059,44.349 278.227,45.416 280.078,47.538C281.93,49.671 282.86,52.569 282.86,56.264C282.86,60.563 281.434,64.032 278.57,66.661C276.122,68.919 273.385,70.049 270.368,70.049C268.959,70.049 267.523,69.795 266.068,69.28C264.614,68.764 263.124,67.998 261.606,66.975L261.606,41.865C261.606,39.109 261.543,37.423 261.407,36.78C261.28,36.147 261.073,35.716 260.794,35.489C260.505,35.254 260.151,35.144 259.728,35.144C259.239,35.144 258.617,35.281 257.876,35.569L257.506,34.639L264.786,31.678L265.978,31.678L265.978,49.246ZM230.858,45.063L242.158,45.063L242.158,46.049L241.607,46.049C240.813,46.049 240.216,46.221 239.818,46.561C239.422,46.907 239.223,47.33 239.223,47.847C239.223,48.532 239.513,49.49 240.099,50.7L245.997,62.93L251.427,49.544C251.725,48.811 251.869,48.098 251.869,47.393C251.869,47.077 251.806,46.843 251.688,46.681C251.544,46.492 251.327,46.337 251.028,46.221C250.722,46.101 250.197,46.049 249.439,46.049L249.439,45.063L257.325,45.063L257.325,46.049C256.675,46.121 256.168,46.256 255.816,46.473C255.464,46.681 255.075,47.077 254.651,47.665C254.488,47.91 254.19,48.588 253.748,49.697L243.884,73.888C242.926,76.235 241.68,78.007 240.136,79.208C238.591,80.409 237.109,81.005 235.673,81.005C234.635,81.005 233.776,80.707 233.108,80.101C232.439,79.506 232.104,78.817 232.104,78.042C232.104,77.301 232.35,76.705 232.828,76.255C233.315,75.802 233.984,75.577 234.833,75.577C235.411,75.577 236.206,75.774 237.209,76.163C237.914,76.426 238.356,76.56 238.537,76.56C239.061,76.56 239.639,76.28 240.271,75.739C240.894,75.186 241.526,74.131 242.158,72.559L243.884,68.358L235.177,50.067C234.905,49.524 234.49,48.84 233.902,48.035C233.459,47.413 233.099,46.997 232.819,46.789C232.413,46.509 231.763,46.256 230.858,46.049L230.858,45.063ZM203.896,45.063L215.304,45.063L215.304,46.049L214.555,46.049C213.868,46.049 213.344,46.211 212.983,46.546C212.622,46.889 212.44,47.33 212.44,47.899C212.44,48.514 212.631,49.246 213.001,50.095L218.638,63.481L224.301,49.589C224.708,48.603 224.906,47.855 224.906,47.34C224.906,47.096 224.834,46.897 224.698,46.734C224.5,46.473 224.256,46.293 223.957,46.191C223.65,46.093 223.046,46.049 222.124,46.049L222.124,45.063L230.036,45.063L230.036,46.049C229.125,46.121 228.482,46.302 228.13,46.598C227.517,47.132 226.966,48.016 226.469,49.246L217.87,70.049L216.785,70.049L208.132,49.589C207.744,48.64 207.374,47.955 207.021,47.538C206.659,47.124 206.217,46.78 205.666,46.501C205.368,46.337 204.772,46.183 203.896,46.049L203.896,45.063ZM189.073,46.076C188.143,46.076 187.203,46.346 186.255,46.907C185.315,47.467 184.549,48.431 183.971,49.832C183.382,51.223 183.093,53.014 183.093,55.199C183.093,58.729 183.798,61.774 185.198,64.331C186.598,66.887 188.45,68.17 190.744,68.17C192.451,68.17 193.86,67.465 194.979,66.056C196.092,64.638 196.643,62.217 196.643,58.774C196.643,54.468 195.721,51.08 193.86,48.613C192.614,46.916 191.016,46.076 189.073,46.076M189.896,44.349C193.562,44.349 196.507,45.75 198.738,48.532C200.626,50.918 201.565,53.652 201.565,56.732C201.565,58.91 201.042,61.104 200.003,63.328C198.964,65.55 197.527,67.23 195.703,68.358C193.879,69.488 191.846,70.049 189.606,70.049C185.948,70.049 183.049,68.594 180.898,65.683C179.083,63.227 178.17,60.472 178.17,57.43C178.17,55.199 178.722,52.995 179.823,50.8C180.926,48.603 182.38,46.977 184.178,45.931C185.975,44.875 187.881,44.349 189.896,44.349M170.023,37.105L170.023,45.063L175.686,45.063L175.686,46.916L170.023,46.916L170.023,62.64C170.023,64.214 170.249,65.268 170.7,65.81C171.143,66.361 171.722,66.634 172.427,66.634C173.013,66.634 173.573,66.454 174.124,66.091C174.666,65.73 175.09,65.198 175.397,64.493L176.428,64.493C175.804,66.218 174.937,67.518 173.809,68.393C172.679,69.271 171.514,69.705 170.312,69.705C169.499,69.705 168.705,69.479 167.928,69.026C167.151,68.576 166.582,67.933 166.212,67.095C165.841,66.264 165.651,64.972 165.651,63.22L165.651,46.916L161.822,46.916L161.822,46.049C162.789,45.661 163.782,45 164.793,44.079C165.806,43.148 166.717,42.048 167.504,40.782C167.91,40.114 168.479,38.886 169.201,37.105L170.023,37.105ZM157.559,44.349L157.559,52.604L156.682,52.604C156.014,50.014 155.155,48.253 154.107,47.312C153.051,46.383 151.714,45.914 150.097,45.914C148.859,45.914 147.865,46.239 147.108,46.897C146.348,47.548 145.969,48.268 145.969,49.064C145.969,50.051 146.249,50.898 146.81,51.603C147.36,52.326 148.472,53.094 150.151,53.906L154.009,55.786C157.595,57.528 159.383,59.833 159.383,62.695C159.383,64.898 158.552,66.671 156.881,68.023C155.219,69.371 153.349,70.049 151.289,70.049C149.799,70.049 148.11,69.785 146.204,69.254C145.626,69.082 145.147,68.991 144.777,68.991C144.371,68.991 144.054,69.218 143.82,69.679L142.952,69.679L142.952,61.023L143.82,61.023C144.315,63.49 145.265,65.35 146.655,66.606C148.047,67.863 149.609,68.485 151.334,68.485C152.554,68.485 153.548,68.133 154.315,67.42C155.083,66.697 155.462,65.839 155.462,64.837C155.462,63.617 155.038,62.597 154.18,61.765C153.331,60.932 151.624,59.887 149.059,58.613C146.502,57.347 144.831,56.201 144.035,55.181C143.242,54.169 142.844,52.902 142.844,51.368C142.844,49.372 143.531,47.703 144.896,46.364C146.259,45.027 148.028,44.349 150.196,44.349C151.153,44.349 152.31,44.557 153.665,44.965C154.568,45.225 155.164,45.36 155.462,45.36C155.752,45.36 155.968,45.3 156.131,45.172C156.284,45.046 156.475,44.774 156.682,44.349L157.559,44.349ZM133.875,37.105L133.875,45.063L139.538,45.063L139.538,46.916L133.875,46.916L133.875,62.64C133.875,64.214 134.101,65.268 134.552,65.81C134.995,66.361 135.572,66.634 136.277,66.634C136.864,66.634 137.424,66.454 137.975,66.091C138.517,65.73 138.941,65.198 139.249,64.493L140.279,64.493C139.655,66.218 138.788,67.518 137.659,68.393C136.53,69.271 135.364,69.705 134.163,69.705C133.351,69.705 132.556,69.479 131.778,69.026C131.003,68.576 130.433,67.933 130.063,67.095C129.692,66.264 129.503,64.972 129.503,63.22L129.503,46.916L125.674,46.916L125.674,46.049C126.64,45.661 127.633,45 128.645,44.079C129.656,43.148 130.568,42.048 131.354,40.782C131.761,40.114 132.33,38.886 133.053,37.105L133.875,37.105ZM116.514,64.097L116.514,54.854C113.849,55.922 112.133,56.671 111.356,57.103C109.956,57.882 108.962,58.693 108.365,59.543C107.761,60.391 107.463,61.312 107.463,62.326C107.463,63.591 107.843,64.645 108.601,65.485C109.359,66.316 110.235,66.742 111.221,66.742C112.566,66.742 114.328,65.856 116.514,64.097M116.514,65.81C114.029,67.735 112.467,68.847 111.825,69.143C110.877,69.587 109.865,69.812 108.79,69.812C107.111,69.812 105.729,69.234 104.645,68.088C103.561,66.94 103.019,65.431 103.019,63.561C103.019,62.38 103.281,61.357 103.813,60.492C104.536,59.3 105.791,58.171 107.58,57.103C109.368,56.047 112.35,54.764 116.514,53.248L116.514,52.289C116.514,49.879 116.135,48.216 115.366,47.312C114.599,46.419 113.479,45.968 112.016,45.968C110.904,45.968 110.019,46.264 109.368,46.87C108.7,47.467 108.365,48.152 108.365,48.931L108.421,50.465C108.421,51.278 108.212,51.9 107.797,52.344C107.382,52.787 106.84,53.004 106.171,53.004C105.512,53.004 104.979,52.777 104.563,52.316C104.148,51.856 103.939,51.232 103.939,50.437C103.939,48.921 104.717,47.53 106.271,46.256C107.824,44.991 110.001,44.349 112.81,44.349C114.96,44.349 116.722,44.712 118.104,45.433C119.142,45.983 119.91,46.843 120.407,48.008C120.723,48.765 120.876,50.31 120.876,52.66L120.876,60.889C120.876,63.201 120.922,64.62 121.012,65.142C121.103,65.658 121.247,66.011 121.445,66.181C121.654,66.361 121.888,66.454 122.149,66.454C122.43,66.454 122.683,66.389 122.891,66.264C123.261,66.037 123.975,65.388 125.031,64.331L125.031,65.81C123.063,68.459 121.175,69.785 119.368,69.785C118.51,69.785 117.824,69.488 117.309,68.884C116.793,68.286 116.531,67.257 116.514,65.81M79.858,68.884L81.231,68.884C80.78,69.804 80.545,70.673 80.545,71.504C80.545,72.982 81.006,74.148 81.918,74.999C83.137,76.107 84.564,76.66 86.208,76.66C87.211,76.66 88.268,76.463 89.36,76.055L89.912,76.903C88.358,77.769 87.193,78.322 86.425,78.556C85.648,78.793 84.772,78.91 83.806,78.91C81.882,78.91 80.392,78.439 79.325,77.481C78.269,76.533 77.745,75.387 77.745,74.041C77.745,73.109 77.935,72.171 78.313,71.222C78.693,70.283 79.208,69.497 79.858,68.884M83.382,45.063L83.382,59.751C83.382,62.559 83.445,64.274 83.58,64.898C83.716,65.531 83.923,65.966 84.212,66.209C84.511,66.463 84.845,66.58 85.233,66.58C85.784,66.58 86.398,66.434 87.085,66.129L87.455,67.057L80.202,70.049L79.019,70.049L79.019,64.918C76.932,67.176 75.343,68.594 74.249,69.172C73.156,69.759 72,70.049 70.79,70.049C69.426,70.049 68.252,69.66 67.249,68.874C66.255,68.088 65.56,67.077 65.172,65.839C64.782,64.6 64.594,62.858 64.594,60.598L64.594,49.78C64.594,48.632 64.467,47.838 64.223,47.393C63.979,46.952 63.608,46.617 63.12,46.374C62.643,46.138 61.757,46.031 60.492,46.049L60.492,45.063L68.983,45.063L68.983,61.287C68.983,63.544 69.38,65.025 70.166,65.73C70.952,66.444 71.9,66.796 73.012,66.796C73.771,66.796 74.629,66.554 75.586,66.083C76.553,65.603 77.69,64.69 79.019,63.353L79.019,49.617C79.019,48.244 78.766,47.312 78.259,46.825C77.754,46.346 76.715,46.084 75.126,46.049L75.126,45.063L83.382,45.063ZM54.115,37.105L54.115,45.063L59.779,45.063L59.779,46.916L54.115,46.916L54.115,62.64C54.115,64.214 54.341,65.268 54.793,65.81C55.235,66.361 55.813,66.634 56.518,66.634C57.105,66.634 57.665,66.454 58.217,66.091C58.758,65.73 59.183,65.198 59.489,64.493L60.52,64.493C59.896,66.218 59.028,67.518 57.9,68.393C56.771,69.271 55.605,69.705 54.404,69.705C53.591,69.705 52.797,69.479 52.021,69.026C51.243,68.576 50.674,67.933 50.304,67.095C49.934,66.264 49.743,64.972 49.743,63.22L49.743,46.916L45.914,46.916L45.914,46.049C46.88,45.661 47.874,45 48.886,44.079C49.896,43.148 50.81,42.048 51.596,40.782C52.002,40.114 52.571,38.886 53.293,37.105L54.115,37.105ZM27.044,49.49C29.88,46.066 32.591,44.349 35.164,44.349C36.492,44.349 37.631,44.683 38.579,45.344C39.536,46.003 40.295,47.096 40.855,48.613C41.243,49.671 41.434,51.296 41.434,53.482L41.434,63.834C41.434,65.358 41.56,66.408 41.813,66.95C42.002,67.392 42.318,67.735 42.752,67.988C43.177,68.231 43.98,68.358 45.146,68.358L45.146,69.307L33.15,69.307L33.15,68.358L33.656,68.358C34.785,68.358 35.58,68.179 36.022,67.835C36.475,67.492 36.791,66.985 36.962,66.316C37.034,66.056 37.07,65.223 37.07,63.834L37.07,53.906C37.07,51.704 36.781,50.102 36.212,49.101C35.634,48.107 34.668,47.61 33.313,47.61C31.218,47.61 29.121,48.758 27.044,51.053L27.044,63.834C27.044,65.47 27.134,66.479 27.333,66.869C27.577,67.385 27.92,67.763 28.354,67.998C28.787,68.231 29.663,68.358 30.982,68.358L30.982,69.307L18.996,69.307L18.996,68.358L19.529,68.358C20.758,68.358 21.598,68.043 22.03,67.42C22.455,66.787 22.673,65.596 22.673,63.834L22.673,54.828C22.673,51.92 22.609,50.148 22.474,49.516C22.347,48.876 22.14,48.44 21.869,48.216C21.598,47.991 21.228,47.873 20.767,47.873C20.279,47.873 19.683,48.008 18.996,48.268L18.599,47.312L25.906,44.349L27.044,44.349L27.044,49.49Z" style="fill:white;fill-rule:nonzero;"/>
                </g>
            </g>
        </g>
    </g>
</svg>
