<?xml version="1.0" encoding="UTF-8" standalone="no"?>
<!DOCTYPE svg PUBLIC "-//W3C//DTD SVG 1.1//EN" "http://www.w3.org/Graphics/SVG/1.1/DTD/svg11.dtd">
<svg width="100%" height="100%" viewBox="0 0 1572 657" version="1.1" xmlns="http://www.w3.org/2000/svg" xmlns:xlink="http://www.w3.org/1999/xlink" xml:space="preserve" xmlns:serif="http://www.serif.com/" style="fill-rule:evenodd;clip-rule:evenodd;stroke-linejoin:round;stroke-miterlimit:2;">
    <g>
        <g transform="matrix(1.58739,0,0,1.58739,-788.834,4.37177)">
            <path d="M1288.26,315.152L1310.07,315.152L1290.14,255.17L1290.51,254.982C1295.59,252.537 1299.54,248.965 1302.17,244.264C1304.99,239.563 1306.31,234.11 1306.31,227.529L1306.31,211.922C1306.31,205.529 1304.99,200.076 1302.17,195.563C1299.54,190.863 1295.59,187.478 1290.51,185.034C1285.43,182.777 1279.42,181.649 1272.27,181.649L1240.12,181.649L1240.12,315.152L1260.05,315.152L1260.05,258.743L1271.33,258.743L1288.26,315.152ZM1260.05,239.563L1260.05,200.828L1273.78,200.828C1276.22,200.828 1278.48,201.204 1280.36,202.333C1282.05,203.273 1283.56,204.777 1284.5,206.657C1285.43,208.538 1286,210.794 1286,213.427L1286,227.717C1285.81,230.162 1285.43,232.418 1284.31,234.11C1283.37,235.803 1282.05,237.119 1280.17,238.059C1278.48,238.999 1276.22,239.563 1273.78,239.563L1260.05,239.563Z" style="fill:rgb(35,31,32);fill-rule:nonzero;"/>
        </g>
        <g transform="matrix(1.58739,0,0,1.58739,-788.834,4.37177)">
            <path d="M1101.42,188.865C1101.65,186.711 1102.22,184.53 1102.04,182.41C1100.59,164.675 1098.99,146.953 1097.45,129.226C1096.22,115.149 1094.99,101.072 1093.83,86.99C1093.65,84.74 1093.68,82.443 1093.89,80.195C1094.57,73.2 1102.05,65.832 1110.95,68.624C1116.79,70.454 1121.02,74.024 1124.02,79.204C1127.13,84.579 1128.82,90.461 1129.31,96.586C1130.54,111.89 1131.54,127.212 1132.63,142.527C1133.37,152.969 1134.02,163.42 1134.94,173.846C1135.15,176.186 1136.11,178.542 1137.15,180.684C1137.54,181.505 1139.26,182.308 1140.13,182.098C1140.95,181.901 1141.97,180.368 1141.99,179.402C1142.08,175.399 1141.96,171.378 1141.67,167.382C1140.24,147.545 1138.62,127.72 1137.34,107.874C1137.11,104.315 1137.72,100.529 1138.78,97.106C1140.17,92.603 1142.92,91.237 1147.61,91.475C1152.57,91.726 1156.73,93.794 1160.12,97.281C1166.04,103.365 1169.48,110.71 1170.21,119.163C1172.35,144.018 1174.38,168.883 1176.45,193.743C1176.49,194.265 1176.48,194.8 1176.6,195.305C1177.02,197.081 1177.66,198.786 1179.9,198.664C1182.27,198.535 1182.64,196.586 1182.54,194.863C1182.29,190.514 1181.78,186.18 1181.35,181.841C1179.74,165.349 1178.12,148.857 1176.51,132.366C1176.47,132.018 1176.42,131.668 1176.43,131.322C1176.51,129.308 1175.65,126.467 1178.2,125.937C1179.84,125.595 1182.25,126.799 1183.7,128.031C1191.14,134.326 1196.58,142.181 1200.82,150.913C1206.37,162.336 1209.44,174.485 1210.99,186.997C1213.3,205.624 1213.24,224.299 1210.06,242.812C1205.31,270.449 1194.33,295.056 1174.13,315.147C1147.02,342.093 1112.4,346.287 1080,333.205C1048.22,320.377 1021.17,286.729 1014.77,253.116C1013.94,248.771 1013.88,244.477 1015.13,240.175C1016.94,233.985 1021.09,230.54 1027.33,229.44C1033.8,228.3 1039.79,229.294 1043.58,235.082C1045.82,238.496 1047.45,242.528 1048.43,246.509C1051.15,257.565 1059.46,265.126 1070.3,265.709C1081.39,266.305 1090.26,260.025 1094.03,248.958C1096.1,242.879 1096.51,236.625 1095.6,230.351C1094,219.371 1086.73,211.821 1075.96,209.023C1069.66,207.386 1063.71,208.095 1058.39,211.515C1054.03,214.317 1049.97,217.704 1046.22,221.295C1041.1,226.209 1035.32,228.607 1028.23,227.849C1021.31,227.109 1016.46,222.063 1015.98,215.112C1015.59,209.401 1017.73,204.507 1020.79,199.939C1028.27,188.764 1038.78,181.585 1051.42,177.496C1065.88,172.816 1079.65,174.757 1092.5,182.783C1095.24,184.496 1097.53,186.915 1100.04,189.008C1100.5,188.96 1100.96,188.913 1101.42,188.865Z" style="fill:rgb(35,31,32);fill-rule:nonzero;"/>
        </g>
        <g transform="matrix(1.58739,0,0,1.58739,-788.834,4.37177)">
            <path d="M717.551,259.871L693.106,181.649L674.115,181.649L674.115,315.152L692.918,315.152L692.918,217.939L690.85,225.649L711.91,292.4L723.38,292.4L744.439,223.956L742.935,217.939L742.935,315.152L761.174,315.152L761.174,181.649L742.747,181.649L717.551,259.871Z" style="fill:rgb(35,31,32);fill-rule:nonzero;"/>
        </g>
        <g transform="matrix(1.58739,0,0,1.58739,-788.834,4.37177)">
            <path d="M779.543,315.153L837.833,315.153L837.833,295.785L799.663,295.785L799.663,258.555L833.32,258.555L833.32,239.187L799.663,239.187L799.663,201.016L837.833,201.016L837.833,181.649L779.543,181.649L779.543,315.153Z" style="fill:rgb(35,31,32);fill-rule:nonzero;"/>
        </g>
        <g transform="matrix(1.58739,0,0,1.58739,-788.834,4.37177)">
            <path d="M851.735,315.153L870.539,315.153L870.539,220.572L867.906,223.58L901.564,315.153L918.299,315.153L918.299,181.649L899.684,181.649L899.684,280.366L902.316,277.358L868.282,181.649L851.735,181.649L851.735,315.153Z" style="fill:rgb(35,31,32);fill-rule:nonzero;"/>
        </g>
        <g transform="matrix(1.58739,0,0,1.58739,-788.834,4.37177)">
            <path d="M934.911,200.828L957.852,200.828L957.852,315.153L977.971,315.153L977.971,200.828L1000.91,200.828L1000.91,181.649L934.911,181.649L934.911,200.828Z" style="fill:rgb(35,31,32);fill-rule:nonzero;"/>
        </g>
    </g>
</svg>
