<svg enable-background="new 0 0 850.394 450.858" viewBox="0 0 850.394 450.858" xmlns="http://www.w3.org/2000/svg"><g clip-rule="evenodd" fill="#000002" fill-rule="evenodd"><path d="m59.466 233.788c0 .679-.272 1.292-.681 1.633-.475.406-1.086.612-1.63.612-.544.067-1.157-.137-1.632-.409-.476-.34-.816-.95-.816-1.7-.069-.679.203-1.289.612-1.63.475-.409 1.019-.61 1.564-.61.544-.072 1.154.066 1.632.338.476.407.816 1.02.816 1.698zm12.369 22.157-1.564.272-.61-2.173-.613-.476-13.119 2.786c-.338.069-.747.138-1.019.204-.338.069-.679.272-.951.272-.542.137-1.088.409-1.495.613-.475.272-.951.679-1.291 1.088-.613.747-1.02 1.63-1.157 2.649-.135 1.019-.135 2.039.069 3.126.203.953.61 1.973 1.154 2.855.546.884 1.294 1.495 2.178 1.904.476.272 1.017.407 1.562.407.544.068 1.088.137 1.631 0 .272-.067.679-.067.951-.135.34-.068.748-.137 1.088-.203l12.845-2.72.478-.747-.137-2.176 1.495-.339 1.632 7.612-1.564.271-.679-2.107-.747-.544-13.188 2.789c-.407.066-.814.204-1.154.272-.341.067-.816.067-1.156.135-.68.138-1.495.069-2.174 0-.748-.068-1.563-.272-2.242-.61-.818-.478-1.632-1.225-2.175-2.042-.613-.95-1.089-1.97-1.429-2.921-.066-.34-.201-.681-.272-.953-.067-.338-.203-.747-.272-1.02-.066-.272-.135-.679-.201-.95-.069-.272-.069-.747-.138-1.088-.069-1.088 0-2.174.138-3.195.201-1.017.61-1.97 1.154-2.784.544-.612 1.086-1.156 1.767-1.428.61-.341 1.36-.748 1.97-.954.409-.066.818-.135 1.156-.203.409-.069.816-.272 1.086-.339l13.526-2.855.341-.681-.272-2.105 1.495-.34zm-18.216 23.585.953 1.973.813.407 19.032-6.526.206-.747-.613-2.242 1.495-.475 2.242 6.456-.882.272-13.729 18.079 16.381-5.641.339-.816-.476-2.242 1.495-.544 2.515 7.339-1.495.544-.951-1.901-.816-.545-2.039.747-19.03 6.526-.75-2.311.547-.816 14.677-19.304-17.535 5.981-.34.882.409 2.244-1.429.476-2.514-7.342zm9.924 26.577-1.36.679 4.215 8.223 1.291-.679-.884-2.176.206-.816 17.941-9.105.206-.137.679.341 1.222 2.039 1.36-.679-4.212-8.226-1.36.681.882 2.107-.203.68-18.013 9.174-.068.068-.679-.203zm30.382 6.523-1.291.819-1.36-1.701-.613-.137-11.825 15.973 19.236-4.552.203-.613-1.157-1.973 1.291-.882 4.08 6.185-1.36.882-1.564-1.698-2.924.613-20.865 4.759-1.36-2.176 1.701-2.31 12.707-17.4-.882-2.108 1.36-.816zm-7.954 28.684-1.086 1.086 12.913 13.867 4.35-4.077-1.291-1.429-3.058 2.039-.815.069-6.729-7.204 7.545-7.069 4.078 4.352-.069.814-1.698 2.107 1.154 1.291 5.981-5.572-1.155-1.291-2.241 1.564h-.816l-4.08-4.352 6.866-6.456 5.776 6.185-.066.884-1.904 2.38 1.426 1.563 3.945-3.67-11.963-12.845-1.156 1.086 1.291 1.563.069.75-14.818 13.864h-.066l-.818-.068zm37.724 5.097c1.698 1.36 3.058 2.989 3.94 4.759.884 1.698.409 3.737-1.292 5.844-1.154 1.495-2.583 2.242-3.943 2.242-1.495-.066-3.056-.407-4.552-1.086 1.088 1.563 1.563 2.855 1.497 3.737-.137.953-.409 1.97-.884 2.855-.341.475-.613 1.157-.885 1.7-.272.61-.544 1.426-.613 2.174-.066.953.069 1.835.613 2.38.544.679 1.089 1.291 1.769 1.835l.066.066.069.069-.815 1.02c-.135-.067-.407-.203-.476-.272-.204-.135-.406-.272-.544-.407-.204-.203-.544-.409-.816-.544-.203-.203-.544-.409-.747-.544-.951-.816-1.63-1.698-1.97-2.649-.34-1.019-.206-2.379.407-3.943.34-.613.612-1.291.815-1.835.272-.475.409-1.157.544-1.564.544-1.291.679-2.514.407-3.261-.203-.75-1.155-1.904-2.717-3.127l-1.089-1.019-5.574 6.863.137.816 1.495 1.495-.951 1.157-6.797-5.506.951-1.156 1.701 1.088.885.069v-.069l12.776-15.768-.203-.816-1.495-1.36.951-1.223zm-10.196 7.135 6.525-7.952 1.767 1.429c.069.066.138.135.272.203.068.066.135.135.203.204.476.34.885.884 1.291 1.36.476.475.747 1.088.951 1.563.206.882.138 1.767-.135 2.649-.272.75-.613 1.565-1.154 2.176l-.206.272c-1.292 1.36-2.717 1.835-4.008 1.495-1.223-.406-2.583-1.019-3.74-1.97-.203-.203-.475-.341-.747-.544-.203-.135-.476-.407-.679-.613-.068 0-.203-.067-.272-.135zm9.514 22.296-.066.067c.475.544 1.086 1.222 1.698 1.697.681.545 1.36 1.089 2.039 1.429.272.138.475.34.681.475.203.138.406.206.679.341.204.135.544.271.816.409.203.135.475.272.747.407 1.835.815 3.874 1.085 5.912.882 1.904-.204 3.533-1.289 4.69-3.33.816-1.495.885-3.056.272-4.486-.613-1.426-1.36-2.786-2.38-4.009-.206-.272-.475-.61-.613-.884-.203-.204-.475-.542-.679-.816-.137-.135-.271-.406-.409-.61-.135-.137-.338-.409-.475-.544-.476-.747-.882-1.632-1.154-2.446-.272-.75-.137-1.7.407-2.585.613-1.223 1.632-1.901 2.923-2.105 1.223-.138 2.517 0 3.671.544l.066.066.137.069c.613.34 1.157.816 1.564 1.291.34.544.679 1.156.815 1.835l-1.156 3.262 1.632.953 2.786-4.962c-.544-.478-1.089-1.088-1.698-1.563-.682-.544-1.291-1.089-1.973-1.564-.203-.138-.475-.34-.747-.475-.204-.137-.475-.272-.679-.41-1.767-1.019-3.806-1.426-5.913-1.223-2.176.204-3.805 1.36-4.893 3.399-.747 1.291-.953 2.717-.477 4.077.477 1.36 1.088 2.72 1.904 3.806.272.274.613.681.95 1.022.341.407.681.882 1.022 1.289.814.884 1.427 2.039 1.971 3.06.406 1.088.272 2.242-.272 3.33-.816 1.426-1.901 2.107-3.261 2.176-1.291 0-2.651-.341-3.943-1.022-.544-.338-1.292-.816-1.767-1.291-.547-.407-.953-.882-1.36-1.36l-.137-.88 1.701-3.876-1.973-1.088zm18.217 9.108 2.107.882.679-.34h.069l8.495-18.42-.203-.61-2.039-1.088.679-1.429 8.361 3.942-.682 1.36-2.173-.884-.747.205-.135.204-8.499 18.214.339.747 2.11 1.225-.681 1.291-8.358-3.876zm20.254-16.314-.749-.203-1.63 5.437 1.904.613 1.561-3.061.75-.406 5.232 1.563-5.844 19.304-.203.611-.747.34-2.379-.544-.476 1.426 9.174 2.855.409-1.426-2.242-.951-.409-.681 5.847-19.236.203-.679 5.369 1.632.406.814-.541 3.332 1.901.61 1.698-5.437zm31.334 6.527.951 2.987 6.388 20.73 2.107.612-.135 1.495-8.292-.61.135-1.497h2.244l.273-.542-2.108-7.138-8.701-.61-3.127 6.795.341.544 2.379.338-.069 1.497-7.204-.474.135-1.495 2.107-.341 1.359-2.717 8.768-19.71zm-6.254 13.797 7.339.544-3.059-10.537zm20.052 11.212-.478-6.457 2.245-.135.679 4.143.61.681c.544.206 1.157.407 1.838.476.679.068 1.495.068 2.174.068 1.426-.137 2.786-.544 3.874-1.291 1.088-.816 1.632-1.97 1.494-3.602-.066-1.222-.61-2.31-1.563-2.921-.951-.615-2.107-1.156-3.262-1.497-.544-.203-1.088-.407-1.563-.542-.476-.071-.951-.274-1.36-.343-1.291-.475-2.583-1.288-3.668-2.173-1.157-.884-1.769-2.176-1.904-3.671-.135-2.31.612-4.146 2.31-5.437 1.698-1.36 3.602-2.108 5.641-2.242.272-.066.544-.066.816-.066h.882c.816 0 1.632.135 2.448.201.816.135 1.632.341 2.311.407l.409 5.712-1.904.135-.816-3.398c-.475-.475-1.154-.815-1.698-1.088-.61-.204-1.291-.269-1.972-.269h-.135l-.135.066c-1.225.135-2.448.679-3.401 1.495-.951.885-1.426 2.038-1.357 3.398.135 1.02.475 1.835 1.154 2.38.613.475 1.429 1.019 2.245 1.36.271.068.544.203.747.272s.475.203.679.272c.272.135.679.203.951.338.34.137.747.203 1.019.34 1.497.475 2.923 1.225 4.214 2.107 1.292.814 2.041 2.176 2.176 3.943.203 2.242-.613 4.077-2.11 5.301-1.629 1.291-3.464 2.175-5.435 2.516h-.882c-.274.066-.612.135-.884.135-.272.068-.544.068-.747.068h-.816c-.816.069-1.632 0-2.448-.137-.813-.066-1.699-.272-2.446-.476zm36.226-30.652.61 1.426-2.039.951-.204.546 13.185 14.884-.475-19.71-.544-.341-2.245.681-.544-1.429 6.935-2.651.541 1.429-1.97 1.223-.066 2.992.338 21.343-2.38.95-1.97-2.175-14.342-16.04-2.174.407-.544-1.427zm26.847 13.865.747 1.36 8.02-4.622-.747-1.293-2.176 1.022-.816-.203-10.058-17.401-.069-.203.272-.681 1.975-1.291-.752-1.358-8.021 4.622.819 1.357 2.036-1.088.682.206 10.127 17.535v.069l-.137.679zm11.759-7.001 1.629-1.357.272-.816-.066-.069-11.622-16.584h-.818l-1.833 1.157-.885-1.291 7.273-5.099.882 1.291-1.564 1.291-.272.747.341.544 11.622 16.584 6.797-4.825.135-.816-2.104-3.942 1.631-1.088 3.872 5.506-14.474 10.058zm17.807-12.233 1.088 1.086 5.503-5.504-1.086-1.02-1.835 1.358h-.885l-13.117-13.118 23.789 4.757 1.019.137 1.698-1.697-14.205-14.205-1.563-1.566.137-.951 1.292-1.698-1.157-1.088-5.438 5.437 1.089 1.155 1.835-1.426h.882l12.235 12.235-22.225-4.487-.681-.61-4.825 4.825 1.088 1.154 1.767-1.564.747-.069 14.205 14.207v.882zm19.708-20.186 1.157-1.769v-.816l-.069-.067-16.177-12.166-.745.204-1.36 1.564-1.223-.951 10.603-14.07 4.281 3.193-1.357 1.769-2.651-1.495-.885.069-5.028 6.795 7.476 5.641 3.602-4.825-.203-.816-1.837-1.901 1.022-1.36 6.523 4.893-1.02 1.36-2.445-1.294-.749.137-3.6 4.756 8.224 6.188 5.981-7.817-.206-.816-2.515-2.717 1.089-1.497 4.825 3.602-11.419 15.089zm14.139-18.76 1.36.747 3.737-6.798-1.291-.679-1.357 1.766-.885.272-16.246-8.971 24.198-2.039 1.019-.068 1.157-2.174-17.603-9.72-1.904-1.088-.135-.953.747-1.968-1.36-.75-3.74 6.797 1.36.747 1.36-1.902.816-.206 15.155 8.361-22.632 1.835-.747-.407-3.333 5.979 1.36.816 1.292-1.97.681-.341 17.601 9.787.206.816zm13.798-25.08-6.05-2.379.816-2.039 4.077 1.155.816-.204c.475-.406.882-.882 1.291-1.495.407-.544.747-1.291 1.02-1.901.541-1.36.681-2.72.541-4.08-.201-1.291-1.086-2.311-2.58-2.924-1.157-.475-2.311-.406-3.264.138-1.02.61-2.039 1.36-2.853 2.311-.34.341-.818.747-1.157 1.154-.272.409-.681.747-.953 1.088-.951.885-2.242 1.701-3.465 2.314-1.292.679-2.787.61-4.146.066-2.176-.816-3.465-2.311-3.943-4.418-.475-2.108-.272-4.146.478-6.047.133-.272.203-.478.338-.747.066-.274.272-.547.338-.816.409-.75.887-1.429 1.294-2.108.475-.679 1.019-1.291 1.357-1.904l5.302 2.173-.679 1.769-3.467-.815c-.613.271-1.223.679-1.7 1.088-.473.475-.814 1.019-1.086 1.698l-.069.137v.069c-.409 1.155-.409 2.512-.137 3.737.409 1.223 1.157 2.176 2.448 2.649.951.41 1.904.41 2.652.069.679-.406 1.561-.882 2.242-1.423.137-.206.34-.41.475-.547.206-.135.478-.338.613-.544.204-.204.476-.476.747-.679.206-.203.478-.544.679-.75 1.157-1.155 2.449-2.105 3.74-2.921 1.36-.747 2.855-.882 4.486-.203 2.176.885 3.465 2.311 3.875 4.281.406 1.973.406 4.011-.135 5.915-.069.272-.206.611-.341.813-.069.272-.137.613-.274.885-.066.204-.201.475-.27.679-.069.272-.274.478-.34.747-.339.747-.747 1.429-1.223 2.176-.409.681-.953 1.428-1.495 1.904v-.071zm6.183-19.166 1.497.406 2.242-8.971-1.426-.34-.816 2.242-.679.475-19.507-4.891-.204-.069-.272-.679.407-2.311-1.495-.409-2.245 8.971 1.498.409.679-2.242.613-.34 19.642 4.893h.066l.409.613zm4.555-13.117-6.388-.954.407-2.174 4.214.272.747-.478c.341-.476.679-1.02.885-1.698.27-.679.407-1.426.542-2.107.206-1.426.068-2.786-.407-4.077-.475-1.223-1.495-2.039-3.126-2.242-1.223-.206-2.38.066-3.193.816-.816.882-1.634 1.835-2.245 2.921-.272.409-.61.951-.816 1.36-.203.475-.476.882-.679 1.291-.747 1.088-1.767 2.176-2.924 3.058-1.088.884-2.514 1.223-4.009 1.019-2.241-.406-3.874-1.564-4.824-3.465-.884-1.973-1.225-4.011-.884-5.981.068-.272.068-.544.135-.816.069-.274.137-.613.206-.885.203-.747.544-1.563.814-2.31.206-.816.612-1.495.885-2.176l5.641.884-.341 1.905h-3.467c-.542.407-1.086.95-1.427 1.426-.338.544-.61 1.222-.679 1.904l-.069.135v.137c-.135 1.223.138 2.446.747 3.602.613 1.155 1.632 1.835 2.924 2.039 1.02.206 1.97 0 2.582-.544.679-.544 1.36-1.154 1.904-1.904.067-.203.272-.407.338-.61.206-.204.409-.476.478-.611.203-.271.338-.681.544-.884.204-.272.407-.613.542-.885.885-1.36 1.904-2.582 2.99-3.67 1.159-1.02 2.585-1.495 4.352-1.223 2.242.341 3.874 1.495 4.69 3.262.885 1.904 1.292 3.874 1.223 5.846-.067.272-.135.61-.135.882-.069.272-.069.613-.069.884-.069.272-.069.544-.135.747-.069.272-.138.545-.206.816-.135.747-.407 1.564-.611 2.311-.272.816-.681 1.632-1.088 2.244zm-10.127-33.85c.069-.679.409-1.291.884-1.563.476-.338 1.085-.475 1.632-.407.541 0 1.154.272 1.561.613.478.407.681 1.02.681 1.764-.069.682-.407 1.294-.885 1.566-.475.338-1.019.475-1.564.406-.541 0-1.154-.204-1.629-.544-.409-.475-.681-1.088-.612-1.766zm-301.844-26.031 1.563.135-.135 2.176.407.475 19.302-4.621-17.67-8.836-.476.34-.406 2.242-1.566-.204.884-7.341 1.564.206.135 2.377 2.583 1.36 19.03 9.787-.338 2.517-2.786.679-20.934 5.166-.681 2.107-1.495-.135zm25.555-14.408 1.497.338 1.904-9.04-1.429-.338-.682 2.311-.679.475-19.711-4.146-.204-.069-.34-.679.409-2.379-1.564-.341-1.904 9.039 1.495.341.613-2.242.61-.341 19.779 4.215h.069l.476.61zm2.311-10.605.478-2.039-.272-.814h-.069l-19.37-5.915-.681.478-.748 2.038-1.495-.406 2.582-8.567 1.495.478-.475 1.97.271.816.679.203 19.304 5.913 2.446-8.02-.475-.679-4.078-1.835.613-1.835 6.457 1.901-5.166 16.856zm5.508-18.079 1.427.613 3.126-7.07-1.36-.61-1.225 1.901-.814.341-16.924-7.544 23.923-4.146.954-.135 1.019-2.244-18.419-8.155-1.971-.885-.271-.951.613-2.039-1.429-.61-3.127 7.067 1.426.61 1.157-1.97.816-.34 15.837 7.069-22.362 3.805-.816-.338-2.787 6.254 1.429.61 1.086-2.036.681-.343 18.351 8.157.341.816zm11.213-22.632 1.155-2.038-.203-.679-.069-.069-17.194-10.74-.613.203-1.357 1.835-1.36-.816 4.894-7.816 1.36.818-1.157 2.105.068.747.203.138 17.06 10.602.747-.206 1.428-1.901 1.291.816-4.895 7.817zm-4.825-34.187 2.989.884 20.73 6.252 1.698-1.358 1.157.882-5.099 6.594-1.155-.953 1.223-1.901-.338-.476-7.07-2.311-5.368 6.864 3.874 6.388.61.068 1.701-1.766 1.154.882-4.418 5.71-1.155-.951.882-1.904-1.495-2.718-11.419-18.285zm7.952 12.913 4.484-5.778-10.397-3.399zm10.128-31.264-6.866 5.913 1.02 1.223 1.7-1.291.748-.069 9.108 10.4c.204.272.542.544.747.884.271.204.544.545.816.814.475.478 1.154.953 1.767 1.362.544.407 1.291.679 2.039.813 1.02.138 2.105 0 3.058-.338.951-.341 1.973-.885 2.855-1.495.272-.206.679-.343.951-.613.206-.137.478-.409.681-.613.203-.135.476-.476.747-.679.203-.206.476-.545.679-.75.681-.745 1.36-1.698 1.836-2.649.544-.884.747-1.904.747-2.923-.069-.748-.203-1.564-.544-2.242-.27-.613-.611-1.36-1.02-1.904-.272-.272-.475-.613-.747-.951-.203-.272-.475-.544-.748-.884l-8.836-10.128.137-.951 1.495-1.632-1.019-1.223-5.846 5.096 1.022 1.223 1.832-1.223h.885l8.63 9.993c.205.27.478.544.681.816.203.203.406.542.612.747.338.407.545.951.814 1.495.206.409.34 1.02.34 1.564.069.882-.135 1.902-.61 2.786-.478.885-1.157 1.769-1.973 2.38-.816.747-1.698 1.223-2.651 1.632-.951.34-1.97.407-2.853.203-.544-.069-1.157-.272-1.566-.544-.475-.272-.882-.613-1.291-1.02-.135-.203-.475-.475-.679-.747-.204-.204-.476-.475-.679-.747l-8.837-10.196.135-.748 1.632-1.563zm28.816 7.748-3.602-5.369 1.904-1.225 2.652 3.264.813.272c.613-.069 1.225-.204 1.836-.475.681-.272 1.36-.613 1.97-1.02 1.156-.749 2.109-1.769 2.722-2.992.611-1.223.476-2.515-.409-3.874-.681-1.019-1.632-1.698-2.72-1.767-1.223-.069-2.514 0-3.668.272-.544.068-1.088.135-1.563.271-.478.203-1.022.272-1.429.338-1.291.272-2.855.137-4.215-.066-1.426-.206-2.582-1.088-3.396-2.311-1.291-1.973-1.498-3.874-.681-5.913.816-1.972 2.107-3.536 3.805-4.69.272-.137.475-.271.681-.409.269-.135.611-.272.816-.407.679-.41 1.495-.681 2.242-1.02.747-.343 1.564-.544 2.176-.749l3.126 4.758-1.564 1.02-2.379-2.582c-.682-.135-1.36-.135-1.973-.069-.679.069-1.291.34-1.902.749l-.137.067-.066.068c-1.022.679-1.769 1.767-2.245 2.923-.406 1.291-.27 2.446.476 3.602.544.882 1.36 1.426 2.175 1.564.747.135 1.767.203 2.651.135.203-.069.476-.135.747-.135.203 0 .544-.069.747-.138.272 0 .679-.135 1.02-.135.271-.069.679-.137 1.019-.204 1.563-.272 3.127-.343 4.69-.206 1.563.138 2.854.884 3.805 2.382 1.291 1.902 1.495 3.872.747 5.707-.814 1.904-2.039 3.536-3.533 4.758-.272.204-.544.34-.747.544-.272.135-.475.338-.747.476-.203.203-.409.34-.613.407-.203.203-.475.272-.681.409-.744.473-1.492.816-2.241 1.089-.748.338-1.63.61-2.377.747zm25.148-39.488.41 1.495-2.107.813-.476.613 3.94 12.913c.069.272.206.681.272.951.137.341.272.682.409.953.135.545.406 1.02.679 1.427.271.477.816.884 1.223 1.156.747.544 1.701.95 2.72.95 1.02.069 2.039-.068 3.058-.338 1.019-.341 1.97-.816 2.786-1.429.816-.612 1.429-1.426 1.701-2.311.203-.475.338-1.088.338-1.563-.066-.544 0-1.154-.203-1.698-.066-.203-.135-.613-.204-.885-.068-.34-.203-.748-.272-1.088l-3.874-12.573-.747-.409-2.173.34-.478-1.495 7.41-2.242.476 1.495-2.107.951-.476.748 3.94 12.845c.138.406.272.815.34 1.156.137.34.204.748.341 1.157.135.679.135 1.426.135 2.173 0 .679-.135 1.564-.476 2.242-.34.884-1.019 1.769-1.835 2.379-.813.681-1.766 1.225-2.717 1.701-.341.066-.681.272-.953.338-.338.069-.679.272-.951.341s-.679.204-.951.272c-.272.135-.747.135-1.088.203-1.02.204-2.176.272-3.196.206-1.019-.137-2.039-.409-2.921-.953-.613-.407-1.225-.951-1.563-1.564-.341-.61-.816-1.357-1.088-1.97-.069-.409-.203-.747-.34-1.088-.066-.409-.272-.747-.338-1.088l-4.08-13.186-.679-.271-2.107.475-.407-1.495zm22.77 17.125 2.244-.475.542-.679-1.767-19.983-.679-.476-2.311.069-.137-1.566 6.866-.542.068.882 14.205 17.67-1.563-17.261-.613-.544-2.379-.068-.135-1.564 7.748-.679.137 1.563-2.11.476-.679.679.204 2.173 1.769 20.052-2.448.204-.613-.748-15.224-18.961 1.632 18.486.679.544 2.31.137.138 1.495-7.748.679zm25.557-1.629 2.311-.068.475-.544v-.069l.747-20.186-.475-.544-2.311-.203.069-1.564 9.243.341-.069 1.563-2.379.067-.611.409-.069.203-.679 20.118.611.612 2.379.272-.066 1.495-9.245-.34zm23.788-20.867-.34 1.495-2.176-.272-.475.341 2.923 19.642 10.4-16.788-.34-.544-2.176-.613.272-1.563 7.273 1.563-.34 1.498-2.308-.069-1.701 2.514-11.35 18.081-2.514-.544-.409-2.855-3.33-21.274-2.039-.885.34-1.495zm12.166 26.167-.613 1.495 17.264 7.683 2.448-5.506-1.767-.747-2.038 3.126-.747.338-8.971-4.008 4.146-9.446 5.503 2.377.272.747-.747 2.651 1.561.679 3.333-7.407-1.564-.75-1.428 2.313-.745.341-5.506-2.448 3.803-8.564 7.751 3.399.271.816-.884 2.989 2.039.884 2.176-4.962-16.109-7.136-.613 1.427 1.769.95.409.681-8.226 18.486-.068.068-.748.272zm39.42-6.184c1.835 1.223 3.333 2.717 4.418 4.349 1.02 1.632.816 3.67-.679 5.981-1.019 1.632-2.311 2.448-3.739 2.583-1.426.135-2.99 0-4.622-.544 1.225 1.426 1.904 2.651 1.904 3.536-.068.951-.203 1.97-.612 2.99-.272.475-.406 1.157-.681 1.697-.202.681-.339 1.495-.404 2.311.066.953.338 1.769.882 2.313.613.544 1.225 1.154 1.97 1.563v.066l.138.069-.749 1.155c-.135-.067-.341-.203-.476-.272-.203-.066-.409-.27-.544-.339-.272-.135-.613-.34-.884-.475-.272-.204-.611-.341-.816-.476-1.02-.681-1.767-1.497-2.242-2.379-.407-.953-.407-2.38 0-4.011.272-.61.475-1.357.61-1.835.206-.544.341-1.223.409-1.629.407-1.36.407-2.583.069-3.333-.34-.747-1.36-1.767-3.06-2.786l-1.223-.882-4.758 7.407.205.747 1.632 1.36-.816 1.223-7.341-4.757.816-1.225 1.836.885.882-.069v-.069l11.012-16.991-.272-.75-1.632-1.221.816-1.291zm-9.381 8.223.069.137c.069 0 .203.066.272.135.206.137.544.34.747.544.272.135.546.272.818.407 1.22.816 2.58 1.293 3.871 1.563 1.36.206 2.717-.406 3.874-1.901l.137-.272c.475-.682.747-1.495.953-2.311.133-.884.133-1.767-.14-2.651-.272-.475-.61-1.019-1.086-1.428-.478-.407-.953-.951-1.497-1.223-.066-.066-.135-.135-.203-.203-.135-.068-.201-.135-.27-.135l-1.973-1.291zm8.837 20.459h-.135c.338.681.815 1.428 1.357 2.107.544.613 1.088 1.223 1.7 1.767.203.203.341.407.547.61.135.138.338.275.542.478.205.203.544.341.747.544.203.136.475.407.679.545 1.632 1.154 3.535 1.835 5.574 2.107 1.971.203 3.737-.544 5.301-2.245 1.156-1.36 1.497-2.855 1.225-4.35s-.816-2.99-1.497-4.484c-.135-.272-.338-.612-.475-.884-.135-.34-.34-.679-.475-.951-.069-.206-.204-.478-.27-.681-.138-.203-.206-.475-.341-.681-.34-.814-.475-1.764-.613-2.58-.066-.816.206-1.701.882-2.517.887-1.02 2.042-1.495 3.333-1.426 1.291.137 2.514.544 3.465 1.291l.069.135.135.069c.547.406.951.953 1.223 1.563.206.612.41 1.292.478 1.973l-1.904 2.99 1.497 1.223 3.737-4.281c-.476-.545-.816-1.292-1.36-1.905-.542-.61-1.017-1.359-1.561-1.904-.206-.203-.41-.475-.615-.61-.201-.203-.404-.407-.61-.544-1.564-1.36-3.465-2.176-5.573-2.446-2.176-.206-4.011.542-5.506 2.311-.954 1.086-1.429 2.514-1.225 3.94.137 1.36.478 2.855 1.022 4.011.203.407.475.882.745 1.292.272.407.478.951.681 1.426.613 1.088 1.022 2.31 1.294 3.467.201 1.089-.137 2.174-.954 3.124-1.088 1.225-2.31 1.701-3.602 1.429-1.359-.203-2.583-.884-3.67-1.766-.476-.476-1.088-1.089-1.495-1.63-.407-.544-.747-1.088-.951-1.632v-.884l2.446-3.465-1.701-1.428zm13.391 10.943 1.632 1.632.745-.069h.069l14.817-13.798v-.679l-1.495-1.835 1.156-1.02 6.32 6.729-1.154 1.088-1.701-1.632-.747-.137-.204.137-14.683 13.73v.815l1.498 1.836-1.089 1.019-6.32-6.729zm26.44-5.71 12.369 15.834-4.484 3.536-1.225-1.632 2.38-2.445.068-.885-3.398-4.416-.544.473-15.837 12.372-.069.816 1.36 2.038-1.222.95-5.846-7.545 1.156-.95 1.629 1.835.815.135.476-.407 15.905-12.438-3.331-4.349-.882-.069-2.991 1.63-1.292-1.561 4.484-3.536zm-5.097 31.74-1.36.747 8.564 16.857 5.301-2.718-.882-1.7-3.536 1.088-.75-.203-4.484-8.768 9.177-4.69 2.717 5.369-.201.681-2.247 1.629.749 1.495 7.271-3.668-.745-1.564-2.583.882-.747-.203-2.719-5.369 8.36-4.215 3.806 7.477-.272.814-2.514 1.771.951 1.902 4.759-2.379-7.952-15.7-1.429.679.816 1.904-.135.747-18.013 9.174-.068.069-.814-.338zm31.943 11.284 6.525 19.029-5.369 1.836-.681-1.904 3.061-1.564.406-.813-1.838-5.234-.61.204-19.03 6.526-.34.748.613 2.379-1.429.544-3.126-9.108 1.428-.475 1.017 2.242.681.407.613-.204 19.098-6.592-1.835-5.168-.748-.407-3.398.613-.679-1.904 5.368-1.901zm11.282 36.158-2.582 1.766-18.146 11.828v2.173l-1.497.272-1.698-8.089 1.426-.34.681 2.175.544.069 6.319-3.943-1.766-8.564-7.408-1.085-.478.406.341 2.449-1.495.338-1.495-7.069 1.495-.341.882 1.973 2.992.544 21.409 3.058zm-15.021-2.245 1.563 7.206 9.246-5.778zm-6.32 19.439 6.457-.473.135 2.242-4.143.679-.681.613c-.206.544-.409 1.154-.478 1.835-.066.679-.066 1.495-.066 2.174.135 1.428.544 2.788 1.291 3.874.816 1.088 1.97 1.632 3.602 1.497 1.223-.068 2.31-.612 2.923-1.563.613-.953 1.155-2.107 1.495-3.264.203-.544.409-1.086.544-1.564.069-.475.272-.951.341-1.357.473-1.292 1.291-2.585 2.176-3.671.882-1.156 2.173-1.767 3.668-1.904 2.31-.135 4.146.613 5.437 2.311 1.36 1.7 2.107 3.601 2.244 5.641.066.272.066.544.066.816v.885c0 .816-.135 1.63-.203 2.446-.137.816-.341 1.632-.407 2.313l-5.71.406-.137-1.904 3.399-.816c.475-.476.816-1.155 1.086-1.698.206-.613.272-1.292.272-1.973v-.135l-.066-.135c-.135-1.225-.679-2.448-1.495-3.399-.885-.953-2.039-1.429-3.399-1.36-1.02.137-1.835.475-2.38 1.157-.475.61-1.019 1.426-1.357 2.239-.071.272-.206.547-.274.75-.066.204-.203.475-.27.679-.138.272-.206.681-.34.953-.135.338-.204.747-.341 1.02-.475 1.495-1.225 2.923-2.107 4.215-.816 1.288-2.173 2.038-3.942 2.173-2.242.204-4.075-.613-5.3-2.108-1.292-1.629-2.176-3.467-2.514-5.437 0-.272 0-.613 0-.882-.069-.272-.138-.613-.138-.885-.066-.272-.066-.544-.066-.747v-.815c-.069-.816 0-1.632.135-2.446.069-.816.272-1.701.476-2.448zm-183.036-91.211c.679 0 1.291.341 1.63.816.409.544.613 1.155.613 1.699 0 .613-.204 1.222-.544 1.698-.407.544-1.02.816-1.698.816-.816 0-1.429-.27-1.767-.748-.409-.475-.612-1.085-.612-1.698s.203-1.223.544-1.698c.406-.544 1.019-.818 1.835-.818v-.067zm23.379-11.146-.067 2.992v21.34l.544.545 4.215.135v1.632h-13.12v-1.632l4.487-.272.475-.61v-21.003l-6.119 1.155v-1.63l8.498-2.583zm22.09.544-.068 2.991h-11.485v7.814c.679-.137 1.495-.271 2.176-.34.679-.066 1.426-.135 1.97-.135 2.717 0 4.893.747 6.253 2.242 1.426 1.495 2.173 3.264 2.173 5.099v.069.066c0 2.855-1.088 5.031-3.126 6.388-2.039 1.429-4.418 2.176-6.933 2.176-.338 0-.816 0-1.223 0-.475 0-1.022-.137-1.495-.203-1.019-.135-2.039-.544-2.855-1.02-.816-.478-1.291-1.291-1.291-2.379 0-.544.27-1.088.679-1.36.407-.272 1.02-.475 1.701-.475l.813-.069 1.426 3.33c.409.137.885.34 1.294.409.406.135.882.203 1.223.203 1.904 0 3.467-.679 4.553-1.902 1.088-1.291 1.701-2.854 1.701-4.623v-.476c0-.135-.069-.406-.069-.544-.272-1.698-1.086-2.924-2.448-3.465-1.357-.613-2.921-1.02-4.553-1.02-.135 0-.34-.069-.475-.069h-.478-1.764c-.544 0-1.157.135-1.632.135v-12.844h13.933zm20.527 0v1.632l-2.039 3.671-10.943 21.34v.747h-3.261l1.767-3.195 10.943-21.204h-11.963l-.613 3.531h-1.902v-6.523h18.011zm3.671 26.371.066-.069.069-.069c2.651-1.223 4.962-2.649 6.729-4.143 1.835-1.498 3.398-3.74 4.623-6.46-1.088.547-2.244.953-3.195 1.088-1.019.206-1.973.34-2.788.34-2.583 0-4.553-.816-5.844-2.446-1.291-1.632-1.973-3.604-1.973-5.643v-.272-.271c.137-2.174 1.02-4.281 2.517-6.048 1.564-1.769 3.874-2.72 6.866-2.72 2.786 0 4.962.951 6.454 2.855 1.498 1.904 2.311 4.283 2.311 7.001 0 4.35-1.495 8.226-4.484 11.487-2.99 3.331-6.457 5.71-10.4 7.07zm11.963-12.642c0-.272.135-.679.135-1.02.069-.34.206-.747.206-1.088 0-.409.066-.816.066-1.156 0-.339.067-.748.067-1.017v-.681c0-.203-.067-.475-.067-.679 0-.475-.137-1.02-.137-1.429-.066-.407-.27-.884-.407-1.291-.339-1.157-1.019-2.108-1.973-2.786-.948-.681-2.105-1.02-3.195-1.02h-.27-.34c-.407 0-.816.135-1.223.272-.406.135-.816.475-1.154.747-.816.679-1.426 1.564-1.838 2.515-.407.95-.679 2.041-.679 3.126v.137.135c0 1.632.475 3.195 1.428 4.555.951 1.357 2.38 2.036 4.282 2.036.681 0 1.563-.135 2.379-.272.816-.201 1.767-.61 2.651-1.017zm17.872-3.127c.681 0 1.294.341 1.632.816.409.544.61 1.155.61 1.699 0 .613-.201 1.222-.541 1.698-.407.544-1.02.816-1.701.816-.814 0-1.423-.27-1.767-.748-.407-.475-.611-1.085-.611-1.698s.203-1.223.545-1.698c.409-.544 1.019-.818 1.832-.818v-.067z"/><path d="m219.617 192.995c-.326-1.495-.522-2.73-.845-4.547 1.169-.13 2.208-.194 3.247-.326-.063-.713-.13-1.492-.193-2.274-.78.196-2.534.39-3.443.715-.326-1.625-.52-2.796-.586-4.744-.52.196-2.012.26-2.47.454.521 1.691.715 3.055.975 4.614-.975.132-1.948.326-3.443.456l.324 2.144c1.171-.194 2.924-.649 3.509-.649.26 1.818.52 3.053.65 4.484-1.039.324-2.338.389-3.379.519l.522 2.404c1.752-.389 2.272-.52 3.183-.845 0 1.495.326 3.575.13 4.744 1.039 0 2.144-.326 2.86-.456-.26-1.493-.652-3.183-.846-4.548 1.428-.196 2.34-.26 3.249-.456l-.389-2.404c-1.17.325-1.43.262-3.055.715z"/><path d="m170.948 195.334c.323-.715.13-1.169-.324-1.818-.586-.13-.781-.456-1.368 0-.323.649-.13 1.363.13 1.948.716.39 1.432.456 1.562-.13z"/><path d="m197.697 335.941c1.624.779 2.534-1.561 1.235-2.144-1.558-.781-2.666 1.299-1.235 2.144z"/><path d="m177.325 291.514c1.428.65 2.337-1.559.715-2.144-1.301-.455-2.406 1.429-.715 2.144z"/><path d="m196.802 289.497c1.302.324 1.885-1.689.586-2.078-1.496-.586-1.884 1.884-.586 2.078z"/><path d="m113.116 145.756c0 39.831-.52 80.184-.26 119.819.13 23.85 9.162 44.511 22.027 59.976 35.934 42.691 106.371 42.041 140.745-3.379 12.281-17.152 18.647-33.332 18.647-56.857 0-5.782.067-14.682.067-21.896v-97.599zm160.01 174.024c-32.377 43.982-101.12 44.744-135.859 3.227-13.291-15.498-20.473-35.067-20.297-55.53 56.369.021 112.735-.042 169.101-.042-1.281 3.102-3.974 6.167-6.729 8.145l-4.369 3.36c-4.053 1.705-7.988 3.71-11.444 6.047l-5.236 3.548c-1.674.809-3.321 1.684-5.011 2.436l-2.291 1.017.034.059c-2.595.737-5.317 1.196-7.976 1.617l-2.703.431.527 1.377c-4.766.449-9.699.319-14.389 1.191-1.957.365-3.822.975-5.685 1.671-1.617.598-3.225 1.257-4.874 1.755-.218.066-.438.127-.659.188-1.754.476-3.557.763-5.339 1.155-.037-.921-.372-1.85-.951-2.62l-.056-.078c.086-.206.16-.424.226-.651l.083-.296v-12.791c.296-1.02.247-2.137-.25-3.279l-.211-.485c.711-1.647.664-3.585-.498-5.151-2.259-3.043-5.785-3.783-9.392-3.558-3.457.218-6.907.513-10.355.848-7.437.723-14.83 1.534-22.286 2.08-3.08.223-4.788 2.201-4.788 5.2 0 17.354.193 34.705.26 52.059l.01 2.207h5.484l2.453.527.014.012c.228.186 1.113.802 1.25 1.007l1.7 2.553.127.292c.297.679.701 1.254 1.198 1.7l1.02.672c.547.25 1.159.387 1.828.387 1.617 0 3.251-.152 4.864-.331l.003.069 14.276-1.62-.015-.179c1.828-.186 3.711-.238 5.499-.666l.281-.067h1.02c1.607 0 5.129-1.053 6.356-2.073 1.497-1.243 2.303-3.137 1.561-5.045l-.392-1.009c.015-.128.022-.26.022-.397 0-1.544-.076-3.164-.037-4.722l3.016-.603 6.401-.857c5.739-.767 10.137-3.904 14.487-7.482 1-.823 2.027-1.698 3.082-2.565.387 3.394 1.588 6.729 3.389 9.607l.304.486.5.279c.412.228.821.372 1.22.441l1.482-.12c.072-.027.14-.054.211-.085l2.377-.963c9.769-3.962 19.226-9.12 28.488-14.141 2.403-1.343 4.788-2.918 7.181-4.323-2.433 4.72-5.496 9.357-9.243 14.079zm-47.143-78.961-5.197-6.109c1.232-.387 2.989-.973 4.288-1.689l5.717 5.653c.328 1.951 1.235 4.29 2.014 5.59-2.534 4.222-4.612 10.395-5.392 14.422-1.884.456-2.729 2.017-1.626 5.656-1.429 0-4.416-.067-5.846-.067 1.235-7.081 10.397-15.464 6.042-23.456zm-29.174-6.109c.129 1.367-2.664 1.691-4.354 2.014-2.598.845-5.068 1.754-7.734 3.251.326-2.6 1.82-3.835 3.575-5.07.909-.453 2.014-.975 2.989-1.885 1.299-3.315 1.299-9.615 1.365-14.748 1.429.13 5.067.39 6.692.453.52 4.418-2.014 7.993-2.533 11.762-.389 2.924-.066 3.25 0 4.223zm-37.623 5.525c-1.039.194-2.404.324-4.158.453-.066-2.404.779-4.418 1.559-5.979 2.47-2.534 5.653-5.391 7.926-7.537.846-.909 1.885-2.012 3.12-2.857l14.232-.975.063-.456c-.908-.586-2.597-.454-3.638-.454l.196-1.624c3.832-1.755 8.187-2.211 12.281-2.47-.066 3.508.13 8.057-.456 11.502-5.198.973-14.815-2.08-20.858-1.951l-10.267 8.189c-.713 1.17-.26 2.858 0 4.159zm6.951-18.453c-3.508 1.168-7.535 3.183-10.72 5.846-.52 1.951.26 3.379.585 5.33-1.301.13-3.768.063-5.329.13h-.13c.648-2.407.909-5.2 1.884-7.214 3.575-2.794 8.709-5.716 13.32-7.733 3.965-.13 7.734 0 11.373.585-.26 1.105-.456 2.21-.585 3.573-3.443-.258-6.759-.517-10.398-.517zm.327 1.558-9.033 8.317c-.456-1.233-.324-2.014-.324-2.794 0-.845.909-1.299 1.622-1.755 2.407-1.56 4.941-2.793 7.735-3.768zm12.411-24.107c1.428-3.639 2.014-7.537-2.21-10.137-.973-.454-2.014-.649-3.119-.779-.13-1.169-.13-2.47-.324-3.573 4.548-.196 11.176 2.404 14.879 5.653 2.274 1.818 4.29 4.158 5.912 6.951-.453.064-1.492.324-2.597.715-1.885-3.119-5.72-7.667-9.682-8.772l.649 1.622c3.247 2.017 5.134 4.031 7.082 7.734-3.639 1.495-7.538 3.639-10.98 6.692.323-1.884-.455-3.832.39-6.106zm-12.671-16.374c1.168.258 2.533.909 3.183 2.208 0 0 .975-.13 2.08-.194.26 1.299.26 2.144.389 3.38-1.624.194-4.677.779-5.979 1.882l-.972-2.014c-1.368-2.208-.652-1.752-1.755-2.987.973-.066 2.467.779 3.702 1.559-.259-1.432-.518-2.601-.648-3.834zm5.783 7.276 1.495 11.828c-.975.194-2.924.52-4.288.843l-.259-.259-2.6-10.721c1.104-1.039 4.093-1.691 5.652-1.691zm4.937 13.646c.392 2.666-.909 4.548-3.443 4.548s-3.639-1.689-4.029-3.702c1.755-.457 5.458-1.235 7.472-.846zm.066-1.754-2.014-.13-1.235-11.5c2.208.193 3.899 1.299 4.418 2.793 1.039 1.948-1.428 6.629-1.169 8.837zm21.963 3.442-5.003 5.004-3.249 2.404c-3.249-.128-5.847.262-9.422.911 3.249-5.589 8.967-10.137 15.661-12.931-.26 2.145.648 3.118 2.013 4.612zm-8.578-47.368c1.301.193 2.08 1.624 2.08 2.926-.13.909-.519 1.754-1.235 2.404.196 2.401.715 8.902.975 12.734l9.811 3.965c-.909 1.625-1.235 3.183-1.429 4.808l-12.737-5.589c0-5.394.196-10.784.389-16.05-2.466-1.82-1.297-5.588 2.146-5.198zm14.101 21.053c2.73-3.508 3.12-8.902.715-12.475 2.274-.651 5.197-.522 7.535.258.392 2.99.262 6.565-2.078 10.007l1.432 2.147c-1.365.257-3.705.583-5.526.842-.127 1.689.197 4.288.456 5.783-.973.26-3.639.911-5.004.911.13-2.535.716-5.198 2.47-7.473zm-2.925-9.681c.066-.909.911-2.276 1.951-2.144 1.885.909 2.274 8.513.326 9.745-1.886-1.558-2.535-5.263-2.277-7.601zm59.975 56.467c-1.559.843-3.443-1.365-5.002-.845 1.037 1.235 1.493 2.274 1.752 4.029-1.103-.845-2.531-1.365-4.286-1.429.257 1.233 1.036 2.274.453 4.548l-.066.13c-.842-1.561-1.818-2.144-2.664-3.119-2.533-2.73-1.624-7.018-.193-11.046 0-1.691-.845-3.316-2.73-3.316-4.874.782-9.162 4.874-14.036 4.484-1.689-3.508-2.667-9.03-7.342-11.11 6.497.779 10.721 4.288 12.929 7.667 4.225-3.639 9.294-7.991 15.335-6.302 2.146.715 3.381 2.274 3.837 4.612.389 3.704-1.883 8.447 2.013 11.697zm-33.722-15.075c2.208 2.078 3.443 5.328 4.158 8.577-1.171-.067-4.614.063-6.172-.067-.586-3.376-2.014-7.081-4.288-10.656 1.948-.714 4.741.585 6.302 2.146zm-15.467 4.026c-2.141 3.835-3.183 7.8-3.442 12.933l-4.225-4.224c-.714 1.299-1.689 3.445-2.664 4.874-.456-.845-1.429-2.21-2.144-3.313.975-2.862 1.235-4.421.845-8.123 1.365-1.171 5.977-5.07 9.941-7.018 3.313-1.169 5.524-2.274 6.175-3.702.454.453 1.493 1.169 2.272 1.752-1.363 2.404-6.237 5.46-10.461 6.369.717.518 2.404.518 3.703.452zm-16.763-3.507c3.964-4.547 9.162-8.316 16.246-11.046.908 1.689 2.401 3.313 3.636 4.807-.586 1.235-2.144 2.341-5.261 3.183-3.769 1.951-8.383 6.173-9.878 6.954zm3.575 5.717c-1.887-.13-4.874-.389-6.695-.52-.13-.909-.26-1.429-.326-2.6.716-.584 1.302-1.039 2.017-1.429l5.067 3.832c.067.198.001.524-.063.717zm15.658-2.923c1.948-.909 3.575-2.08 4.94-3.445 1.818 1.691 3.443 5.782 3.703 8.579-3.183-.13-6.758-.649-10.137-1.561.132-.779.845-2.338 1.494-3.573zm5.396-7.927c-6.498-3.313-11.438-16.117-11.698-24.953l14.619-2.207c2.014 5.327 2.992 22.156-2.921 27.16zm-10.983-11.696c-1.365.454-4.159 1.559-6.109 2.014-.585-2.274-1.105-5.589-.975-8.123 1.951-.326 3.445-.65 5.266-1.105.387 2.47 1.103 4.941 1.818 7.214zm.78 1.755c.326.845.781 1.492 1.298 2.468-4.028 1.365-7.601 3.639-10.98 5.589-1.169-1.172-2.666-3.379-.909-4.225zm-19.299 20.468c-4.029.324-7.993.779-11.892 2.274 0-.975.586-1.755 1.105-2.667 3.119-1.495 7.278-2.012 10.397-1.752.194.844.323 1.366.39 2.145zm-10.981-4.029c-.263-1.886-.263-3.899-.456-5.719 3.768-3.055 10.592-7.211 16.31-8.253.456 0 .586.326 1.038.326-8.316 3.572-13.383 8.576-16.892 13.646zm19.363 14.685c1.169 1.363 1.689 2.271 2.468 4.352 1.171-1.038 2.666-3.962 3.511-5.263l5.264 5.393c.26-3.508 1.039-9.811 2.274-12.281 3.702.912 7.667 1.495 11.436 1.885.52 2.146-.393 5.719 1.558 5.719 1.951.064.975-4.288.845-5.719 1.755.262 4.158.196 6.109.196.456 2.014.128 5.33 1.818 5.264 1.755-.064.78-3.835.715-5.46 1.755-.26 3.506-.26 5.521-.909-3.246 6.628-1.948 15.467 2.666 19.949l-5.263 18.194c-1.818.585-2.144 2.273-.976 5.46-1.168.063-3.962.063-5.327-.003.26-4.416 2.794-7.015 4.352-10.914 1.951-4.873 2.147-9.877.133-12.411-4.355-3.445-7.864-7.084-12.411-10.982-.52-.13-1.042-.583-1.561-.454-.52.13.781 1.884 1.428 2.141-8.316 3.512-16.503 2.47-25.21 1.431-.066-2.015-.066-3.639.65-5.588zm33.921 13.191c1.363 1.103 3.183 2.534 2.987 5.458-.26 6.954-5.653 11.502-6.239 18.13-.909-.003-.973.063-2.404-.067-1.232-2.923-.586-4.288 1.365-4.613 1.235-5.264 2.989-10.591 5.846-15.335-.518-.976-1.102-1.885-1.555-3.573zm-13.649 81.742c2.403-1.168 4.42-2.6 5.589-3.445.064-.453-.193-.583-.649-.583-3.639 1.948-5.913 3.572-9.358 4.484l-5.846 1.169c-.326-.066-.912.13-1.235-.586 1.428-.779 5.912-2.078 8.25-3.249 2.47-1.105 4.097-2.208 6.368-3.768.197-.389.067-.973-.779-.779-2.078 1.298-3.769 2.014-5.979 3.12-3.246 1.495-5.65 2.403-8.77 3.312-.909.196-1.885-.064-2.08-.519.326-.193-.13-.39.975-.909 1.365-.715 5.134-1.951 7.734-3.315 2.531-1.298 4.548-2.403 6.628-3.962.194-.52-.066-.845-.781-.585-5.068 3.056-8.966 4.68-14.621 6.758-.777.26-1.884.456-2.404.197v-1.365l7.537-3.965c2.274-1.103 4.029-2.21 6.369-3.963l5.785-5.07v-.845c-4.031.652-8.385 1.887-12.997 0v-.583c2.207-.586 4.611-.909 6.758-1.495 3.637-.975 7.018-2.667 11.044-3.573 4.418-.651 10.007-.716 14.881-1.237 1.299 2.536 2.078 5.589 2.274 9.877-8.643 3.507-14.492 13.514-24.693 14.879zm24.952-13.19c.456 3.703.456 9.355-.324 12.995-.262 1.169-.911 1.105-1.495.781-1.951-3.119-3.119-6.824-3.185-10.463 1.106-1.103 2.924-2.534 5.004-3.313zm-36.256 21.571c0 1.627-4.42 2.6-5.46 2.536l-.13-11.307c.586.13.843-.066 1.169.909.196.519 1.365.715 2.406 1.169.584.845 1.365.911 2.014 1.041-.064 1.17.001 4.353.001 5.652zm.52 2.21c.456 1.172-.392 2.144-.911 2.534-.779.716-3.899 1.561-4.938 1.561l-.066-1.688c2.08-.263 4.224-1.042 5.915-2.407zm-15.011 5.263-9.748 1.105c-.064-2.404-.975-5.589-3.182-7.081-1.495-1.105-3.965-1.755-5.849-1.561l-.258-35.024c5.198.064 8.9-2.47 8.64-8.709l8.707-.973c-.064 4.288 3.185 8.057 7.863 8.057l.975 34.374c-5.72 1.626-7.538 4.745-7.148 9.812zm-11.5 1.235c-1.691.196-3.575.39-5.266.39-.845 0-1.559-.39-2.014-1.429v-6.238c1.884 0 3.445.519 4.81 1.558 1.429 1.301 2.47 2.989 2.47 5.719zm-7.603-49.645c-.066-1.168.194-2.144 1.493-2.274 1.301-.129 3.575-.259 5.589-.389-.063 4.677-1.884 6.954-7.082 6.954 0-1.367.066-2.6 0-4.291zm19.166-3.898c1.755-.26 4.095-.324 6.043-.52l.002 6.824-1.495-.067c-2.599-.454-4.55-3.441-4.55-6.237zm6.955 44.448c.194.064.324 6.692.324 6.822-1.622.39-3.769.454-5.523.649-.131-3.509.519-6.173 5.199-7.471zm.066-47.112c-8.515.975-17.025 1.948-25.538 2.926-1.235.194-1.884 1.039-2.21 2.338l-.13 46.721c-.39-.586-.975-.912-1.689-1.497l.13-46.785c0-1.362.26-2.271 1.169-2.337 4.159-.389 9.875-.975 14.619-1.689 4.874-.715 10.786-1.235 15.79-1.95.39-.456.262-.909-.26-1.365l-31.319 3.639c-.845.39-1.625 1.105-1.625 1.431 0 .779-.13 2.987-.13 3.639 0 15.528-.066 30.15-.196 44.768l-1.818-.39c-.26-14.618-.13-31.644-.13-47.434 0-.909-.13-2.468.13-3.053.26-.586 1.818-.586 1.818-.586 10.853-1.105 22.029-2.664 32.945-4.029.52-.193.454-.843-.196-1.235-10.721 1.169-23.457 2.144-33.855 3.379-.387 0-1.948.263-2.467.975-.52.716-.456 2.21-.456 2.73 0 16.177.585 32.88.196 49.253h-1.495c-.066-16.699-.26-37.753-.26-52.048 0-1.495.52-2.857 2.727-2.987 13.453-1.172 21.77-1.562 32.62-2.926 3.186 0 5.979.327 7.474 2.667 1.169 1.365.456 3.962-1.625 4.871-1.296.585-2.661.781-4.219.974zm.907 1.755c1.497-.26 4.095-.649 5.396-2.404.649 1.495-.066 2.73-1.301 3.639-1.039.713-3.119 1.428-4.158 1.495-.001-.52-.195-2.667.063-2.73zm0 4.548c2.536-.39 3.901-.843 5.46-2.144v10.071c-.583 2.08-2.858 2.6-5.46 3.315zm.196 12.93c1.951-.39 3.769-.908 5.46-2.337.583.78.715 1.884 0 2.6-1.625 1.169-2.86 1.622-5.33 1.948-.13-.519-.196-1.625-.13-2.211zm5.004 2.537.13 8.9-4.744 2.666-.26-10.137c1.56-.064 3.705-.717 4.874-1.429zm2.244 1.817c2.492.88 4.783 1 7.104.804l-1.259 1.103c-1.828 1.6-3.668 2.48-5.763 3.577zm74.038-4.873c-.906.781-1.233.975-2.468 1.431-3.636 1.492-5.586 1.362-9.419 2.597-.782.393-1.821.716-2.017 1.301 2.667 0 5.393-.456 7.799-1.041-1.171.715-2.016 1.431-2.796 1.82-8.772 5.134-18.974 10.268-28.265 14.036 1.885-6.565.714-17.934-2.47-26.251 2.859-.456 5.846-.975 8.51-1.755 2.798 2.598 4.031 8.707 4.225 12.149 1.301-1.625 1.365-2.727 1.497-5.134-.392-2.271-1.884-5.523-3.445-8.12 2.34-1.042 5.589-2.86 8.057-3.768 2.536-.975 6.106-1.691 7.537-2.404-.909-.715-3.509-.196-5.001 0 6.04-4.095 14.036-7.278 21.181-9.488-.326-1.235-4.029 0-5.261 0 3.376-2.6 6.3-6.302 7.731-9.745.843.13 1.622.064 2.404.064.001 11.373-3.834 26.447-7.799 34.308zm8.06-37.687h-52.242c-1.235-3.053-1.042-4.092.453-4.743l6.173-19.819c-5.913-4.482-6.303-17.153-.258-21.704 1.948-1.495 4.938-1.947 4.548.846-1.105 3.575-2.144 7.278.127 10.723 1.432 1.754 3.448 3.639 4.227 6.498 1.625-.845 2.078-3.964 2.207-5.979 1.755.26 2.926 2.144 4.158 3.186.456-1.757-.585-4.486-.973-6.045 1.363.586 3.767.52 4.808-.715-1.561-.843-3.186-2.664-3.313-4.808.194-3.575 1.556-8.186-1.171-11.826-2.014-2.796-5.979-2.73-9.229-2.274-3.898 1.103-7.341 3.313-10.134 5.653-3.901-5.393-11.892-7.667-18.39-6.432 5.848-6.305 5.199-20.209 2.403-29.696-1.884.259-6.172.908-10.913 1.494-.067 0-.782-1.105-1.238-1.82 1.755-2.923 2.733-6.626 1.951-10.721-3.247-1.754-7.604-1.625-11.436-.456-1.625.456-2.99 3.12-2.99 5.004-.194 2.21 1.105 5.913 3.053 7.537l-.26.585-8.903-3.575c-.323-3.702-.715-7.407-1.102-11.11.024-.093.454-1.038 1.362-.389.456 1.365 1.302 3.705 1.82 4.937.649.39 1.169.26 1.691-.194l.972-5.526h26.641c3.509-.779 6.435-1.752 9.944-2.793.456-.52.26-.909-.13-1.365l-10.201-2.858-26.448.843-1.754-5.261c-.519-.456-1.172-.586-1.821 0l-1.105 5.001c-.13.649-.649.649-1.428.52-1.299-1.299-4.808-.843-6.239 1.365-.843-.456-2.47-.454-3.379.39-.78 1.105-.843 2.08-.194 3.379 1.103 1.169 2.014 1.169 3.379.845l.714 1.039-.52 16.246c4.418 1.884 10.007 4.484 14.362 6.433-.326 3.442.326 7.67 1.039 10.786-.714.389-1.431.649-2.078.649-.326 0-1.887-1.103-3.119-1.169-5.459-8.706-15.467-14.426-24.693-14.1-.39.194-.845.13-1.495.39-2.144-1.301-3.508-1.951-5.393-1.951.13.78.26 1.884.52 2.924-.716-.39-2.078-.714-4.029 0 2.6 3.898 4.159 9.814 5.264 14.687.389 2.012.975 5.001 1.948 7.408.715 1.688 1.821 3.442 3.965 3.962 1.624.453 4.484-.39 5.587-2.144.197 2.21.197 5.004.652 7.668l-.585 1.039c-3.769-.39-8.38-.52-12.282-.716-4.743 2.407-10.331 5.33-14.685 8.513-1.105 3.705-1.818 6.888-2.467 10.397 1.755-.063 4.937-.193 6.692-.193-1.625 1.947-1.688 5.067-1.885 7.797l8.124-.779c-.326-1.365-.911-2.926-.715-4.42 3.119-2.857 6.692-5.524 9.162-7.734 4.289-.127 13.776 2.277 19.623 2.277-.194.583-.975 1.039-1.624 1.492-2.988 1.95-5.004 3.249-4.678 9.035 2.794-1.495 5.393-2.6 8.187-3.639 3.055-1.038 7.799-.975 7.147-4.028 6.565.649 12.931 1.688 20.015.453 2.794 2.99 7.211 6.433 6.888 10.593-.263 5.261-5.849 11.566-7.344 18.324l-101.108-.003.196-115.205 173.948.063v115.209zm-97.47-105.982 1.105-.193.909-5.457 1.431 5.587 27.812-.909 7.795 2.144-7.668 1.948-27.745.133-.779 5.716-1.561-5.264h-.972c.326-1.235.455-2.077-.327-3.705zm-8.252 3.057c-.387.456-1.103.585-1.623.063-.586-.39-.456-1.039-.13-1.558.389-.39.909-.649 1.559-.194.453.453.453 1.102.194 1.689z"/><path d="m191.055 307.112c.066-1.299-.324-2.6-1.039-3.312-2.73-1.302-6.109.193-5.264 3.702-1.495.26-4.288 1.235-4.095 3.769.196 2.533 1.691 3.249 4.614 3.12.13 2.143 1.495 4.548 3.639 4.224 2.144-.326 2.6-2.729 2.6-5.263 1.688 0 3.702-.912 3.442-3.053-.064-2.538-1.686-3.057-3.897-3.187zm-1.105 5.197c.066 1.887.649 4.291-1.169 4.551-2.6.26-1.429-2.926-2.144-3.965-1.105-.456-3.705.715-4.288-1.299.26-2.6 2.534-2.34 4.159-2.664-.196-1.884-1.235-3.445 1.495-4.095 2.207.197 1.365 2.08 1.559 3.443 1.431.066 3.898-.26 3.965 1.887.061 2.142-2.016 1.493-3.577 2.142z"/><path d="m178.371 335.225c-1.82-.586-2.6 1.818-1.039 2.597 1.688.585 2.597-1.884 1.039-2.597z"/><path d="m515.922 252.599c2.592-3.124 5.067-4.695 7.42-4.695 1.211 0 2.25.309 3.12.912.872.59 1.565 1.598 2.078 2.985.355.965.529 2.44.529 4.448v9.453c0 1.397.115 2.355.346 2.852.172.402.464.715.86.943.385.223 1.12.336 2.186.336v.872h-10.958v-.872h.463c1.029 0 1.754-.16 2.164-.476.407-.308.699-.779.853-1.387.071-.235.101-.995.101-2.269v-9.065c0-2.013-.264-3.474-.784-4.386-.529-.914-1.412-1.37-2.649-1.37-1.914 0-3.827 1.046-5.726 3.146v11.674c0 1.497.083 2.421.262 2.772.223.467.537.823.939 1.038.392.208 1.193.322 2.394.322v.872h-10.948v-.872h.488c1.122 0 1.894-.29 2.287-.851.389-.578.582-1.671.582-3.281v-8.221c0-2.661-.053-4.279-.178-4.855-.115-.583-.306-.985-.552-1.185-.245-.215-.588-.316-1.01-.316-.446 0-.99.12-1.617.367l-.36-.877 6.675-2.71h1.039v4.696zm24.732-11.314v7.271h5.173v1.688h-5.173v14.372c0 1.436.206 2.401.62 2.896.402.504.929.745 1.573.745.537 0 1.047-.154 1.551-.495.497-.324.887-.811 1.164-1.456h.938c-.566 1.576-1.36 2.769-2.394 3.561-1.029.804-2.092 1.208-3.188 1.208-.745 0-1.473-.215-2.178-.625-.715-.417-1.23-1-1.571-1.77-.338-.759-.509-1.941-.509-3.536v-14.901h-3.499v-.784c.884-.356 1.793-.965 2.715-1.804.926-.853 1.757-1.857 2.475-3.012.369-.61.892-1.737 1.551-3.359h.752zm26.734 7.271h-7.543v.904c1.453.034 2.402.27 2.864.706.459.448.694 1.293.694 2.553v12.541c-1.214 1.227-2.252 2.058-3.137 2.502-.877.421-1.659.642-2.354.642-1.012 0-1.88-.314-2.595-.965-.718-.642-1.083-2.005-1.083-4.063v-14.82h-7.756v.904c1.156-.02 1.966.081 2.399.296.451.221.789.522 1.009.931.226.402.341 1.127.341 2.173v9.885c0 2.066.169 3.654.522 4.788.361 1.132.993 2.051 1.902 2.769.919.717 1.987 1.078 3.237 1.078 1.103 0 2.162-.267 3.156-.804.999-.53 2.451-1.819 4.359-3.882v4.685h1.083l6.624-2.735-.341-.853c-.627.29-1.186.417-1.686.417-.363 0-.664-.108-.936-.336-.265-.221-.451-.622-.578-1.193-.125-.576-.181-2.147-.181-4.707zm-3.216 21.759h1.252c-.414.846-.63 1.633-.63 2.395 0 1.355.422 2.414 1.255 3.193 1.115 1.012 2.416 1.514 3.918 1.514.919 0 1.886-.179 2.881-.549l.505.772c-1.421.797-2.484 1.301-3.188 1.514-.708.216-1.504.324-2.394.324-1.754 0-3.114-.431-4.088-1.301-.968-.865-1.448-1.926-1.448-3.154 0-.846.176-1.703.522-2.568.347-.858.818-1.576 1.415-2.14zm33.482-2.803c-2.271 1.757-3.695 2.771-4.283 3.038-.867.409-1.789.611-2.771.611-1.536 0-2.801-.523-3.786-1.576-.993-1.039-1.49-2.421-1.49-4.132 0-1.078.242-2.019.728-2.803.661-1.086 1.808-2.12 3.445-3.09 1.629-.973 4.354-2.139 8.157-3.536v-.872c0-2.199-.345-3.713-1.046-4.539-.701-.818-1.727-1.235-3.066-1.235-1.014 0-1.823.282-2.416.834-.61.536-.916 1.166-.916 1.877l.052 1.402c0 .738-.191 1.316-.571 1.717-.375.402-.875.595-1.485.595-.6 0-1.091-.201-1.466-.617-.382-.421-.571-.997-.571-1.715 0-1.395.708-2.664 2.13-3.83 1.419-1.154 3.406-1.738 5.971-1.738 1.965 0 3.575.329 4.834.988.951.502 1.654 1.294 2.105 2.353.289.691.431 2.112.431 4.251v7.518c0 2.112.039 3.406.122 3.888.086.471.216.792.397.954.191.161.404.247.644.247.255 0 .485-.066.676-.181.339-.208.99-.792 1.955-1.769v1.36c-1.798 2.421-3.524 3.629-5.175 3.629-.779 0-1.411-.27-1.88-.826-.47-.549-.707-1.487-.725-2.803zm0-1.576v-8.429c-2.431.972-4.001 1.657-4.712 2.053-1.277.704-2.186 1.448-2.732 2.225-.549.779-.824 1.61-.824 2.536 0 1.159.343 2.124 1.039 2.889.693.759 1.49 1.147 2.394 1.147 1.231 0 2.838-.811 4.835-2.421zm15.859-24.651v7.271h5.173v1.688h-5.173v14.372c0 1.436.208 2.401.62 2.896.407.504.936.745 1.576.745.536 0 1.046-.154 1.553-.495.492-.324.882-.811 1.164-1.456h.941c-.569 1.576-1.365 2.769-2.394 3.561-1.032.804-2.095 1.208-3.198 1.208-.737 0-1.465-.215-2.175-.625-.709-.417-1.228-1-1.566-1.77-.338-.759-.515-1.941-.515-3.536v-14.901h-3.497v-.784c.885-.356 1.789-.965 2.713-1.804.929-.853 1.761-1.857 2.477-3.012.37-.61.892-1.737 1.554-3.359h.747zm21.637 6.619v7.545h-.802c-.61-2.374-1.394-3.984-2.35-4.835-.965-.853-2.185-1.281-3.663-1.281-1.132 0-2.041.296-2.732.899-.694.598-1.041 1.259-1.041 1.985 0 .899.254 1.669.769 2.314.5.664 1.517 1.362 3.049 2.107l3.529 1.708c3.276 1.598 4.91 3.703 4.91 6.317 0 2.019-.762 3.636-2.288 4.869-1.517 1.227-3.225 1.85-5.109 1.85-1.36 0-2.906-.24-4.646-.723-.526-.169-.963-.242-1.301-.242-.372 0-.659.208-.874.632h-.794v-7.914h.794c.453 2.254 1.32 3.957 2.592 5.104 1.272 1.139 2.696 1.718 4.276 1.718 1.108 0 2.017-.329 2.717-.973.706-.656 1.052-1.448 1.052-2.36 0-1.122-.39-2.053-1.174-2.803-.775-.767-2.335-1.725-4.676-2.884-2.337-1.154-3.862-2.207-4.589-3.131-.728-.933-1.091-2.08-1.091-3.487 0-1.826.627-3.355 1.874-4.575 1.245-1.22 2.864-1.838 4.842-1.838.872 0 1.931.197 3.169.556.826.243 1.372.363 1.644.363.265 0 .461-.051.61-.167.138-.115.314-.355.502-.752h.801zm11.387-6.619v7.271h5.173v1.688h-5.173v14.372c0 1.436.208 2.401.62 2.896.402.504.931.745 1.576.745.536 0 1.046-.154 1.553-.495.492-.324.88-.811 1.164-1.456h.938c-.571 1.576-1.365 2.769-2.396 3.561-1.032.804-2.095 1.208-3.19 1.208-.745 0-1.468-.215-2.176-.625-.715-.417-1.23-1-1.568-1.77-.34-.759-.517-1.941-.517-3.536v-14.901h-3.495v-.784c.882-.356 1.792-.965 2.712-1.804.927-.853 1.757-1.857 2.476-3.012.372-.61.892-1.737 1.551-3.359h.752zm18.152 6.619c3.35 0 6.043 1.282 8.082 3.823 1.722 2.18 2.58 4.675 2.58 7.49 0 1.985-.478 3.989-1.429 6.023-.948 2.024-2.26 3.568-3.928 4.593-1.663 1.038-3.521 1.548-5.567 1.548-3.343 0-5.991-1.333-7.957-3.982-1.657-2.247-2.492-4.768-2.492-7.545 0-2.038.505-4.05 1.51-6.055 1.009-2.004 2.335-3.501 3.979-4.452 1.642-.966 3.382-1.443 5.222-1.443zm-.747 1.576c-.852 0-1.71.25-2.575.764-.863.505-1.559 1.39-2.088 2.671-.542 1.267-.801 2.904-.801 4.901 0 3.227.642 6.003 1.924 8.336 1.277 2.333 2.969 3.514 5.067 3.514 1.561 0 2.845-.645 3.867-1.931 1.015-1.296 1.519-3.509 1.519-6.653 0-3.938-.842-7.028-2.541-9.282-1.139-1.556-2.597-2.32-4.372-2.32zm13.538-.924h10.422v.904h-.683c-.627 0-1.11.142-1.436.451-.329.309-.495.717-.495 1.24 0 .557.174 1.225.512 2.004l5.151 12.226 5.173-12.688c.372-.897.551-1.588.551-2.059 0-.22-.068-.402-.191-.556-.181-.235-.406-.394-.674-.49-.282-.093-.833-.127-1.678-.127v-.904h7.231v.904c-.833.061-1.418.228-1.742.502-.561.485-1.066 1.288-1.517 2.414l-7.856 19.005h-.99l-7.907-18.689c-.355-.866-.694-1.503-1.015-1.87-.333-.382-.735-.691-1.235-.961-.274-.147-.821-.287-1.62-.401v-.905zm24.637 0h10.316v.904h-.5c-.725 0-1.274.147-1.637.47-.363.313-.546.698-.546 1.174 0 .622.265 1.495.806 2.602l5.384 11.171 4.962-12.225c.272-.671.406-1.32.406-1.965 0-.287-.061-.502-.169-.656-.13-.174-.331-.317-.598-.424-.287-.1-.765-.147-1.455-.147v-.904h7.204v.904c-.593.061-1.056.181-1.377.382-.327.189-.677.559-1.064 1.093-.155.223-.422.84-.826 1.852l-9.013 22.095c-.875 2.152-2.012 3.769-3.426 4.861-1.409 1.1-2.765 1.65-4.078 1.65-.943 0-1.73-.282-2.34-.831-.61-.537-.916-1.167-.916-1.877 0-.679.226-1.227.659-1.63.444-.416 1.054-.625 1.833-.625.529 0 1.249.181 2.168.536.645.236 1.046.363 1.216.363.478 0 1.004-.255 1.58-.745.569-.51 1.147-1.475 1.725-2.911l1.578-3.842-7.952-16.704c-.25-.495-.632-1.12-1.164-1.85-.409-.576-.738-.961-.992-1.139-.37-.255-.966-.497-1.786-.679v-.903zm32.08 3.82c2.142-2.983 4.452-4.473 6.937-4.473 2.269 0 4.249.973 5.94 2.919 1.691 1.943 2.544 4.592 2.544 7.959 0 3.931-1.302 7.101-3.918 9.51-2.242 2.065-4.737 3.09-7.493 3.09-1.291 0-2.602-.233-3.928-.703-1.328-.468-2.691-1.167-4.075-2.105v-22.941c0-2.517-.064-4.058-.184-4.641-.117-.583-.305-.973-.563-1.174-.262-.221-.585-.321-.972-.321-.446 0-1.015.119-1.691.387l-.34-.85 6.653-2.703h1.093v16.046zm0 1.551v13.252c.814.804 1.661 1.413 2.548 1.815.871.409 1.772.617 2.696.617 1.46 0 2.833-.804 4.095-2.414s1.896-3.95 1.896-7.028c0-2.844-.634-5.022-1.896-6.544-1.262-1.524-2.701-2.289-4.32-2.289-.845 0-1.703.223-2.555.659-.641.314-1.469.974-2.464 1.932zm22.411 2.969c-.019 3.294.77 5.869 2.39 7.746 1.607 1.864 3.509 2.796 5.678 2.796 1.453 0 2.715-.395 3.788-1.201 1.07-.791 1.963-2.166 2.69-4.09l.75.476c-.338 2.22-1.321 4.224-2.943 6.03-1.637 1.816-3.676 2.727-6.116 2.727-2.667 0-4.943-1.025-6.834-3.11-1.897-2.061-2.838-4.857-2.838-8.35 0-3.788.966-6.744 2.917-8.851 1.938-2.132 4.369-3.192 7.309-3.192 2.48 0 4.523.818 6.111 2.467 1.598 1.63 2.394 3.818 2.394 6.552zm0-1.401h10.246c-.083-1.414-.243-2.421-.512-2.996-.393-.892-.995-1.61-1.796-2.125-.802-.517-1.637-.779-2.502-.779-1.338 0-2.531.522-3.588 1.563-1.056 1.039-1.678 2.487-1.848 4.337zm5.749-17.121c.725 0 1.343.27 1.864.786.51.51.77 1.125.77 1.85 0 .723-.26 1.348-.77 1.864-.522.515-1.139.777-1.864.777-.726 0-1.348-.262-1.863-.777-.514-.517-.769-1.142-.769-1.864 0-.725.25-1.34.759-1.85.504-.516 1.131-.786 1.873-.786zm-330.66-55.287v.904c-1.167.201-2.041.571-2.642 1.108-.85.784-1.61 1.997-2.271 3.626l-11.436 27.898h-.892l-12.279-28.265c-.635-1.443-1.073-2.335-1.336-2.656-.395-.505-.892-.885-1.484-1.174-.586-.289-1.377-.456-2.377-.537v-.904h13.396v.904c-1.524.14-2.502.402-2.958.765-.446.375-.679.853-.679 1.436 0 .804.372 2.051 1.117 3.761l8.338 19.219 7.732-18.971c.762-1.87 1.142-3.171 1.142-3.896 0-.468-.233-.912-.701-1.34-.471-.424-1.255-.725-2.367-.906-.086-.012-.216-.04-.414-.067v-.904h10.111zm4.81-1.591c.676 0 1.254.24 1.732.711.468.476.706 1.058.706 1.73 0 .676-.238 1.254-.706 1.745-.478.475-1.056.723-1.732.723s-1.258-.248-1.742-.723c-.475-.49-.728-1.069-.728-1.745 0-.672.237-1.255.72-1.73.471-.471 1.057-.711 1.75-.711zm2.002 11.573h-1.066l-6.665 2.71.338.872c.645-.235 1.186-.363 1.639-.363.424 0 .755.101.993.309.242.194.419.549.542 1.073.137.711.21 2.252.21 4.661v8.542c0 1.37-.107 2.294-.333 2.771-.21.488-.51.83-.882 1.039-.36.208-1.086.321-2.168.321v.865h10.762v-.865c-1.051 0-1.777-.113-2.168-.336-.399-.233-.693-.568-.892-1.031-.208-.463-.309-1.382-.309-2.764v-17.804zm13.732-11.573v29.378c0 1.382.11 2.301.304 2.756.198.444.514.784.933 1.02.421.228 1.195.355 2.345.355v.865h-10.853v-.865c1.017 0 1.708-.113 2.069-.321.377-.209.671-.551.877-1.039.206-.478.316-1.402.316-2.771v-20.122c0-2.502-.059-4.031-.167-4.603-.118-.568-.294-.965-.544-1.173-.258-.213-.569-.314-.959-.314-.419 0-.948.127-1.592.39l-.412-.845 6.602-2.71h1.081zm12.6 16.268c2.59-3.124 5.065-4.695 7.42-4.695 1.211 0 2.25.308 3.119.906.875.611 1.568 1.602 2.078 2.99.356.967.529 2.455.529 4.452v9.456c0 1.396.115 2.347.346 2.845.174.402.463.718.858.951.387.223 1.125.336 2.188.336v.865h-10.958v-.865h.463c1.032 0 1.757-.166 2.161-.475.409-.316.701-.78.855-1.389.069-.24.101-1.005.101-2.267v-9.071c0-2.014-.263-3.475-.784-4.393-.529-.904-1.409-1.36-2.649-1.36-1.919 0-3.825 1.051-5.726 3.144v11.681c0 1.49.083 2.416.264 2.771.225.467.536.811.931 1.024.397.223 1.193.336 2.404.336v.865h-10.953v-.865h.49c1.12 0 1.887-.281 2.283-.857.388-.576.588-1.671.588-3.274v-8.226c0-2.656-.059-4.281-.183-4.857-.113-.59-.304-.98-.554-1.186-.247-.208-.586-.316-1.004-.316-.444 0-.99.128-1.62.363l-.363-.872 6.677-2.71h1.039zm23.93-16.268c.677 0 1.255.24 1.73.711.475.476.713 1.058.713 1.73 0 .676-.238 1.254-.713 1.745-.476.475-1.054.723-1.73.723-.674 0-1.252-.248-1.742-.723-.478-.49-.725-1.069-.725-1.745 0-.672.24-1.255.717-1.73.472-.471 1.057-.711 1.75-.711zm2.005 11.573v17.805c0 1.382.101 2.301.306 2.764.196.464.494.799.887 1.031.399.223 1.127.336 2.173.336v.865h-10.757v-.865c1.076 0 1.801-.113 2.167-.321.372-.209.666-.551.884-1.039.223-.478.331-1.402.331-2.771v-8.542c0-2.409-.078-3.95-.215-4.661-.115-.524-.299-.879-.537-1.073-.242-.208-.571-.309-.99-.309-.453 0-.999.128-1.639.363l-.34-.872 6.668-2.71h1.062zm18.662 19.608c-2.269 1.76-3.695 2.771-4.281 3.054-.865.395-1.791.61-2.769.61-1.539 0-2.801-.536-3.79-1.583-.993-1.046-1.485-2.428-1.485-4.132 0-1.08.242-2.019.727-2.803.657-1.093 1.809-2.125 3.438-3.098 1.634-.965 4.357-2.139 8.16-3.521v-.877c0-2.208-.345-3.722-1.046-4.548-.701-.819-1.723-1.228-3.06-1.228-1.012 0-1.821.269-2.419.818-.61.552-.914 1.181-.914 1.892l.051 1.402c0 .738-.193 1.308-.571 1.71-.38.409-.874.611-1.487.611-.603 0-1.086-.216-1.471-.638-.375-.424-.566-.987-.566-1.71 0-1.389.706-2.656 2.127-3.822 1.419-1.154 3.409-1.745 5.977-1.745 1.96 0 3.572.336 4.834.995.948.502 1.649 1.287 2.104 2.353.29.691.431 2.1.431 4.244v7.518c0 2.112.04 3.406.123 3.889.081.47.21.799.392.945.191.17.407.25.645.25.257 0 .49-.054.676-.169.341-.208.99-.804 1.957-1.769v1.352c-1.798 2.416-3.526 3.636-5.173 3.636-.786 0-1.411-.281-1.884-.833-.468-.534-.709-1.48-.726-2.803zm0-1.569v-8.441c-2.431.97-3.999 1.657-4.71 2.058-1.279.712-2.188 1.448-2.73 2.225-.554.772-.826 1.617-.826 2.549 0 1.147.346 2.112 1.039 2.884.691.757 1.492 1.139 2.394 1.139 1.234 0 2.839-.796 4.833-2.414zm28.844-17.387v13.418c0 2.568.056 4.139.184 4.708.122.578.308.973.576 1.193.27.228.576.343.933.343.502 0 1.061-.135 1.686-.417l.339.853-6.621 2.735h-1.084v-4.693c-1.906 2.059-3.357 3.36-4.359 3.889-.995.529-2.05.804-3.156.804-1.25 0-2.32-.361-3.24-1.078-.904-.718-1.541-1.637-1.894-2.771-.358-1.132-.527-2.722-.527-4.786v-9.885c0-1.054-.115-1.779-.34-2.181-.22-.401-.558-.711-1.007-.924-.438-.223-1.247-.323-2.404-.308v-.899h7.761v14.827c0 2.066.36 3.413 1.083 4.058.713.65 1.583.977 2.598.977.693 0 1.475-.22 2.35-.656.884-.436 1.92-1.275 3.136-2.49v-12.558c0-1.247-.233-2.1-.696-2.548-.461-.436-1.407-.679-2.862-.711v-.899h7.544zm19.654-.652v7.545h-.799c-.61-2.367-1.394-3.975-2.354-4.835-.963-.846-2.183-1.275-3.664-1.275-1.127 0-2.034.297-2.73.9-.693.59-1.039 1.247-1.039 1.97 0 .906.255 1.679.767 2.328.505.656 1.517 1.362 3.053 2.1l3.523 1.715c3.274 1.598 4.906 3.695 4.906 6.312 0 2.017-.755 3.634-2.282 4.874-1.522 1.227-3.224 1.85-5.109 1.85-1.363 0-2.904-.24-4.643-.738-.532-.146-.971-.235-1.307-.235-.372 0-.659.208-.87.632h-.797v-7.907h.797c.449 2.247 1.315 3.95 2.583 5.104 1.272 1.147 2.701 1.71 4.281 1.71 1.108 0 2.022-.323 2.718-.972.706-.664 1.051-1.443 1.051-2.36 0-1.115-.387-2.046-1.174-2.803-.776-.765-2.335-1.718-4.677-2.884-2.335-1.154-3.862-2.201-4.587-3.14-.726-.926-1.091-2.077-1.091-3.479 0-1.825.629-3.347 1.872-4.575 1.247-1.214 2.862-1.838 4.847-1.838.872 0 1.928.188 3.166.566.828.24 1.372.36 1.644.36.265 0 .461-.054.613-.167.138-.122.308-.37.502-.759h.8zm36.746.652v13.418c0 2.568.056 4.139.181 4.708.122.578.313.973.576 1.193.274.228.578.343.931.343.508 0 1.066-.135 1.693-.417l.338.853-6.628 2.735h-1.075v-4.693c-1.91 2.059-3.36 3.36-4.359 3.889-1 .529-2.056.804-3.166.804-1.24 0-2.313-.361-3.232-1.078-.904-.718-1.539-1.637-1.894-2.771-.355-1.132-.529-2.722-.529-4.786v-9.885c0-1.054-.118-1.779-.338-2.181-.226-.401-.564-.711-1.007-.924-.439-.223-1.243-.323-2.399-.308v-.899h7.756v14.827c0 2.066.36 3.413 1.083 4.058.715.65 1.578.977 2.595.977.693 0 1.477-.22 2.352-.656.884-.436 1.921-1.275 3.139-2.49v-12.558c0-1.247-.236-2.1-.694-2.548-.463-.436-1.412-.679-2.867-.711v-.899h7.544zm11.799 4.043c2.59-3.124 5.065-4.695 7.42-4.695 1.211 0 2.25.308 3.117.906.872.611 1.571 1.602 2.081 2.99.355.967.53 2.455.53 4.452v9.456c0 1.396.112 2.347.345 2.845.174.402.464.718.858.951.387.223 1.124.336 2.185.336v.865h-10.957v-.865h.458c1.032 0 1.759-.166 2.167-.475.409-.316.701-.78.855-1.389.066-.24.101-1.005.101-2.267v-9.071c0-2.014-.262-3.475-.784-4.393-.529-.904-1.409-1.36-2.646-1.36-1.921 0-3.832 1.051-5.729 3.144v11.681c0 1.49.083 2.416.267 2.771.218.467.534.811.934 1.024.392.223 1.193.336 2.398.336v.865h-10.953v-.865h.49c1.12 0 1.887-.281 2.284-.857.392-.576.585-1.671.585-3.274v-8.226c0-2.656-.056-4.281-.181-4.857-.118-.59-.304-.98-.554-1.186-.247-.208-.583-.316-1.005-.316-.446 0-.99.128-1.62.363l-.363-.872 6.677-2.71h1.039v4.693zm23.928-16.268c.679 0 1.255.24 1.733.711.468.476.713 1.058.713 1.73 0 .676-.245 1.254-.713 1.745-.478.475-1.054.723-1.733.723-.676 0-1.257-.248-1.74-.723-.478-.49-.725-1.069-.725-1.745 0-.672.24-1.255.72-1.73.468-.471 1.056-.711 1.745-.711zm2.009 11.573v17.805c0 1.382.098 2.301.301 2.764.199.464.498.799.893 1.031.397.223 1.125.336 2.173.336v.865h-10.767v-.865c1.088 0 1.811-.113 2.173-.321.375-.209.666-.551.884-1.039.226-.478.329-1.402.329-2.771v-8.542c0-2.409-.076-3.95-.214-4.661-.115-.524-.298-.879-.536-1.073-.243-.208-.571-.309-.991-.309-.453 0-1 .128-1.646.363l-.331-.872 6.665-2.71h1.067zm4.979.652h10.424v.899h-.683c-.63 0-1.105.154-1.439.456-.331.321-.495.718-.495 1.24 0 .556.177 1.228.509 2l5.153 12.237 5.173-12.696c.37-.904.554-1.58.554-2.051 0-.228-.064-.401-.192-.549-.181-.247-.402-.417-.674-.505-.281-.086-.838-.132-1.676-.132v-.899h7.229v.899c-.836.066-1.418.233-1.745.502-.555.495-1.063 1.301-1.519 2.421l-7.853 19.01h-.988l-7.905-18.697c-.355-.87-.695-1.487-1.017-1.877-.328-.375-.73-.691-1.237-.946-.272-.147-.818-.282-1.62-.414v-.898zm29.621 8.348c-.019 3.286.772 5.869 2.394 7.731 1.608 1.865 3.504 2.806 5.673 2.806 1.456 0 2.718-.397 3.786-1.203 1.073-.789 1.965-2.158 2.693-4.089l.75.478c-.338 2.21-1.32 4.23-2.945 6.04-1.634 1.811-3.673 2.722-6.117 2.722-2.663 0-4.94-1.039-6.829-3.11-1.899-2.068-2.838-4.857-2.838-8.355 0-3.791.963-6.749 2.911-8.861 1.941-2.112 4.372-3.185 7.31-3.185 2.485 0 4.523.826 6.116 2.462 1.59 1.637 2.391 3.823 2.391 6.565h-15.295zm0-1.408h10.248c-.084-1.421-.25-2.414-.512-2.99-.397-.9-1-1.61-1.799-2.132-.801-.505-1.632-.772-2.502-.772-1.338 0-2.531.517-3.587 1.561-1.057 1.042-1.68 2.482-1.848 4.333zm24.729-7.592v4.991c1.848-3.328 3.751-4.991 5.7-4.991.882 0 1.62.277 2.203.814.581.537.867 1.174.867 1.87 0 .637-.208 1.166-.627 1.602-.422.436-.914.659-1.502.659-.558 0-1.195-.284-1.899-.84-.698-.557-1.218-.831-1.556-.831-.294 0-.605.154-.943.475-.728.664-1.475 1.745-2.242 3.267v10.608c0 1.222.147 2.161.451 2.783.216.444.588.807 1.115 1.093.537.289 1.297.436 2.294.436v.865h-11.338v-.865c1.135 0 1.973-.181 2.519-.529.401-.262.683-.671.848-1.235.078-.281.117-1.051.117-2.352v-8.576c0-2.583-.051-4.112-.157-4.607-.101-.49-.299-.852-.578-1.073-.282-.228-.638-.343-1.056-.343-.495 0-1.059.128-1.693.363l-.238-.872 6.699-2.71h1.016zm24.315 0v7.545h-.801c-.61-2.367-1.397-3.975-2.348-4.835-.966-.846-2.191-1.275-3.668-1.275-1.13 0-2.037.297-2.732.9-.694.59-1.039 1.247-1.039 1.97 0 .906.257 1.679.769 2.328.503.656 1.52 1.362 3.056 2.1l3.521 1.715c3.279 1.598 4.908 3.695 4.908 6.312 0 2.017-.757 3.634-2.286 4.874-1.512 1.227-3.227 1.85-5.105 1.85-1.362 0-2.906-.24-4.645-.738-.527-.146-.966-.235-1.307-.235-.372 0-.659.208-.874.632h-.794v-7.907h.794c.456 2.247 1.32 3.95 2.592 5.104 1.27 1.147 2.695 1.71 4.274 1.71 1.117 0 2.019-.323 2.725-.972.701-.664 1.049-1.443 1.049-2.36 0-1.115-.393-2.046-1.177-2.803-.772-.765-2.33-1.718-4.677-2.884-2.338-1.154-3.865-2.201-4.587-3.14-.725-.926-1.091-2.077-1.091-3.479 0-1.825.627-3.347 1.875-4.575 1.247-1.214 2.864-1.838 4.844-1.838.873 0 1.931.188 3.166.566.828.24 1.372.36 1.647.36.262 0 .458-.054.61-.167.138-.122.311-.37.5-.759h.801zm10.586-11.573c.676 0 1.252.24 1.737.711.468.476.706 1.058.706 1.73 0 .676-.237 1.254-.706 1.745-.485.475-1.061.723-1.737.723-.674 0-1.252-.248-1.739-.723-.481-.49-.726-1.069-.726-1.745 0-.672.238-1.255.718-1.73.468-.471 1.055-.711 1.747-.711zm2.007 11.573v17.805c0 1.382.098 2.301.306 2.764.194.464.493.799.89 1.031.397.223 1.122.336 2.168.336v.865h-10.757v-.865c1.081 0 1.804-.113 2.167-.321.375-.209.671-.551.884-1.039.226-.478.334-1.402.334-2.771v-8.542c0-2.409-.078-3.95-.218-4.661-.115-.524-.292-.879-.536-1.073-.238-.208-.571-.309-.986-.309-.457 0-.999.128-1.644.363l-.338-.872 6.67-2.71h1.06zm12.55-6.611v7.263h5.173v1.703h-5.173v14.357c0 1.437.206 2.409.618 2.896.404.505.935.752 1.575.752.539 0 1.049-.167 1.556-.495.492-.329.877-.819 1.159-1.47h.941c-.569 1.583-1.363 2.771-2.392 3.575-1.034.799-2.097 1.193-3.195 1.193-.742 0-1.465-.201-2.176-.622-.71-.404-1.228-.995-1.571-1.759-.336-.757-.512-1.944-.512-3.546v-14.881h-3.495v-.804c.882-.351 1.786-.953 2.718-1.798.921-.846 1.752-1.85 2.472-3.012.37-.611.89-1.727 1.549-3.352zm11.049 15.611c-.015 3.286.777 5.869 2.394 7.731 1.61 1.865 3.504 2.806 5.673 2.806 1.455 0 2.715-.397 3.788-1.203 1.076-.789 1.965-2.158 2.693-4.089l.747.478c-.336 2.21-1.318 4.23-2.943 6.04-1.634 1.811-3.673 2.722-6.116 2.722-2.664 0-4.943-1.039-6.829-3.11-1.899-2.068-2.84-4.857-2.84-8.355 0-3.791.968-6.749 2.916-8.861 1.936-2.112 4.369-3.185 7.304-3.185 2.49 0 4.529.826 6.119 2.462 1.591 1.637 2.389 3.823 2.389 6.565h-15.295zm0-1.408h10.25c-.081-1.421-.252-2.414-.515-2.99-.395-.9-.997-1.61-1.796-2.132-.807-.505-1.637-.772-2.502-.772-1.336 0-2.534.517-3.59 1.561-1.053 1.042-1.673 2.482-1.847 4.333zm24.68-14.203v7.263h5.173v1.703h-5.173v14.357c0 1.437.208 2.409.617 2.896.405.505.932.752 1.576.752.539 0 1.049-.167 1.551-.495.498-.329.887-.819 1.169-1.47h.939c-.571 1.583-1.363 2.771-2.394 3.575-1.034.799-2.095 1.193-3.193 1.193-.745 0-1.473-.201-2.178-.622-.708-.404-1.23-.995-1.566-1.759-.338-.757-.515-1.944-.515-3.546v-14.881h-3.496v-.804c.879-.351 1.789-.953 2.71-1.798.924-.846 1.764-1.85 2.477-3.012.372-.611.892-1.727 1.551-3.352zm18.153 6.611c3.355 0 6.04 1.282 8.082 3.822 1.723 2.181 2.578 4.675 2.578 7.491 0 1.992-.478 3.996-1.424 6.03-.95 2.032-2.264 3.561-3.928 4.592-1.668 1.027-3.526 1.549-5.572 1.549-3.342 0-5.991-1.333-7.954-3.997-1.654-2.239-2.489-4.76-2.489-7.542 0-2.027.502-4.046 1.507-6.05 1.007-2.012 2.335-3.487 3.977-4.445 1.643-.965 3.385-1.45 5.223-1.45zm-.75 1.578c-.848 0-1.711.247-2.573.762-.86.512-1.563 1.397-2.087 2.671-.537 1.275-.801 2.904-.801 4.908 0 3.225.642 6.008 1.921 8.336 1.279 2.34 2.97 3.507 5.065 3.507 1.563 0 2.847-.645 3.869-1.931 1.017-1.294 1.519-3.506 1.519-6.645 0-3.938-.838-7.035-2.541-9.29-1.14-1.541-2.596-2.318-4.372-2.318zm-376.496 42.529v11.345h-.887c-.297-2.185-.819-3.915-1.559-5.205-.752-1.298-1.825-2.318-3.212-3.062-1.387-.773-2.815-1.14-4.3-1.14-1.671 0-3.058.502-4.156 1.529-1.098 1.024-1.645 2.185-1.645 3.492 0 .992.351 1.911 1.039 2.73 1 1.213 3.374 2.823 7.131 4.834 3.063 1.644 5.156 2.904 6.273 3.791 1.123.877 1.987 1.909 2.59 3.098.6 1.201.909 2.448.909 3.754 0 2.475-.966 4.621-2.889 6.417-1.931 1.791-4.406 2.698-7.435 2.698-.958 0-1.85-.076-2.693-.228-.492-.068-1.534-.37-3.102-.872-1.568-.509-2.563-.772-2.987-.772-.404 0-.716.128-.956.37-.231.24-.405.738-.52 1.502h-.892v-11.247h.892c.419 2.359.99 4.112 1.7 5.285.709 1.159 1.787 2.139 3.249 2.909 1.456.772 3.056 1.161 4.798 1.161 2.009 0 3.604-.524 4.771-1.595 1.166-1.061 1.754-2.32 1.754-3.763 0-.811-.223-1.622-.661-2.448-.446-.823-1.14-1.588-2.07-2.294-.628-.488-2.348-1.509-5.151-3.082-2.803-1.571-4.796-2.833-5.981-3.757-1.188-.945-2.08-1.972-2.696-3.097-.615-1.126-.916-2.366-.916-3.729 0-2.348.895-4.371 2.705-6.069 1.808-1.703 4.102-2.554 6.888-2.554 1.742 0 3.59.422 5.538 1.279.899.409 1.543.606 1.908.606.419 0 .765-.128 1.032-.37.262-.255.478-.765.643-1.514h.888zm12.817 4.109v7.271h5.176v1.688h-5.176v14.372c0 1.436.206 2.401.617 2.896.404.504.934.745 1.578.745.534 0 1.049-.154 1.551-.495.493-.324.882-.811 1.164-1.456h.939c-.571 1.576-1.357 2.769-2.392 3.561-1.032.804-2.098 1.208-3.19 1.208-.75 0-1.47-.215-2.181-.625-.706-.417-1.23-1-1.573-1.77-.333-.759-.509-1.941-.509-3.536v-14.901h-3.497v-.784c.882-.356 1.791-.965 2.718-1.804.921-.853 1.757-1.857 2.475-3.012.372-.61.887-1.737 1.551-3.359h.749zm26.734 7.271h-7.54v.904c1.448.034 2.397.27 2.86.706.463.448.694 1.293.694 2.553v12.541c-1.213 1.227-2.25 2.058-3.132 2.502-.875.421-1.659.642-2.352.642-1.015 0-1.883-.314-2.6-.965-.721-.642-1.084-2.005-1.084-4.063v-14.82h-7.755v.904c1.154-.02 1.965.081 2.401.296.446.221.784.522 1.007.931.223.402.34 1.127.34 2.173v9.885c0 2.066.169 3.654.527 4.788.355 1.132.99 2.051 1.896 2.769.917.717 1.99 1.078 3.237 1.078 1.105 0 2.159-.267 3.158-.804.999-.53 2.451-1.819 4.354-3.882v4.685h1.083l6.626-2.735-.338-.853c-.627.29-1.186.417-1.691.417-.355 0-.664-.108-.931-.336-.268-.221-.453-.622-.578-1.193-.125-.576-.184-2.147-.184-4.707v-13.416zm20.988 19.654c-1.083 1.132-2.139 1.945-3.174 2.433-1.029.49-2.144.738-3.332.738-2.417 0-4.526-1.012-6.337-3.036-1.801-2.026-2.705-4.621-2.705-7.787 0-3.178 1-6.087 3.004-8.731 1.997-2.621 4.56-3.949 7.704-3.949 1.948 0 3.567.632 4.839 1.864v-4.082c0-2.536-.061-4.085-.181-4.668-.125-.583-.319-.973-.571-1.174-.258-.221-.579-.321-.966-.321-.421 0-.975.119-1.669.387l-.316-.85 6.606-2.703h1.079v25.601c0 2.59.068 4.173.181 4.749.124.571.316.973.588 1.193.264.228.576.336.921.336.439 0 1.027-.127 1.744-.417l.275.853-6.58 2.735h-1.112v-3.171zm0-1.691v-11.413c-.101-1.093-.39-2.098-.87-2.997-.486-.897-1.13-1.583-1.924-2.039-.799-.463-1.573-.691-2.333-.691-1.419 0-2.681.637-3.796 1.912-1.47 1.678-2.203 4.124-2.203 7.358 0 3.251.706 5.746 2.124 7.476 1.421 1.73 2.997 2.595 4.742 2.595 1.466 0 2.887-.73 4.26-2.201zm12.834-9.623c-.014 3.294.777 5.869 2.394 7.746 1.612 1.864 3.509 2.796 5.68 2.796 1.451 0 2.713-.395 3.786-1.201 1.076-.791 1.968-2.166 2.688-4.09l.749.476c-.338 2.22-1.316 4.224-2.943 6.03-1.629 1.816-3.67 2.727-6.111 2.727-2.671 0-4.942-1.025-6.836-3.11-1.894-2.061-2.84-4.857-2.84-8.35 0-3.788.968-6.744 2.916-8.851 1.938-2.132 4.372-3.192 7.309-3.192 2.485 0 4.524.818 6.117 2.467 1.588 1.63 2.389 3.818 2.389 6.552zm0-1.401h10.25c-.081-1.414-.25-2.421-.51-2.996-.396-.892-.999-1.61-1.801-2.125-.801-.517-1.632-.779-2.497-.779-1.338 0-2.534.522-3.592 1.563-1.056 1.039-1.673 2.487-1.85 4.337z"/></g></svg>