<?xml version="1.0" encoding="UTF-8"?>
<svg id="Layer_2" xmlns="http://www.w3.org/2000/svg" xmlns:xlink="http://www.w3.org/1999/xlink" viewBox="0 0 821.44 680.27">
  <defs>
    <style>
      .cls-1 {
        fill: url(#linear-gradient-2);
      }

      .cls-2 {
        fill: url(#linear-gradient-4);
      }

      .cls-3 {
        fill: url(#linear-gradient-3);
      }

      .cls-4 {
        fill: url(#linear-gradient-5);
      }

      .cls-5 {
        fill: url(#linear-gradient);
      }
    </style>
    <linearGradient id="linear-gradient" x1="410.72" y1="105.27" x2="410.72" y2="674.8" gradientUnits="userSpaceOnUse">
      <stop offset="0" stop-color="#fff"/>
      <stop offset=".15" stop-color="#f8f9ff"/>
      <stop offset=".29" stop-color="#eef1ff"/>
      <stop offset=".3" stop-color="#eeeef9"/>
      <stop offset=".45" stop-color="#f5c9a5"/>
      <stop offset=".56" stop-color="#faae67"/>
      <stop offset=".65" stop-color="#fd9d40"/>
      <stop offset=".7" stop-color="#ff9732"/>
      <stop offset=".84" stop-color="#ffad32"/>
      <stop offset="1" stop-color="#ffcc32"/>
    </linearGradient>
    <linearGradient id="linear-gradient-2" x1="302.46" y1="491.16" x2="302.46" y2="680.27" gradientUnits="userSpaceOnUse">
      <stop offset=".2" stop-color="#ff9732"/>
      <stop offset=".44" stop-color="#ffa232"/>
      <stop offset=".85" stop-color="#ffbf32"/>
      <stop offset="1" stop-color="#ffcc32"/>
    </linearGradient>
    <linearGradient id="linear-gradient-3" x1="98.14" y1="496.82" x2="98.14" y2="674.76" gradientUnits="userSpaceOnUse">
      <stop offset="0" stop-color="#ff9732"/>
      <stop offset=".25" stop-color="#ff9d32"/>
      <stop offset=".61" stop-color="#ffaf32"/>
      <stop offset="1" stop-color="#ffcc32"/>
    </linearGradient>
    <linearGradient id="linear-gradient-4" x1="277.17" y1="0" x2="277.17" y2="99.24" gradientUnits="userSpaceOnUse">
      <stop offset="0" stop-color="#fff"/>
      <stop offset=".53" stop-color="#f8f9ff"/>
      <stop offset="1" stop-color="#eef1ff"/>
    </linearGradient>
    <linearGradient id="linear-gradient-5" x1="474.57" y1="56.05" x2="474.57" y2="120.93" gradientUnits="userSpaceOnUse">
      <stop offset="0" stop-color="#fff"/>
      <stop offset=".53" stop-color="#f8f9ff"/>
      <stop offset="1" stop-color="#eef1ff"/>
    </linearGradient>
  </defs>
  <g id="Layer_2-2" data-name="Layer_2">
    <g>
      <path class="cls-5" d="M127.07,162.15c-3.36,2.84-55.4,48.27-71.68,71.41-16.8,23.87-41.32,57.94-30.94,95.47,11.49,41.55,60.3,59.04,89.28,60.99,3.02.2,3.73-1.68,4.42-3.54,12.38-33.21,23.97-61.08,36.37-94.28,16.99-45.48,34.03-90.93,50.92-136.45,1.08-2.9,2.46-3.67,5.39-3.65,19.89.13,39.78.17,59.66-.03,3.68-.04,5.29,1.02,6.43,4.59,24.48,76.97,49.12,152.12,73.6,229.09,1.14,3.58,2.75,4.41,6.42,4.89,8.72,1.14,14.13.98,21.16,1.66,2.73.26,5.1-1.89,5.1-4.64,0-.16,0-.31,0-.47-.08-60.4-.24-119.05-1.57-179.42-.46-20.84-12.44-37.86-30.12-46.7-3.88-1.94-11.01-4.51-17-6.67-.89-.32-.88-1.57.01-1.88,10.31-3.52,41.71-15.01,48.62-46.81.12-.57.93-.61,1.09-.04,4.66,16.34,16.51,32.75,28.27,37.72,10.21,4.31,24.84,9.18,36.01,8.96,20.01-.39,40.17-1.01,60.05.8,64.12,5.84,109.07,38.82,131.46,99.37,17.69,47.83,15.1,95.38-9.32,140.94-1.73,3.24-3.8,6.31-5.84,9.37-2.03,3.04-4.22,5.97-6.86,9.68,5.48.42,10.25.77,15.02,1.16,36.94,3,73.5,8.32,109.04,19.08,16.57,5.01,32.57,12.04,45.55,23.74,26.94,24.29,37.27,55.07,32.82,90.83-1.8,14.42-6.34,28.09-13,41.08-13.48,26.27-34.13,43.89-62.4,52.54-3.69,1.13-7.36,2.3-11.47,3.59-.7.22-1.09.98-.86,1.67,2.99,8.93,5.93,17.7,9.02,26.91.27.81-.33,1.65-1.18,1.65-8.31,0-16.25,0-24.19,0-4.86,0-9.73-.1-14.58.04-2.59.08-3.16-.98-4.13-3.9-1.4-4.19-2.28-7.73-2.94-11.39-1.55-8.54-2.12-6.95-8.18-6.94-16.6.01-32.71.88-48.69,1.18-6.17.11-8-1.04-8.9,2.47-1.4,5.51-3.05,10.95-4.69,16.64-.33,1.12-1.36,1.9-2.53,1.9-12.25,0-24.39,0-36.53,0-15.46,0-30.92-.15-46.38.06-3.83.05-6.01-.93-7.93-4.48-7.55-13.98-15.58-27.71-23.24-41.63-1.49-2.7-3.17-3.68-6.2-3.55-4.79.21-9.59.11-14.61.08-1.35,0-2.46,1.09-2.46,2.45v42.87c0,2.1-1.7,3.8-3.8,3.8h-35.2c-1.17,0-2.11-.95-2.11-2.11v-171.55c0-2.08,1.69-3.78,3.77-3.78h0c23.72-.02,47.44-.12,71.15.02,30.74.18,53.97,17.31,61.61,45.24,7.52,27.46-1.52,59.99-28.78,74.96h0c-.98.54-1.34,1.78-.8,2.77,9.39,17.07,18.73,34.06,28.3,51.47.62,1.12,2.26,1.03,2.74-.15.23-.57.44-1.11.62-1.65,21.56-55,37.95-111.98,56.78-168.01,1.17-3.47,2.6-4.8,6.41-4.72,11.07.25,22.14.13,33.33.11,2.07,0,3.92,1.32,4.58,3.28,12.65,37.16,25.23,74.12,37.75,110.91.76,2.24,3.12,3.54,5.42,2.97,28.41-7.09,47.78-23.93,56.54-52.5,8.98-29.31,2.26-55.21-18.84-76.95-11.52-11.86-26.68-18.23-42.4-22.8-37.83-10.99-76.6-15.42-115.85-18.15-19.16-1.33-17.39-3.1-40.16,7.66-18.71,8.84-38.93,12.61-59.58,12.79-40.07.35-80.14.14-120.21.15h0c-1.8,0-3.28-1.48-3.28-3.29,0-2.95,0-5.86,0-8.77,0-7.66.08-14.44-.12-22.1-.03-1.25.23-3.16-2.07-3.57-5.88-1.02-11.19-1.02-17.37-1.74-.81-.09-1.47.65-1.22,1.43,3.78,11.94,8.3,21.63,12.02,33.36.68,2.15-.91,4.34-3.17,4.34-14.72,0-60.71,0-70.12,0-1,0-1.86-.67-2.11-1.64-2.09-8.14-4.31-16.48-6.33-24.86-3.13-12.98-1.32-13.2-10.2-12.98-35.82.85-68.96.11-102.4,2.4-2.22.15-4.11,1.68-4.73,3.81-2.41,8.3-4.45,22.62-6.7,30.41-.7,2.44-1.76,3.28-4.27,3.27-23.57-.08-47.14-.05-70.71-.06-.58,0-1.16-.13-2.38-.28,4.74-12.8,9.4-25.4,14.14-38.21.41-1.11-.24-2.34-1.39-2.62-6.61-1.61-12.93-3.03-19.14-4.81-58.77-16.89-74.45-40.72-81.75-69.93-7.96-31.82,4.42-73.37,35.36-108.73,27.65-31.6,89.17-77.81,89.36-77.6ZM448.42,211.95c.92,60.62.95,118.87,1.87,180.01.04,2.96,2.46,5.05,5.4,5.38,21.34,2.4,29.57,3.5,43.52,2.41,32.69-2.57,56.37-19.21,68.49-49.83,12.94-32.69,10.93-65.28-5.69-96.37-12.5-23.38-32.35-38.13-58.58-41.65-17.68-2.37-35.81-1.36-53.75-1.83-.09,0-.19.04-.31.11-.61.37-.97,1.06-.95,1.77ZM279.85,386.27c-10.3-40.61-28.05-99.19-39.2-142.25-1.18-4.56-7.59-4.76-9.05-.28-14.14,43.4-36.63,103.08-49.44,144-.63,2.01.88,4.05,2.99,4.03,26.87-.22,67.15-1.51,91.79-1.73,1.97-.02,3.39-1.87,2.91-3.77ZM481.64,591.5c8.95,0,17.46.01,25.97,0,16.86-.03,27.65-9.4,30.08-26.11,2.82-19.44-10.22-34.71-29.75-34.79-6.18-.02-12.36,0-18.55,0-2.57,0-5.15,0-7.75,0v60.9ZM657.43,546.39c-6.98,24.68-13.67,48.3-20.4,72.11-.28,1,.47,2,1.51,2h39.59c1.28,0,2.21-1.23,1.86-2.47-6.7-23.69-13.34-47.14-20.27-71.65-.33-1.15-1.96-1.15-2.29,0Z"/>
      <path class="cls-1" d="M297.36,514.53v-14.7c0-1.46,1.18-2.65,2.65-2.65h133.02c1.46,0,2.65,1.18,2.65,2.65v30.94c0,1.46-1.18,2.65-2.65,2.65h-43.31c-1.46,0-2.65,1.18-2.65,2.65v135.71c0,1.46-1.18,2.65-2.65,2.65h-35.67c-1.46,0-2.65-1.18-2.65-2.65v-135.27c0-1.46-1.18-2.65-2.65-2.65h-40.09c-1.55,0-2.77,1.33-2.64,2.87.24,2.74.47,5.49.72,8.34.13,1.55-1.09,2.89-2.65,2.89h-35.94c-1.33,0-2.43-1.02-2.53-2.35h0c-1.48-20.12-15.41-24.74-30.26-22.58-7.5,1.09-13.24,4.92-15.01,12.94-1.77,8.02,1.15,14.42,7.85,18.6,5.83,3.63,12.11,6.65,18.43,9.37,10.26,4.42,20.83,8.13,31.07,12.58,17.75,7.71,29.38,20.58,31.34,40.43,3.1,31.43-12.53,53.32-43.34,60.57-19.86,4.68-39.54,3.62-58.38-4.7-23.24-10.25-33.18-32.8-32.78-53.41.03-1.44,1.21-2.6,2.65-2.6h35.57c1.33,0,2.45.98,2.62,2.3.33,2.52.62,4.97,1.18,7.37,3.58,15.21,17.21,23.36,34.06,20.48,10.19-1.74,15.88-6.82,17.42-15.55,1.59-9.03-1.68-16.65-10.77-21.16-10.12-5.01-20.81-8.86-31.23-13.27-7.58-3.2-15.44-5.91-22.61-9.86-17.22-9.48-25.13-24.71-24.82-44.12.32-19.48,8.95-34.61,26.52-43.12,24.33-11.79,49.23-11.5,73.68.15,7.73,3.69,13.9,9.19,18.65,16.08,1.58,2.3,5.17,1.22,5.17-1.58Z"/>
      <path class="cls-3" d="M177.63,669.93c.8,2.36-.95,4.81-3.44,4.81-12.32.01-24.11.05-35.89-.13-1.17-.02-2.95-1.62-3.37-2.85-1.71-5-3.08-10.13-4.4-15.25-.59-2.29-1.46-3.46-4.13-3.45-18.85.11-37.71,0-56.56.19-1.32.01-3.34,1.64-3.79,2.95-1.79,5.13-2.95,10.47-4.64,15.64-.38,1.17-1.96,2.76-3,2.78-11.96.17-23.92.14-36.33.13-2.48,0-4.22-2.43-3.43-4.78v-.04c19.05-56.27,38.11-112.52,57.07-168.81,1.04-3.1,2.38-4.35,5.84-4.28,11.49.23,23,.11,34.64.1,1.56,0,2.95.99,3.45,2.47,19.31,56.79,38.55,113.39,57.99,170.54ZM102.07,556.18c-1.12-3.95-6.72-3.95-7.84,0-5.61,19.83-11.22,39.67-16.84,59.58-.66,2.32,1.09,4.63,3.5,4.63h34.55c2.41,0,4.16-2.31,3.5-4.63-5.67-20.03-11.27-39.82-16.86-59.58Z"/>
      <path class="cls-2" d="M276.21.63c.26-.86,1.48-.84,1.73.02,3.93,13.98,5.6,22.71,14.35,31.36,8.66,8.56,17.43,11.96,32.35,16.63.86.27.84,1.5-.03,1.73-14.56,3.91-20.78,5.46-30.55,14.34-9.13,8.3-12.03,19.73-16.13,33.86-.25.85-1.44.87-1.72.03-4.74-14.3-8.77-26.92-17.51-34.78-8.18-7.36-17.12-10.18-28.96-13.45-.86-.24-.89-1.45-.04-1.73,11.87-3.81,20.94-6.75,30.77-15.76,7.4-6.79,11.74-19.31,15.75-32.27Z"/>
      <path class="cls-4" d="M472.78,120.41c-8.06-19.8-12.46-24.25-29.16-31.04-.69-.28-.7-1.26,0-1.54,16.34-6.66,24.03-15.71,29.87-31.24.28-.75,1.35-.7,1.57.06,5.49,18.77,19.16,26.24,30.47,30.94.74.31.66,1.37-.12,1.57-17.49,4.49-24.57,17.53-31.1,31.28-.31.66-1.26.63-1.53-.04Z"/>
    </g>
  </g>
</svg>
